<?xml version="1.0" encoding="UTF-8" standalone="no"?>
<svg
   xmlns:dc="http://purl.org/dc/elements/1.1/"
   xmlns:cc="http://creativecommons.org/ns#"
   xmlns:rdf="http://www.w3.org/1999/02/22-rdf-syntax-ns#"
   xmlns:svg="http://www.w3.org/2000/svg"
   xmlns="http://www.w3.org/2000/svg"
   xmlns:sodipodi="http://sodipodi.sourceforge.net/DTD/sodipodi-0.dtd"
   xmlns:inkscape="http://www.inkscape.org/namespaces/inkscape"
   version="1.1"
   width="25"
   height="25"
   id="surgeKnob"
   sodipodi:docname="surgeKnobRotateBGNight.svg"
   inkscape:version="0.92.4 (unknown)">
  <metadata
     id="metadata13">
    <rdf:RDF>
      <cc:Work
         rdf:about="">
        <dc:format>image/svg+xml</dc:format>
        <dc:type
           rdf:resource="http://purl.org/dc/dcmitype/StillImage" />
      </cc:Work>
    </rdf:RDF>
  </metadata>
  <defs
     id="defs11" />
  <sodipodi:namedview
     pagecolor="#ffffff"
     bordercolor="#666666"
     borderopacity="1"
     objecttolerance="10"
     gridtolerance="10"
     guidetolerance="10"
     inkscape:pageopacity="0"
     inkscape:pageshadow="2"
     inkscape:window-width="1920"
     inkscape:window-height="1029"
     id="namedview9"
     showgrid="false"
     inkscape:zoom="13.350176"
     inkscape:cx="-7.6891295"
     inkscape:cy="16.395466"
     inkscape:window-x="0"
     inkscape:window-y="0"
     inkscape:window-maximized="1"
     inkscape:current-layer="surgeKnob-group2" />
  <g
     id="surgeKnob-group">
    <g
       id="surgeKnob-group2">
      <circle
         id="surgeKnob-oval3"
         stroke="rgb(200, 200, 205)"
         stroke-width="0.1"
         stroke-miterlimit="10"
         fill="rgb(18,51,99)"
         cx="12.5"
         cy="12.5"
         r="12.25"
         style="fill:#bbbbbb;stroke:#e6e6e6;stroke-opacity:1;fill-opacity:1" />
      <path
         id="surgeKnob-bezier"
         stroke="none"
         fill="rgb(255, 144, 0)"
         d="M 18.84,4.2 C 18.76,4.38 18.72,4.58 18.72,4.79 18.72,5.62 19.39,6.29 20.22,6.29 20.42,6.29 20.62,6.25 20.8,6.17 21.87,7.57 22.59,9.25 22.83,11.09 22.51,11.11 22.21,11.23 21.97,11.42 21.63,11.69 21.42,12.11 21.42,12.58 21.42,13.37 22.02,14.01 22.79,14.08 22.53,15.7 21.89,17.2 20.96,18.48 20.74,18.35 20.49,18.28 20.22,18.28 20.1,18.28 19.98,18.29 19.87,18.32 19.21,18.47 18.72,19.07 18.72,19.78 18.72,20.07 18.8,20.35 18.95,20.58 17.52,21.69 15.8,22.44 13.91,22.69 13.88,22.03 13.41,21.48 12.78,21.32 12.67,21.29 12.54,21.28 12.42,21.28 11.63,21.28 10.99,21.88 10.92,22.65 9.24,22.38 7.69,21.7 6.38,20.73 6.59,20.47 6.72,20.14 6.72,19.78 6.72,19.25 6.45,18.79 6.04,18.52 5.81,18.37 5.52,18.28 5.22,18.28 4.86,18.28 4.53,18.41 4.27,18.62 3.28,17.29 2.6,15.73 2.34,14.02 2.97,13.84 3.42,13.26 3.42,12.58 3.42,12.05 3.14,11.58 2.72,11.32 2.6,11.24 2.45,11.17 2.3,11.13 2.54,9.23 3.29,7.49 4.42,6.06 4.65,6.2 4.93,6.29 5.22,6.29 6.05,6.29 6.72,5.62 6.72,4.79 6.72,4.52 6.65,4.26 6.52,4.04 6.7,3.91 6.89,3.78 7.08,3.66 7.26,3.55 7.45,3.44 7.64,3.33 8.67,2.78 9.79,2.39 10.98,2.21 11.16,2.83 11.74,3.29 12.42,3.29 12.89,3.29 13.31,3.07 13.58,2.74 13.71,2.57 13.81,2.38 13.87,2.17 15.72,2.4 17.42,3.13 18.84,4.2 Z M 18.84,4.2"
         style="fill:#000000" />
      <circle
         id="surgeKnob-oval2"
         stroke="rgb(30, 55, 91)"
         stroke-width="0.5"
         stroke-miterlimit="10"
         fill="rgb(255,146,19)"
         cx="12.5"
         cy="12.5"
         r="8"
         style="stroke:#000000;fill:#ff9213;stroke-opacity:1" />
    </g>
    <rect
       id="surgeKnob-rectangle"
       x="11.3"
       y="5.0635591"
       width="2.2"
       height="8.4364414"
       rx="1"
       style="fill:#c8c8c8;stroke:none;stroke-width:0.82987291" />
  </g>
</svg>
