<?xml version="1.0" encoding="utf-8"?>
<svg version="1.1" viewBox="0 0 384.00001 485.66925" height="128.5mm" width="101.6mm" data-name="Layer 2" id="Layer_2" xmlns="http://www.w3.org/2000/svg">
  <defs id="defs868">
    <linearGradient gradientUnits="userSpaceOnUse" y2="0" x2="144" y1="364.25198" x1="144" id="linear-gradient">
      <stop id="stop858" stop-color="#1e1e20" offset="0"/>
      <stop id="stop860" stop-color="#272729" offset="1"/>
    </linearGradient>
    <linearGradient gradientUnits="userSpaceOnUse" y2="364.25198" x2="144" y1="178.53825" x1="144" id="linear-gradient-2">
      <stop id="stop863" stop-opacity="0" stop-color="#000" offset="0"/>
      <stop id="stop865" stop-color="#000" offset="1"/>
    </linearGradient>
  </defs>
  <g transform="scale(1.3333333)" id="uuid-d7ca40b2-1f41-4d02-bbc0-85aa59c6e6f0">
    <rect y="0" x="0" id="rect870" style="fill:url(#linear-gradient)" height="364.25198" width="288"/>
    <rect x="0" id="rect872" style="opacity:0.25;fill:url(#linear-gradient-2)" height="185.71371" width="288" y="178.53825"/>
    <path style="fill:#b0b0b0" d="m 130.51758,349.03939 -1.92155,0.0975 c 0,-0.2601 -0.0764,-0.46494 -0.22922,-0.6145 -0.15282,-0.14956 -0.36578,-0.22433 -0.63889,-0.22433 -0.2341,0 -0.42105,0.0569 -0.56086,0.17068 -0.13981,0.1138 -0.20971,0.27148 -0.20971,0.47308 0,0.18207 0.0813,0.32187 0.24385,0.41943 0.17557,0.091 0.49746,0.19507 0.96564,0.31213 0.85185,0.2276 1.47449,0.50558 1.8679,0.83398 0.39341,0.3284 0.59012,0.78195 0.59012,1.36069 0,0.76733 -0.25687,1.34607 -0.77057,1.73621 -0.52022,0.38367 -1.17699,0.5755 -1.97032,0.5755 -0.90388,0 -1.63543,-0.2146 -2.19466,-0.64377 -0.55273,-0.43567 -0.82584,-1.04367 -0.81934,-1.82401 l 1.92155,-0.0975 c -0.007,0.27963 0.0927,0.50558 0.2975,0.67792 0.20484,0.17233 0.46982,0.25848 0.79496,0.25848 0.54623,0 0.81934,-0.19507 0.81934,-0.58524 0,-0.16907 -0.0943,-0.31375 -0.28287,-0.43405 -0.18858,-0.1203 -0.50721,-0.23898 -0.9559,-0.35602 -0.7153,-0.17557 -1.28103,-0.39993 -1.69721,-0.67303 -0.4877,-0.31863 -0.73155,-0.81934 -0.73155,-1.50214 0,-0.67627 0.22759,-1.23227 0.68278,-1.66794 0.46169,-0.44217 1.11847,-0.66327 1.97032,-0.66327 0.84535,0 1.52814,0.21133 2.04836,0.634 0.50722,0.41617 0.76732,0.9949 0.78033,1.73621 v -3e-5 z m 19.36182,0.87787 h 3.56023 v 0.60474 c 0,1.08594 -0.31863,1.96707 -0.9559,2.64334 -0.63727,0.67627 -1.49887,1.01443 -2.58482,1.01443 -1.11195,0 -2.02559,-0.33813 -2.74089,-1.01443 -0.70229,-0.66977 -1.05344,-1.5834 -1.05344,-2.74088 0,-1.15748 0.35115,-2.07111 1.05344,-2.74088 0.7153,-0.67627 1.62894,-1.01443 2.74089,-1.01443 0.86485,0 1.60292,0.21622 2.21417,0.64865 0.61127,0.43243 1.02744,1.03555 1.24852,1.80939 l -1.95081,0.32187 c -0.2341,-0.7413 -0.74455,-1.11197 -1.53139,-1.11197 -0.59825,0 -1.05669,0.17557 -1.37532,0.52673 -0.31863,0.35114 -0.47795,0.87137 -0.47795,1.56064 0,0.68927 0.15932,1.2095 0.47795,1.56064 0.31863,0.35114 0.77707,0.52673 1.37532,0.52673 0.7218,0 1.20625,-0.30887 1.45335,-0.92664 h -1.45335 v -1.66794 z m -13.70445,-3.14081 h 1.87279 v 4.19424 c 0,1.00793 -0.28612,1.79474 -0.85835,2.36047 -0.56573,0.56573 -1.35255,0.8486 -2.36047,0.8486 -1.01442,0 -1.80775,-0.28287 -2.37999,-0.8486 -0.57224,-0.56573 -0.85835,-1.35257 -0.85835,-2.36047 v -4.19424 h 1.88252 v 4.16498 c 0,1.04694 0.45193,1.5704 1.35582,1.5704 0.89737,0 1.34605,-0.52347 1.34605,-1.5704 z m 7.10095,7.29605 h 2.12639 l -1.47285,-2.76041 c 0.7283,-0.40967 1.09245,-1.11197 1.09245,-2.10687 0,-0.7543 -0.21783,-1.34769 -0.65352,-1.78012 -0.43569,-0.43243 -1.02744,-0.64865 -1.77524,-0.64865 h -3.29688 v 7.29605 h 1.88252 v -2.43851 h 0.79984 z m 16.04543,-5.62811 v -1.66794 h -4.7795 v 7.29605 h 4.78925 v -1.66794 h -2.90671 v -1.23877 h 2.47752 v -1.62894 h -2.47752 v -1.09247 h 2.89696 z m 9.67603,-1.66794 -1.98982,3.58951 2.11662,3.70654 H 166.949 l -1.3363,-2.45801 -1.34605,2.45801 h -2.17516 l 2.11662,-3.70654 -1.98982,-3.58951 h 2.17516 l 1.21925,2.33121 1.2095,-2.33121 z m 6.89612,1.66794 v -1.66794 h -6.43768 v 1.66794 h 2.28246 v 5.62811 h 1.88254 v -5.62811 h 2.27269 z m -34.71471,1.52164 v -1.52164 h 1.18999 c 0.2341,0 0.41617,0.0683 0.54623,0.20483 0.13007,0.13657 0.19508,0.32187 0.19508,0.55597 0,0.2341 -0.065,0.41943 -0.19508,0.55597 -0.13005,0.13657 -0.31213,0.20483 -0.54623,0.20483 h -1.18999 v 3e-5 z" id="path16"/>
    <g id="uuid-df5b0662-eb31-433e-bedf-88a7f7a7fb97">
      <path style="fill:#ff9000" d="m 118.32655,347.37716 2.36861,1.23239 v -2.4794 h -7.91462 c -0.37359,0 -0.67399,0.22833 -0.67399,0.51227 v 4.77731 l 1.62144,0.34833 c 0.0847,0.0176 0.16946,-0.0205 0.19642,-0.082 l 0.4044,-1.11237 c 0.027,-0.079 0.1502,-0.11417 0.24264,-0.0673 l 3.87835,2.02859 c 0.14635,0.0761 0.0385,0.25174 -0.13095,0.21368 l -2.98868,-0.63522 c -0.0847,-0.0176 -0.17331,0.0205 -0.19257,0.0849 l -0.39669,1.11237 c -0.027,0.0791 -0.15406,0.1142 -0.24264,0.0673 l -2.39172,-1.2587 v 2.59943 h 7.8607 c 0.40054,0 0.72406,-0.24881 0.72406,-0.55032 v -4.84464 l -1.60218,-0.33957 c -0.0847,-0.0176 -0.16946,0.0205 -0.19257,0.082 l -0.41595,1.1153 c -0.0308,0.079 -0.1502,0.11124 -0.24264,0.0673 l -3.88221,-2.03152 c -0.14635,-0.0761 -0.0385,-0.25174 0.13095,-0.21368 l 2.98868,0.63522 c 0.0847,0.0176 0.16946,-0.0205 0.19257,-0.082 l 0.41595,-1.1153 c 0.0308,-0.0761 0.1502,-0.11124 0.24264,-0.0644 v 0 z" id="uuid-870ad5ab-806f-48ba-933f-315f10fa4560"/>
    </g>
    <rect style="fill:#2663be" height="1.41971" width="104.24074" y="349.77374" x="183.75926" id="rect20"/>
    <rect style="fill:#2663be" height="1.41971" width="104.19002" y="349.77374" x="1.9999999e-05" id="rect22"/>
    <line style="fill:none;stroke:#525252;stroke-linecap:round;stroke-miterlimit:10" y2="259.47842" x2="26.815769" y1="253.2422" x1="26.815769" id="line26"/>
    <line style="fill:none;stroke:#525252;stroke-linecap:round;stroke-miterlimit:10" y2="259.47842" x2="65.877182" y1="253.2422" x1="65.877182" id="line28"/>
    <line style="fill:none;stroke:#525252;stroke-linecap:round;stroke-miterlimit:10" y2="259.47842" x2="104.9386" y1="253.2422" x1="104.9386" id="line30"/>
    <line style="fill:none;stroke:#525252;stroke-linecap:round;stroke-miterlimit:10" y2="259.47842" x2="144.00002" y1="253.2422" x1="144.00002" id="line32"/>
  </g>
</svg>