<?xml version="1.0" encoding="utf-8"?>
<svg version="1.1" viewBox="0 0 230.39999 485.66925" height="128.5mm" width="60.959999mm" data-name="Layer 2" id="Layer_2" xmlns="http://www.w3.org/2000/svg">
  <defs id="defs2738">
    <linearGradient gradientUnits="userSpaceOnUse" y2="364.25198" x2="86.400002" y1="178.53825" x1="86.400002" id="linear-gradient">
      <stop id="stop2728" stop-opacity="0" stop-color="#000" offset="0"/>
      <stop id="stop2730" stop-color="#000" offset="1"/>
    </linearGradient>
  </defs>
  <g transform="scale(1.3333333)" id="PANELS">
    <rect y="0" x="0" id="rect2740" style="fill:#525252" height="364.25198" width="172.8"/>
    <rect x="0" id="rect2742" style="opacity:0.17;fill:url(#linear-gradient)" height="185.71371" width="172.8" y="178.53825"/>
    <rect id="rect2744" style="fill:#2663be" height="1.41971" width="46.590019" y="349.77374" x="126.20998"/>
    <rect x="0" id="rect2746" style="fill:#2663be" height="1.41971" width="46.590019" y="349.77374"/>
    <path id="path2748" style="fill:#b0b0b0" d="m 72.91756,349.03939 -1.92155,0.0975 c 0,-0.26011 -0.07641,-0.46494 -0.22922,-0.61451 -0.15281,-0.14956 -0.36578,-0.22434 -0.63889,-0.22434 -0.2341,0 -0.42105,0.0569 -0.56086,0.1707 -0.13981,0.1138 -0.20971,0.27149 -0.20971,0.47307 0,0.18208 0.08128,0.32188 0.24385,0.41942 0.17557,0.091 0.49746,0.19508 0.96565,0.31213 0.85185,0.22759 1.47449,0.50559 1.8679,0.83397 0.39341,0.32839 0.59012,0.78195 0.59012,1.36069 0,0.76732 -0.25686,1.34606 -0.77057,1.73622 -0.52022,0.38366 -1.17699,0.57549 -1.97032,0.57549 -0.90388,0 -1.63543,-0.21459 -2.19466,-0.64377 -0.55273,-0.43568 -0.82584,-1.04368 -0.81934,-1.82401 l 1.92155,-0.0975 c -0.0065,0.27962 0.09266,0.50559 0.2975,0.67791 0.20484,0.17232 0.46982,0.25848 0.79496,0.25848 0.54623,0 0.81934,-0.19508 0.81934,-0.58524 0,-0.16907 -0.09429,-0.31376 -0.28287,-0.43406 -0.18858,-0.1203 -0.50721,-0.23898 -0.9559,-0.35602 -0.7153,-0.17557 -1.28103,-0.39992 -1.69721,-0.67303 -0.4877,-0.31863 -0.73155,-0.81934 -0.73155,-1.50213 0,-0.67628 0.22759,-1.23226 0.68278,-1.66795 0.46169,-0.44218 1.11847,-0.66328 1.97032,-0.66328 0.84535,0 1.52814,0.21134 2.04835,0.63401 0.50721,0.41617 0.76732,0.99491 0.78033,1.73622 z m 19.36182,0.87787 h 3.56023 v 0.60475 c 0,1.08595 -0.31863,1.96707 -0.9559,2.64335 -0.63727,0.67628 -1.49887,1.01442 -2.58483,1.01442 -1.11196,0 -2.02559,-0.33814 -2.74089,-1.01442 -0.70229,-0.66978 -1.05344,-1.58341 -1.05344,-2.74089 0,-1.15748 0.35115,-2.07111 1.05344,-2.74089 0.7153,-0.67628 1.62893,-1.01442 2.74089,-1.01442 0.86486,0 1.60292,0.21622 2.21417,0.64865 0.61126,0.43243 1.02743,1.03556 1.24852,1.80938 l -1.95081,0.32188 c -0.2341,-0.74131 -0.74456,-1.11196 -1.53139,-1.11196 -0.59825,0 -1.05669,0.17557 -1.37532,0.52672 -0.31863,0.35115 -0.47795,0.87136 -0.47795,1.56065 0,0.68929 0.15932,1.2095 0.47795,1.56065 0.31863,0.35115 0.77707,0.52672 1.37532,0.52672 0.7218,0 1.20625,-0.30888 1.45336,-0.92664 h -1.45336 v -1.66795 z m -13.70446,-3.14081 h 1.87278 v 4.19425 c 0,1.00792 -0.28612,1.79475 -0.85836,2.36048 -0.56574,0.56574 -1.35256,0.8486 -2.36048,0.8486 -1.01442,0 -1.80775,-0.28287 -2.37999,-0.8486 -0.57224,-0.56574 -0.85836,-1.35256 -0.85836,-2.36048 v -4.19425 h 1.88253 v 4.16499 c 0,1.04694 0.45194,1.5704 1.35582,1.5704 0.89737,0 1.34606,-0.52347 1.34606,-1.5704 z m 7.10096,7.29604 h 2.12639 l -1.47286,-2.7604 c 0.7283,-0.40967 1.09245,-1.11196 1.09246,-2.10688 0,-0.75431 -0.21784,-1.34769 -0.65352,-1.78012 -0.43568,-0.43243 -1.02743,-0.64865 -1.77524,-0.64865 h -3.29687 v 7.29604 h 1.88253 v -2.43852 h 0.79983 l 1.29729,2.43852 z m 16.04543,-5.6281 v -1.66794 h -4.77949 v 7.29604 h 4.78924 v -1.66795 h -2.90671 v -1.23877 h 2.47753 v -1.62893 h -2.47753 v -1.09246 h 2.89696 z m 9.67603,-1.66794 -1.98983,3.5895 2.11663,3.70654 h -2.17516 l -1.33631,-2.45802 -1.34606,2.45802 h -2.17516 l 2.11663,-3.70654 -1.98983,-3.5895 h 2.17516 l 1.21926,2.33122 1.2095,-2.33122 h 2.17516 z m 6.89612,1.66794 v -1.66794 h -6.43768 v 1.66794 h 2.28245 v 5.6281 h 1.88254 v -5.6281 h 2.2727 z m -34.71471,1.52163 v -1.52163 h 1.18999 c 0.2341,0 0.41617,0.0683 0.54623,0.20484 0.13006,0.13656 0.19508,0.32188 0.19508,0.55598 0,0.2341 -0.06503,0.41942 -0.19508,0.55598 -0.13005,0.13656 -0.31213,0.20484 -0.54623,0.20484 h -1.18999 z"/>
    <g id="Favicon">
      <path style="fill:#ff9000" d="m 60.72654,347.37718 2.36861,1.23238 v -2.4794 h -7.91462 c -0.37359,0 -0.67399,0.22833 -0.67399,0.51227 v 4.77731 l 1.62144,0.34832 c 0.08473,0.0176 0.16946,-0.0205 0.19642,-0.082 l 0.4044,-1.11236 c 0.02696,-0.079 0.1502,-0.11416 0.24264,-0.0673 l 3.87835,2.02861 c 0.14635,0.0761 0.03851,0.25173 -0.13095,0.21368 l -2.98868,-0.63521 c -0.08473,-0.0176 -0.17331,0.0205 -0.19257,0.0849 l -0.39669,1.11236 c -0.02696,0.0791 -0.15406,0.11419 -0.24264,0.0673 l -2.39172,-1.25871 v 2.59942 h 7.8607 c 0.40054,0 0.72406,-0.2488 0.72406,-0.55033 v -4.84463 l -1.60218,-0.33956 c -0.08473,-0.0176 -0.16946,0.0205 -0.19257,0.082 l -0.41595,1.11531 c -0.03081,0.079 -0.1502,0.11123 -0.24264,0.0673 l -3.88221,-2.03154 c -0.14635,-0.0761 -0.03851,-0.25175 0.13095,-0.21369 l 2.98868,0.63522 c 0.08473,0.0176 0.16946,-0.0205 0.19257,-0.082 l 0.41595,-1.11529 c 0.03081,-0.0761 0.1502,-0.11124 0.24264,-0.0644 v 0 z" id="Logo"/>
    </g>
  </g>
  <g transform="scale(1.3333333)" data-name="Labels Modern (outline)" id="Labels_Modern__outline_">
    <line id="line2787" style="fill:none;stroke:#292929;stroke-miterlimit:10" y2="259.47842" x2="26.97431" y1="253.2422" x1="26.97431"/>
    <line id="line2789" style="fill:none;stroke:#292929;stroke-linecap:round;stroke-miterlimit:10" y2="259.47842" x2="66.385338" y1="253.2422" x1="66.385338"/>
    <line id="line2791" style="fill:none;stroke:#292929;stroke-linecap:round;stroke-miterlimit:10" y2="259.47842" x2="106.50365" y1="253.2422" x1="106.50365"/>
    <line id="line2793" style="fill:none;stroke:#292929;stroke-linecap:round;stroke-miterlimit:10" y2="259.47842" x2="145.91605" y1="253.2422" x1="145.91605"/>
  </g>
</svg>