<?xml version="1.0" encoding="UTF-8"?>
<svg width="200px" height="121px" viewBox="0 0 200 121" version="1.1" xmlns="http://www.w3.org/2000/svg" xmlns:xlink="http://www.w3.org/1999/xlink">
    <!-- Generator: Sketch 53.2 (72643) - https://sketchapp.com -->
    <title>SURGEFX</title>
    <desc>Created with Sketch.</desc>
    <g id="Page-1" stroke="none" stroke-width="1" fill="none" fill-rule="evenodd">
        <g id="Artboard" transform="translate(-890.000000, -297.000000)" fill="#000000" fill-rule="nonzero">
            <path d="M927.449001,316.408 L923.216001,350.77 L962.475001,350.77 L959.902001,369.611 L920.892001,369.611 L914.916001,418 L890.763001,418 L905.620001,297.567 L976.502001,297.567 L974.095001,316.408 L927.449001,316.408 Z M1049.004,352.596 L1078.635,418 L1053.27026,418 C1053.33862,418 1051.328,414.016 1051.328,414.016 L1031.906,367.536 C1031.68467,367.978669 1031.4495,368.393665 1031.2005,368.781 C1030.9515,369.168335 1030.68867,369.555665 1030.412,369.943 L1001.279,414.016 C1001.279,414.016 998.483766,418 998.769287,418 L969.905001,418 L1015.804,353.675 L989.161001,297.567 L1015,297.567 C1015,297.567 1015.69333,299.365328 1016.136,300.472 L1033.4,340.395 C1033.67667,339.78633 1033.981,339.219169 1034.313,338.6935 C1034.645,338.167831 1035.00467,337.60067 1035.392,336.992 L1059.047,300.804 C1059.047,300.804 1060.99121,297.567 1061,297.567 L1089.508,297.567 L1049.004,352.596 Z" id="SURGEFX"></path>
        </g>
    </g>
</svg>