<?xml version="1.0" encoding="UTF-8" standalone="no"?>
<!DOCTYPE svg PUBLIC "-//W3C//DTD SVG 1.1//EN" "http://www.w3.org/Graphics/SVG/1.1/DTD/svg11.dtd">
<svg width="100%" height="100%" viewBox="0 0 329 61" version="1.1" xmlns="http://www.w3.org/2000/svg" xmlns:xlink="http://www.w3.org/1999/xlink" xml:space="preserve" xmlns:serif="http://www.serif.com/" style="fill-rule:evenodd;clip-rule:evenodd;stroke-linejoin:round;stroke-miterlimit:1.41421;">
    <g transform="matrix(1,0,0,1,-21.168,-15.8925)">
        <g transform="matrix(1,0,0,0.771321,123.979,108.525)">
            <g transform="matrix(2.31972,0,-3.28216e-33,2.90581,-112.91,-132.453)">
                <path d="M16.588,11.648C15.533,10.876 14.46,10.489 13.369,10.489C11.178,10.489 10.082,11.317 10.082,12.971C10.082,13.672 10.664,14.508 11.828,15.481L13.887,17.227C14.524,17.773 14.965,18.17 15.21,18.42C15.456,18.67 15.715,19.018 15.988,19.464C16.26,19.909 16.465,20.359 16.601,20.814C16.738,21.269 16.806,21.732 16.806,22.205C16.806,24.033 16.122,25.461 14.753,26.488C13.385,27.516 11.609,28.029 9.427,28.029C7.636,28.029 5.945,27.643 4.353,26.87L5.499,23.365C6.717,24.283 8.131,24.742 9.741,24.742C10.714,24.742 11.521,24.535 12.162,24.122C12.803,23.708 13.123,23.119 13.123,22.355C13.123,21.601 12.541,20.769 11.378,19.859L9.236,18.154C8.582,17.627 8.138,17.245 7.906,17.009C7.675,16.772 7.431,16.443 7.177,16.02C6.922,15.597 6.731,15.163 6.604,14.717C6.477,14.272 6.413,13.813 6.413,13.34C6.413,11.503 7.022,10.048 8.241,8.975C9.459,7.902 11.055,7.366 13.028,7.366C13.683,7.366 14.519,7.441 15.538,7.591C16.556,7.741 17.27,7.911 17.679,8.102L16.588,11.648Z" style="fill:white;fill-rule:nonzero;"/>
                <path d="M34.373,21.537C33.991,23.592 33.037,25.188 31.509,26.324C29.982,27.461 28.09,28.029 25.835,28.029C23.953,28.029 22.419,27.577 21.232,26.672C20.045,25.767 19.452,24.519 19.452,22.928C19.452,22.446 19.502,21.932 19.602,21.387L22.112,7.707L25.767,7.707L23.216,21.319C23.171,21.564 23.148,21.823 23.148,22.096C23.148,22.996 23.426,23.692 23.98,24.183C24.535,24.674 25.29,24.919 26.244,24.919C27.463,24.919 28.477,24.588 29.286,23.924C30.095,23.26 30.609,22.328 30.827,21.128L33.323,7.707L36.924,7.707L34.373,21.537Z" style="fill:white;fill-rule:nonzero;"/>
                <path d="M47.781,18.836L52.241,27.688L48.245,27.688L44.426,19.423C43.807,19.414 43.048,19.377 42.148,19.314L40.607,27.688L36.951,27.688L40.607,7.707C43.262,7.57 45.003,7.502 45.83,7.502C47.985,7.502 49.688,7.918 50.938,8.75C52.189,9.582 52.814,10.785 52.814,12.358C52.814,13.958 52.357,15.347 51.443,16.525C50.529,17.702 49.308,18.473 47.781,18.836ZM43.703,10.776L42.68,16.368C43.216,16.422 43.694,16.45 44.112,16.45C47.549,16.45 49.267,15.358 49.267,13.176C49.267,12.258 48.938,11.605 48.279,11.219C47.619,10.832 46.526,10.639 44.998,10.639C44.871,10.639 44.439,10.685 43.703,10.776Z" style="fill:white;fill-rule:nonzero;"/>
                <path d="M70.095,25.874C68.04,27.311 65.525,28.029 62.552,28.029C60.261,28.029 58.399,27.295 56.967,25.827C55.535,24.358 54.819,22.496 54.819,20.241C54.819,16.286 55.908,13.151 58.085,10.837C60.263,8.523 63.23,7.366 66.985,7.366C69.022,7.366 70.536,7.82 71.527,8.73L70.463,11.689C69.126,10.88 67.794,10.476 66.467,10.476C64.066,10.476 62.138,11.355 60.684,13.115C59.229,14.874 58.501,17.077 58.501,19.723C58.501,21.36 58.951,22.635 59.852,23.549C60.752,24.463 61.984,24.919 63.548,24.919C64.848,24.919 65.985,24.56 66.958,23.842L67.68,19.887L64.912,19.887L65.457,16.913L71.745,16.913L70.095,25.874Z" style="fill:white;fill-rule:nonzero;"/>
                <path d="M89.094,10.816L79.888,10.816L79.056,15.413L85.657,15.413L85.098,18.386L78.496,18.386L77.378,24.579L86.434,24.579L85.848,27.688L73.136,27.688L76.819,7.707L89.681,7.707L89.094,10.816Z" style="fill:white;fill-rule:nonzero;"/>
            </g>
        </g>
        <g transform="matrix(1,0,0,0.771321,123.979,108.525)">
            <g transform="matrix(1,0,0,1.29648,-123.979,-140.7)">
                <path d="M349.68,15.893L338.303,76.161L228.742,76.161L240.119,15.893L349.68,15.893ZM335.204,30.99L307.618,57.107L297.516,47.347L276.029,67.091L263.731,56.715L250.231,67.399L244.956,60.734L263.902,45.738L275.79,55.768L297.662,35.669L307.678,45.346L329.36,24.817C331.308,26.875 333.256,28.932 335.204,30.99Z" style="fill:white;"/>
            </g>
        </g>
    </g>
</svg>
