<?xml version="1.0" encoding="UTF-8" standalone="no"?>
<svg
   id="uuid-7e3a28f3-90ab-4ac7-8155-ce162b0fd4b2"
   data-name="Layer 2"
   width="11mm"
   height="5.9999986mm"
   viewBox="0 0 41.574802 22.677161"
   version="1.1"
   sodipodi:docname="rnd smooth.svg"
   inkscape:version="1.2.1 (9c6d41e410, 2022-07-14)"
   xmlns:inkscape="http://www.inkscape.org/namespaces/inkscape"
   xmlns:sodipodi="http://sodipodi.sourceforge.net/DTD/sodipodi-0.dtd"
   xmlns="http://www.w3.org/2000/svg"
   xmlns:svg="http://www.w3.org/2000/svg">
  <defs
     id="defs12" />
  <sodipodi:namedview
     id="namedview10"
     pagecolor="#ffffff"
     bordercolor="#000000"
     borderopacity="0.25"
     inkscape:showpageshadow="2"
     inkscape:pageopacity="0.0"
     inkscape:pagecheckerboard="0"
     inkscape:deskcolor="#d1d1d1"
     showgrid="false"
     inkscape:zoom="38.805557"
     inkscape:cx="15.59055"
     inkscape:cy="6.4423762"
     inkscape:window-width="1920"
     inkscape:window-height="1009"
     inkscape:window-x="-8"
     inkscape:window-y="-8"
     inkscape:window-maximized="1"
     inkscape:current-layer="uuid-7e3a28f3-90ab-4ac7-8155-ce162b0fd4b2"
     inkscape:document-units="mm" />
  <g
     id="uuid-4f230416-06e4-4c14-87ed-9afc09bd1b3a"
     data-name="Layer 1"
     transform="scale(1.3333334)">
    <g
       id="g6">
      <path
         d="m 16.79819,13.33708 c -0.23145,0 -0.43408,-0.16016 -0.48682,-0.3877 l -0.35156,-1.52148 -0.28857,1.09082 c -0.06152,0.2334 -0.2793,0.39551 -0.51953,0.37109 -0.23975,-0.01758 -0.43311,-0.20312 -0.46045,-0.44238 l -0.40137,-3.49609 -0.21973,1.31055 c -0.04004,0.23828 -0.24463,0.41406 -0.48633,0.41699 h -0.0068 c -0.23877,0 -0.44482,-0.16895 -0.49072,-0.4043 l -0.33545,-1.71875 -0.29492,1.3877 -0.81152,3.02344 c -0.06055,0.22656 -0.26953,0.41895 -0.50488,0.36914 -0.23438,-0.0098 -0.43018,-0.18164 -0.4707,-0.41309 L 10.2787,10.69743 10.03651,11.69938 C 9.97983,11.93571 9.77133,12.10758 9.5184,12.08122 9.27621,12.0656 9.07992,11.8781 9.05356,11.63591 L 8.58335,7.31364 8.42856,8.03141 C 8.37094,8.30094 8.10727,8.46696 7.83432,8.4152 7.56479,8.35661 7.39291,8.09098 7.45102,7.82047 L 8.25668,4.07828 C 8.30844,3.83805 8.52328,3.65348 8.77133,3.68473 9.01645,3.69743 9.21615,3.8859 9.24252,4.13004 l 0.49463,4.5459 0.13281,-0.54883 c 0.05566,-0.23047 0.27051,-0.39648 0.50146,-0.38281 0.23682,0.00781 0.43604,0.18066 0.47705,0.41406 L 11.264,10.5275 11.48373,9.70914 12.28256,5.95035 c 0.04932,-0.23242 0.23779,-0.39746 0.49365,-0.39551 0.2373,0.00195 0.44092,0.1709 0.48633,0.4043 l 0.27686,1.41895 0.3501,-2.08691 c 0.0415,-0.24512 0.27002,-0.41211 0.50635,-0.41699 0.24902,0.00684 0.45508,0.19531 0.4834,0.44336 l 0.50342,4.38477 0.12695,-0.48047 c 0.05859,-0.22266 0.22314,-0.36328 0.49121,-0.37207 0.22998,0.00391 0.42773,0.16309 0.47949,0.3877 l 0.17236,0.74609 0.45508,-3.62988 c 0.03027,-0.24023 0.22852,-0.4248 0.4707,-0.43652 0.25195,-0.01758 0.4585,0.15137 0.5127,0.38672 L 18.35386,7.44842 18.723,5.4328 c 0.04443,-0.24316 0.26025,-0.38672 0.50684,-0.41016 0.24707,0.00781 0.45166,0.19434 0.48145,0.44043 l 0.49854,4.13574 0.13281,-0.4873 c 0.05615,-0.20605 0.2373,-0.35352 0.4502,-0.36719 0.20996,-0.01953 0.41162,0.10938 0.49365,0.30664 l 0.07031,0.16895 0.58252,-4.96777 c 0.02832,-0.24121 0.22559,-0.42676 0.46826,-0.44043 0.23438,-0.02148 0.45996,0.14746 0.51514,0.38477 L 23.7279,7.62031 C 23.79089,7.88886 23.62438,8.1584 23.35534,8.2209 23.0902,8.28828 22.81725,8.11738 22.75427,7.84883 l -0.15332,-0.65234 -0.47363,4.04102 c -0.02637,0.22559 -0.20215,0.40527 -0.42725,0.43652 -0.22559,0.0293 -0.44385,-0.09277 -0.53076,-0.30273 l -0.24512,-0.58887 -0.42188,1.54883 c -0.06299,0.23145 -0.271,0.3916 -0.51904,0.36719 C 19.74499,12.68087 19.55212,12.4963 19.52331,12.259 l -0.41016,-3.40332 -0.2124,1.1582 c -0.04248,0.2334 -0.24316,0.4043 -0.48047,0.41016 -0.27148,0.0166 -0.44531,-0.15723 -0.49854,-0.3877 L 17.7484,9.28146 17.29479,12.89962 c -0.03027,0.24023 -0.22852,0.4248 -0.4707,0.43652 -0.0083,9.8e-4 -0.01709,9.8e-4 -0.02588,9.8e-4 z"
         fill="#ffffff"
         id="path4" />
    </g>
  </g>
</svg>
