<?xml version="1.0" encoding="UTF-8" standalone="no"?>
<svg
   id="uuid-04e787fa-f33d-41d7-b23b-469784c729a8"
   data-name="Layer 2"
   width="11mm"
   height="5.9999986mm"
   viewBox="0 0 41.574803 22.677161"
   version="1.1"
   sodipodi:docname="rnd step.svg"
   inkscape:version="1.2.1 (9c6d41e410, 2022-07-14)"
   xmlns:inkscape="http://www.inkscape.org/namespaces/inkscape"
   xmlns:sodipodi="http://sodipodi.sourceforge.net/DTD/sodipodi-0.dtd"
   xmlns="http://www.w3.org/2000/svg"
   xmlns:svg="http://www.w3.org/2000/svg">
  <defs
     id="defs12" />
  <sodipodi:namedview
     id="namedview10"
     pagecolor="#ffffff"
     bordercolor="#000000"
     borderopacity="0.25"
     inkscape:showpageshadow="2"
     inkscape:pageopacity="0.0"
     inkscape:pagecheckerboard="0"
     inkscape:deskcolor="#d1d1d1"
     showgrid="false"
     inkscape:zoom="38.805557"
     inkscape:cx="15.59055"
     inkscape:cy="8.5039366"
     inkscape:window-width="1920"
     inkscape:window-height="1009"
     inkscape:window-x="-8"
     inkscape:window-y="-8"
     inkscape:window-maximized="1"
     inkscape:current-layer="uuid-04e787fa-f33d-41d7-b23b-469784c729a8"
     inkscape:document-units="mm" />
  <g
     id="uuid-77cc4019-6f80-49a6-8fce-ec51696e14be"
     data-name="Layer 1"
     transform="scale(1.3333334)">
    <g
       id="g6">
      <path
         d="m 14.74345,13.33708 h -1.69482 c -0.27637,0 -0.5,-0.22363 -0.5,-0.5 V 8.09099 h -1.19482 c -0.27637,0 -0.5,-0.22363 -0.5,-0.5 V 4.68376 h -0.69434 v 3.87207 c 0,0.27637 -0.22363,0.5 -0.5,0.5 H 7.96465 c -0.27637,0 -0.5,-0.22363 -0.5,-0.5 0,-0.27637 0.22363,-0.5 0.5,-0.5 H 9.15947 V 4.18376 c 0,-0.27637 0.22363,-0.5 0.5,-0.5 h 1.69434 c 0.27637,0 0.5,0.22363 0.5,0.5 v 2.90723 h 1.19482 c 0.27637,0 0.5,0.22363 0.5,0.5 v 4.74609 h 0.69482 V 5.38981 c 0,-0.27637 0.22363,-0.5 0.5,-0.5 h 1.69434 c 0.27637,0 0.5,0.22363 0.5,0.5 v 5.74121 h 0.69482 V 7.98258 c 0,-0.27637 0.22363,-0.5 0.5,-0.5 h 1.19434 V 6.33903 c 0,-0.27637 0.22363,-0.5 0.5,-0.5 h 1.69482 c 0.27637,0 0.5,0.22363 0.5,0.5 v 3.85742 h 1.19482 c 0.27637,0 0.5,0.22363 0.5,0.5 0,0.27637 -0.22363,0.5 -0.5,0.5 h -1.69482 c -0.27637,0 -0.5,-0.22363 -0.5,-0.5 V 6.83903 h -0.69482 v 1.14355 c 0,0.27637 -0.22363,0.5 -0.5,0.5 h -1.19434 v 3.14844 c 0,0.27637 -0.22363,0.5 -0.5,0.5 h -1.69482 c -0.27637,0 -0.5,-0.22363 -0.5,-0.5 V 5.88981 h -0.69434 v 6.94727 c 0,0.27637 -0.22363,0.5 -0.5,0.5 z"
         fill="#ffffff"
         id="path4" />
    </g>
  </g>
</svg>
