<?xml version="1.0" encoding="UTF-8" standalone="no"?>
<svg
   id="uuid-dfbe3079-ce50-462d-b138-a80940b6ae67"
   data-name="Layer 2"
   width="11mm"
   height="5.9999986mm"
   viewBox="0 0 41.574803 22.677161"
   version="1.1"
   sodipodi:docname="eg.svg"
   inkscape:version="1.2.1 (9c6d41e410, 2022-07-14)"
   xmlns:inkscape="http://www.inkscape.org/namespaces/inkscape"
   xmlns:sodipodi="http://sodipodi.sourceforge.net/DTD/sodipodi-0.dtd"
   xmlns="http://www.w3.org/2000/svg"
   xmlns:svg="http://www.w3.org/2000/svg">
  <defs
     id="defs31" />
  <sodipodi:namedview
     id="namedview29"
     pagecolor="#ffffff"
     bordercolor="#000000"
     borderopacity="0.25"
     inkscape:showpageshadow="2"
     inkscape:pageopacity="0.0"
     inkscape:pagecheckerboard="0"
     inkscape:deskcolor="#d1d1d1"
     showgrid="false"
     inkscape:zoom="9.7013894"
     inkscape:cx="37.108087"
     inkscape:cy="23.604866"
     inkscape:window-width="1920"
     inkscape:window-height="1009"
     inkscape:window-x="-8"
     inkscape:window-y="-8"
     inkscape:window-maximized="1"
     inkscape:current-layer="uuid-dfbe3079-ce50-462d-b138-a80940b6ae67"
     inkscape:document-units="mm" />
  <g
     id="uuid-d7de35d0-1c5e-46d7-8a71-4832c47af0bc"
     data-name="Layer 1"
     transform="scale(1.3333334)">
    <g
       id="g25">
      <path
         d="m 7.96474,13.33708 c -0.05273,0 -0.10645,-0.0088 -0.15918,-0.02637 C 7.54384,13.22282 7.40273,12.93962 7.49062,12.6779 l 2.90967,-8.65332 c 0.06055,-0.17969 0.2168,-0.30957 0.4043,-0.33594 0.19189,-0.02051 0.37402,0.05469 0.48145,0.21094 l 2.83936,4.11035 h 6.27148 c 0.16895,0 0.32666,0.08496 0.41895,0.22656 l 2.81934,4.32715 c 0.15088,0.23145 0.08545,0.54199 -0.146,0.69238 -0.23193,0.15039 -0.5415,0.08496 -0.69189,-0.14648 L 20.12589,9.00993 h -6.2627 c -0.16406,0 -0.31787,-0.08105 -0.41113,-0.21582 L 11.03018,5.28923 8.43887,12.99626 c -0.07031,0.20898 -0.26514,0.34082 -0.47412,0.34082 z"
         fill="#ffffff"
         id="path23" />
    </g>
  </g>
</svg>
