<?xml version="1.0" encoding="UTF-8" standalone="no"?>
<svg xmlns:dc="http://purl.org/dc/elements/1.1/" xmlns:cc="http://creativecommons.org/ns#" xmlns:rdf="http://www.w3.org/1999/02/22-rdf-syntax-ns#" xmlns:svg="http://www.w3.org/2000/svg" xmlns="http://www.w3.org/2000/svg" xmlns:sodipodi="http://sodipodi.sourceforge.net/DTD/sodipodi-0.dtd" xmlns:inkscape="http://www.inkscape.org/namespaces/inkscape" inkscape:version="1.0 (4035a4f, 2020-05-01)" sodipodi:docname="classic-panel-light_1.svg" version="1.1" viewBox="0 0 230.39999 485.66925" height="128.5mm" width="60.959999mm" data-name="Layer 2" id="Layer_2">
  <metadata id="metadata7514">
    <rdf:RDF>
      <cc:Work rdf:about="">
        <dc:format>image/svg+xml</dc:format>
        <dc:type rdf:resource="http://purl.org/dc/dcmitype/StillImage" />
        <dc:title></dc:title>
      </cc:Work>
    </rdf:RDF>
  </metadata>
  <sodipodi:namedview inkscape:current-layer="Layer_2" inkscape:window-maximized="0" inkscape:window-y="25" inkscape:window-x="0" inkscape:cy="182.12599" inkscape:cx="86.400002" inkscape:zoom="1.6234774" units="mm" inkscape:document-units="mm" showgrid="false" id="namedview7512" inkscape:window-height="1163" inkscape:window-width="1744" inkscape:pageshadow="2" inkscape:pageopacity="0" guidetolerance="10" gridtolerance="10" objecttolerance="10" borderopacity="1" bordercolor="#666666" pagecolor="#ffffff" />
  <defs id="defs7225">
    <linearGradient gradientUnits="userSpaceOnUse" y2="364.25198" x2="86.400002" y1="0" x1="86.400002" id="linear-gradient">
      <stop id="stop7211" stop-color="#ebebeb" offset="0" />
      <stop id="stop7213" stop-color="#e9e9e9" offset=".71429" />
      <stop id="stop7215" stop-color="#e2e2e2" offset=".97129" />
      <stop id="stop7217" stop-color="#e1e1e1" offset="1" />
    </linearGradient>
    <linearGradient gradientUnits="userSpaceOnUse" y2="350.42447" x2="118.29347" y1="350.42447" x1="67.269836" id="linear-gradient-2">
      <stop id="stop7220" stop-color="#1e1e20" offset="0" />
      <stop id="stop7222" stop-color="#272729" offset="1" />
    </linearGradient>
  </defs>
  <g transform="scale(1.3333333)" id="PANELS">
    <rect y="0" x="0" id="rect7227" style="fill:url(#linear-gradient)" height="364.25198" width="172.8" />
    <rect id="rect7229" style="fill:#525252" ry="4.41927" rx="4.41927" height="40.110241" width="73.70079" y="299.05511" x="89.248611" />
    <g id="g7235">
      <rect id="rect7231" style="fill:#111111" ry="0.66406" rx="0.66406" height="106.22314" width="148.62988" y="25.408199" x="12.08512" />
      <path id="path7233" style="fill:#fafafa" d="M 159.96869,26.15413 V 130.88524 H 12.8313 V 26.15413 h 147.13739 m 0.0823,-1.49272 H 12.74903 c -0.77576,0 -1.41046,0.6347 -1.41046,1.41043 v 104.89567 c 0,0.77574 0.6347,1.41043 1.41046,1.41043 h 147.30194 c 0.77576,0 1.41046,-0.63469 1.41046,-1.41043 V 26.07184 c 0,-0.77574 -0.6347,-1.41043 -1.41046,-1.41043 z" />
    </g>
    <g id="g7241">
      <rect id="rect7237" style="fill:#111111" ry="0.66406" rx="0.66406" height="106.22314" width="148.62988" y="24.416019" x="12.08512" />
      <path id="path7239" d="M 159.96869,25.162 V 129.89311 H 12.8313 V 25.162 h 147.13739 m 0.0823,-1.49272 H 12.74903 c -0.77576,0 -1.41046,0.6347 -1.41046,1.41043 v 104.89567 c 0,0.77574 0.6347,1.41043 1.41046,1.41043 h 147.30194 c 0.77576,0 1.41046,-0.63469 1.41046,-1.41043 V 25.07972 c 0,-0.77574 -0.6347,-1.41043 -1.41046,-1.41043 v 0 z" />
    </g>
    <rect id="rect7243" style="fill:#2663be" height="1.41971" width="46.590019" y="349.77374" x="126.20998" />
    <rect x="0" id="rect7245" style="fill:#2663be" height="1.41971" width="46.590019" y="349.77374" />
    <path id="path7247" style="fill:url(#linear-gradient-2)" d="m 72.91756,349.03939 -1.92155,0.0975 c 0,-0.26011 -0.07641,-0.46494 -0.22922,-0.61451 -0.15281,-0.14956 -0.36578,-0.22434 -0.63889,-0.22434 -0.2341,0 -0.42105,0.0569 -0.56086,0.1707 -0.13981,0.1138 -0.20971,0.27149 -0.20971,0.47307 0,0.18208 0.08128,0.32188 0.24385,0.41942 0.17557,0.091 0.49746,0.19508 0.96565,0.31213 0.85185,0.22759 1.47449,0.50559 1.8679,0.83397 0.39341,0.32839 0.59012,0.78195 0.59012,1.36069 0,0.76732 -0.25686,1.34606 -0.77057,1.73622 -0.52022,0.38366 -1.17699,0.57549 -1.97032,0.57549 -0.90388,0 -1.63543,-0.21459 -2.19466,-0.64377 -0.55273,-0.43568 -0.82584,-1.04368 -0.81934,-1.82401 l 1.92155,-0.0975 c -0.0065,0.27962 0.09266,0.50559 0.2975,0.67791 0.20484,0.17232 0.46982,0.25848 0.79496,0.25848 0.54623,0 0.81934,-0.19508 0.81934,-0.58524 0,-0.16907 -0.09429,-0.31376 -0.28287,-0.43406 -0.18858,-0.1203 -0.50721,-0.23898 -0.9559,-0.35602 -0.7153,-0.17557 -1.28103,-0.39992 -1.69721,-0.67303 -0.4877,-0.31863 -0.73155,-0.81934 -0.73155,-1.50213 0,-0.67628 0.22759,-1.23226 0.68278,-1.66795 0.46169,-0.44218 1.11847,-0.66328 1.97032,-0.66328 0.84535,0 1.52814,0.21134 2.04835,0.63401 0.50721,0.41617 0.76732,0.99491 0.78033,1.73622 z m 19.36182,0.87787 h 3.56023 v 0.60475 c 0,1.08595 -0.31863,1.96707 -0.9559,2.64335 -0.63727,0.67628 -1.49887,1.01442 -2.58483,1.01442 -1.11196,0 -2.02559,-0.33814 -2.74089,-1.01442 -0.70229,-0.66978 -1.05344,-1.58341 -1.05344,-2.74089 0,-1.15748 0.35115,-2.07111 1.05344,-2.74089 0.7153,-0.67628 1.62893,-1.01442 2.74089,-1.01442 0.86486,0 1.60292,0.21622 2.21417,0.64865 0.61126,0.43243 1.02743,1.03556 1.24852,1.80938 l -1.95081,0.32188 c -0.2341,-0.74131 -0.74456,-1.11196 -1.53139,-1.11196 -0.59825,0 -1.05669,0.17557 -1.37532,0.52672 -0.31863,0.35115 -0.47795,0.87136 -0.47795,1.56065 0,0.68929 0.15932,1.2095 0.47795,1.56065 0.31863,0.35115 0.77707,0.52672 1.37532,0.52672 0.7218,0 1.20625,-0.30888 1.45336,-0.92664 h -1.45336 v -1.66795 z m -13.70446,-3.14081 h 1.87278 v 4.19425 c 0,1.00792 -0.28612,1.79475 -0.85836,2.36048 -0.56574,0.56574 -1.35256,0.8486 -2.36048,0.8486 -1.01442,0 -1.80775,-0.28287 -2.37999,-0.8486 -0.57224,-0.56574 -0.85836,-1.35256 -0.85836,-2.36048 v -4.19425 h 1.88253 v 4.16499 c 0,1.04694 0.45194,1.5704 1.35582,1.5704 0.89737,0 1.34606,-0.52347 1.34606,-1.5704 z m 7.10096,7.29604 h 2.12639 l -1.47286,-2.7604 c 0.7283,-0.40967 1.09245,-1.11196 1.09246,-2.10688 0,-0.75431 -0.21784,-1.34769 -0.65352,-1.78012 -0.43568,-0.43243 -1.02743,-0.64865 -1.77524,-0.64865 h -3.29687 v 7.29604 h 1.88253 v -2.43852 h 0.79983 l 1.29729,2.43852 z m 16.04543,-5.6281 v -1.66794 h -4.77949 v 7.29604 h 4.78924 v -1.66795 h -2.90671 v -1.23877 h 2.47753 v -1.62893 h -2.47753 v -1.09246 h 2.89696 z m 9.67603,-1.66794 -1.98983,3.5895 2.11663,3.70654 h -2.17516 l -1.33631,-2.45802 -1.34606,2.45802 h -2.17516 l 2.11663,-3.70654 -1.98983,-3.5895 h 2.17516 l 1.21926,2.33122 1.2095,-2.33122 h 2.17516 z m 6.89612,1.66794 v -1.66794 h -6.43768 v 1.66794 h 2.28245 v 5.6281 h 1.88254 v -5.6281 h 2.2727 z m -34.71471,1.52163 v -1.52163 h 1.18999 c 0.2341,0 0.41617,0.0683 0.54623,0.20484 0.13006,0.13656 0.19508,0.32188 0.19508,0.55598 0,0.2341 -0.06503,0.41942 -0.19508,0.55598 -0.13005,0.13656 -0.31213,0.20484 -0.54623,0.20484 h -1.18999 z" />
    <g id="Favicon">
      <path style="fill:#ff9000" d="m 60.72654,347.37718 2.36861,1.23238 v -2.4794 h -7.91462 c -0.37359,0 -0.67399,0.22833 -0.67399,0.51227 v 4.77731 l 1.62144,0.34832 c 0.08473,0.0176 0.16946,-0.0205 0.19642,-0.082 l 0.4044,-1.11236 c 0.02696,-0.079 0.1502,-0.11416 0.24264,-0.0673 l 3.87835,2.02861 c 0.14635,0.0761 0.03851,0.25173 -0.13095,0.21368 l -2.98868,-0.63521 c -0.08473,-0.0176 -0.17331,0.0205 -0.19257,0.0849 l -0.39669,1.11236 c -0.02696,0.0791 -0.15406,0.11419 -0.24264,0.0673 l -2.39172,-1.25871 v 2.59942 h 7.8607 c 0.40054,0 0.72406,-0.2488 0.72406,-0.55033 v -4.84463 l -1.60218,-0.33956 c -0.08473,-0.0176 -0.16946,0.0205 -0.19257,0.082 l -0.41595,1.11531 c -0.03081,0.079 -0.1502,0.11123 -0.24264,0.0673 l -3.88221,-2.03154 c -0.14635,-0.0761 -0.03851,-0.25175 0.13095,-0.21369 l 2.98868,0.63522 c 0.08473,0.0176 0.16946,-0.0205 0.19257,-0.082 l 0.41595,-1.11529 c 0.03081,-0.0761 0.1502,-0.11124 0.24264,-0.0644 v 0 z" id="Logo" />
    </g>
  </g>
  <g transform="scale(1.3333333)" data-name="Labels Classic (outline)" id="Labels_Classic__outline_">
    <g id="g7262">
      <path id="path7252" style="fill:#525252" d="m 18.21305,177.60596 h -0.92383 v 1.62891 c 0,0.22559 -0.1875,0.41309 -0.41992,0.41309 -0.22559,0 -0.41309,-0.1875 -0.41309,-0.41309 v -4.4292 c 0,-0.23242 0.1875,-0.41309 0.41309,-0.41309 h 1.34375 c 0.89258,0 1.61328,0.7207 1.61328,1.61426 0,0.87842 -0.7207,1.59912 -1.61328,1.59912 z m -0.92383,-0.8335 h 0.92383 c 0.43555,0 0.77246,-0.34521 0.78027,-0.76562 -0.0078,-0.43555 -0.34473,-0.78076 -0.78027,-0.78076 h -0.92383 v 1.54639 z" />
      <path id="path7254" style="fill:#525252" d="m 20.91911,174.80566 c 0,-0.23242 0.17969,-0.41309 0.41211,-0.41309 0.22559,0 0.4209,0.18066 0.4209,0.41309 v 4.4292 c 0,0.23291 -0.19531,0.41309 -0.4209,0.41309 -0.23242,0 -0.41211,-0.18018 -0.41211,-0.41309 z" />
      <path id="path7256" style="fill:#525252" d="m 26.40446,175.22607 h -1.19434 v 4.00879 c 0,0.23291 -0.17969,0.41309 -0.41309,0.41309 -0.22461,0 -0.41211,-0.18018 -0.41211,-0.41309 v -4.00879 H 23.1984 c -0.23242,0 -0.41309,-0.19531 -0.41309,-0.42041 0,-0.23242 0.18066,-0.41309 0.41309,-0.41309 h 3.20605 c 0.22461,0 0.41211,0.18066 0.41211,0.41309 0,0.2251 -0.1875,0.42041 -0.41211,0.42041 z" />
      <path id="path7258" style="fill:#525252" d="m 27.44255,176.94531 c 0.0078,-1.48633 1.25391,-2.69531 2.75586,-2.70264 0.66016,0 1.26074,0.21777 1.73438,0.58545 0.17969,0.15039 0.20996,0.41309 0.07422,0.60059 -0.14941,0.18799 -0.42773,0.21777 -0.60059,0.0825 -0.33008,-0.27002 -0.74316,-0.4126 -1.20801,-0.4126 -0.51855,0 -0.99902,0.20996 -1.35156,0.54053 -0.33789,0.34521 -0.54785,0.79541 -0.54785,1.30615 0,0.51074 0.20996,0.97607 0.54785,1.30615 0.35254,0.33057 0.83301,0.54053 1.35156,0.54053 0.46484,0 0.87109,-0.14258 1.20801,-0.4126 0.17285,-0.12793 0.45117,-0.0977 0.60059,0.0825 0.13574,0.1875 0.10547,0.45801 -0.07422,0.60059 -0.47363,0.36768 -1.07422,0.58545 -1.73438,0.58545 -1.50195,0 -2.74805,-1.2085 -2.75586,-2.70264 z" />
      <path id="path7260" style="fill:#525252" d="m 33.49626,179.23486 v -4.4292 c 0,-0.23242 0.17969,-0.41309 0.41309,-0.41309 0.23242,0 0.41992,0.18066 0.41992,0.41309 v 1.80176 h 1.94434 v -1.80176 c 0,-0.23242 0.18066,-0.41309 0.41309,-0.41309 0.23243,0 0.41992,0.18066 0.41992,0.41309 v 4.4292 c 0,0.23291 -0.1875,0.41309 -0.41992,0.41309 -0.23242,0 -0.41309,-0.18018 -0.41309,-0.41309 v -1.80176 h -1.94434 v 1.80176 c 0,0.23291 -0.1875,0.41309 -0.41992,0.41309 -0.2334,0 -0.41309,-0.18018 -0.41309,-0.41309 z" />
    </g>
    <g id="g7274">
      <path id="path7264" style="fill:#525252" d="m 55.33024,178.3418 c 0.13574,-0.16504 0.38281,-0.18799 0.54785,-0.0527 0.33105,0.27051 0.90137,0.58545 1.43457,0.57812 0.375,0 0.71289,-0.11279 0.93848,-0.27783 0.22461,-0.16504 0.32227,-0.35303 0.32227,-0.54053 0,-0.0977 -0.02246,-0.16504 -0.06738,-0.24023 -0.04492,-0.0752 -0.1123,-0.1499 -0.22559,-0.2251 -0.21777,-0.14258 -0.58496,-0.27051 -1.02832,-0.35303 h -0.01465 c -0.35352,-0.0674 -0.68359,-0.15771 -0.96875,-0.29248 -0.28516,-0.13525 -0.5332,-0.32275 -0.69824,-0.58594 -0.1123,-0.18018 -0.17285,-0.39014 -0.17285,-0.61523 0,-0.45068 0.25586,-0.84082 0.60059,-1.09619 0.35352,-0.25537 0.81152,-0.39795 1.29883,-0.39795 0.7207,0 1.25391,0.35303 1.63672,0.60059 0.17285,0.12012 0.22559,0.36035 0.10547,0.5332 -0.11328,0.18018 -0.35352,0.23242 -0.5332,0.1123 -0.38281,-0.25537 -0.75098,-0.48047 -1.20898,-0.48047 -0.33789,0 -0.6377,0.10498 -0.84082,0.25537 -0.20215,0.15039 -0.28516,0.31543 -0.28516,0.47314 0,0.0898 0.01562,0.1499 0.05273,0.20996 0.03711,0.0601 0.10547,0.12744 0.20312,0.19531 0.19434,0.13525 0.53223,0.25537 0.9375,0.33008 h 0.01562 c 0.38281,0.0752 0.73535,0.17285 1.03613,0.31543 0.30762,0.15039 0.57812,0.34521 0.75,0.62305 0.11328,0.18018 0.18066,0.40576 0.18066,0.63818 0,0.48047 -0.27051,0.89355 -0.64551,1.16357 -0.36816,0.27051 -0.85645,0.42822 -1.38867,0.42822 -0.81152,-0.008 -1.49414,-0.41309 -1.92188,-0.75098 -0.16504,-0.13525 -0.18848,-0.38281 -0.06055,-0.54785 z" />
      <path id="path7266" style="fill:#525252" d="m 60.53532,179.23486 v -4.4292 c 0,-0.23242 0.18066,-0.41309 0.41309,-0.41309 0.23243,0 0.4209,0.18066 0.4209,0.41309 v 1.80176 h 1.94434 v -1.80176 c 0,-0.23242 0.17969,-0.41309 0.41211,-0.41309 0.2334,0 0.4209,0.18066 0.4209,0.41309 v 4.4292 c 0,0.23291 -0.1875,0.41309 -0.4209,0.41309 -0.23242,0 -0.41211,-0.18018 -0.41211,-0.41309 v -1.80176 h -1.94434 v 1.80176 c 0,0.23291 -0.18848,0.41309 -0.4209,0.41309 -0.23242,0 -0.41309,-0.18018 -0.41309,-0.41309 z" />
      <path id="path7268" style="fill:#525252" d="m 68.08317,178.40918 h -1.82422 l -0.36816,0.97607 c -0.06738,0.16504 -0.22461,0.2627 -0.38965,0.2627 -0.05273,0 -0.09766,-0.007 -0.14258,-0.0225 -0.21777,-0.0825 -0.32324,-0.32275 -0.24805,-0.54053 l 1.65918,-4.42188 c 0.06738,-0.16504 0.23242,-0.27051 0.39746,-0.2627 0.17285,-0.008 0.33105,0.0977 0.39844,0.2627 l 1.65918,4.42188 c 0.0752,0.21777 -0.03027,0.45801 -0.24805,0.54053 -0.03711,0.0151 -0.08984,0.0225 -0.14258,0.0225 -0.16504,0 -0.32324,-0.0977 -0.38281,-0.2627 z m -0.30762,-0.82568 -0.6084,-1.61426 -0.60742,1.61426 z" />
      <path id="path7270" style="fill:#525252" d="m 72.04216,177.60596 h -0.92285 v 1.62891 c 0,0.22559 -0.18848,0.41309 -0.4209,0.41309 -0.22559,0 -0.41309,-0.1875 -0.41309,-0.41309 v -4.4292 c 0,-0.23242 0.1875,-0.41309 0.41309,-0.41309 h 1.34375 c 0.89355,0 1.61426,0.7207 1.61426,1.61426 0,0.87842 -0.7207,1.59912 -1.61426,1.59912 z m -0.92285,-0.8335 h 0.92285 c 0.43555,0 0.77344,-0.34521 0.78125,-0.76562 -0.0078,-0.43555 -0.3457,-0.78076 -0.78125,-0.78076 h -0.92285 v 1.54639 z" />
      <path id="path7272" style="fill:#525252" d="m 74.69548,179.23486 v -4.4292 c 0,-0.23242 0.17969,-0.41309 0.41309,-0.41309 h 2.4541 c 0.21777,0 0.41309,0.18066 0.41309,0.41309 0,0.23291 -0.19531,0.42041 -0.41309,0.42041 h -2.03418 v 1.37402 h 1.74902 c 0.22559,0 0.41309,0.19482 0.41309,0.4126 0,0.23291 -0.1875,0.42041 -0.41309,0.42041 h -1.74902 v 1.38135 h 2.03418 c 0.21777,0 0.41309,0.18799 0.41309,0.42041 0,0.22559 -0.19531,0.41309 -0.41309,0.41309 h -2.43164 c -0.01562,0 -0.01562,-0.007 -0.01562,-0.007 l -0.0068,0.007 c -0.2334,0 -0.41309,-0.1875 -0.41309,-0.41309 z" />
    </g>
    <g id="g7288">
      <path id="path7276" style="fill:#525252" d="m 99.14079,175.01611 -1.83984,4.37646 c -0.0068,0.0225 -0.02246,0.0527 -0.03711,0.0679 l -0.0078,0.007 c -0.0078,0.0151 -0.02246,0.0303 -0.03711,0.0449 0,0.0151 -0.0078,0.0151 -0.0078,0.0225 -0.01465,0.008 -0.03711,0.0225 -0.05273,0.0376 h -0.0078 c -0.02246,0.0151 -0.03711,0.0376 -0.06738,0.0454 h -0.0068 c 0,0 -0.0078,0 -0.0078,0.007 -0.01465,0 -0.03809,0.007 -0.06055,0.0151 h -0.01465 c -0.02246,0.007 -0.04492,0.007 -0.0752,0.007 -0.02246,0 -0.04492,0 -0.06738,-0.007 H 96.8283 c -0.02246,-0.008 -0.03809,-0.0151 -0.05273,-0.0151 q -0.0078,-0.007 -0.01465,-0.007 c -0.03027,-0.008 -0.05273,-0.0303 -0.06738,-0.0454 h -0.0078 c -0.02246,-0.0151 -0.03809,-0.0298 -0.05273,-0.0376 q -0.0078,-0.007 -0.01465,-0.0225 c -0.0078,-0.0146 -0.02246,-0.0298 -0.03027,-0.0449 -0.01465,0 -0.01465,-0.007 -0.01465,-0.007 -0.01562,-0.0151 -0.02344,-0.0454 -0.03027,-0.0679 l -0.9834,-2.32715 -0.9834,2.32715 c -0.0078,0.0225 -0.02246,0.0527 -0.03027,0.0679 -0.0078,0 -0.0078,0.007 -0.0078,0.007 -0.01465,0.0151 -0.03027,0.0303 -0.04492,0.0449 0,0.0151 -0.0078,0.0151 -0.0078,0.0225 -0.01465,0.008 -0.0293,0.0225 -0.04492,0.0376 h -0.01465 c -0.02246,0.0151 -0.04492,0.0376 -0.06055,0.0454 h -0.0068 c 0,0 -0.0078,0 -0.0078,0.007 -0.03027,0 -0.04492,0.007 -0.05957,0.0151 h -0.02344 c -0.02246,0.007 -0.04492,0.007 -0.06738,0.007 -0.02246,0 -0.05273,0 -0.0752,-0.007 h -0.02246 c -0.02246,-0.008 -0.03711,-0.0151 -0.05176,-0.0151 q -0.0078,-0.007 -0.01562,-0.007 c -0.02246,-0.008 -0.05273,-0.0303 -0.06738,-0.0454 h -0.0078 c -0.02246,-0.0151 -0.0293,-0.0298 -0.05273,-0.0376 q -0.0068,-0.007 -0.01465,-0.0225 c -0.01465,-0.0146 -0.02246,-0.0298 -0.03711,-0.0449 v -0.007 c -0.01562,-0.0151 -0.02246,-0.0454 -0.03809,-0.0679 l -1.84668,-4.37646 c -0.08203,-0.20264 0.0078,-0.45068 0.22559,-0.5332 0.20215,-0.0903 0.4502,0.007 0.5332,0.21777 l 1.4707,3.47607 0.96875,-2.30518 c 0.06738,-0.16504 0.22559,-0.25488 0.39062,-0.25488 0.15723,0 0.31543,0.0898 0.38965,0.25488 l 0.96875,2.30518 1.46387,-3.47607 c 0.08984,-0.21045 0.33008,-0.30811 0.54785,-0.21777 0.20312,0.0825 0.30078,0.33057 0.21094,0.5332 z" />
      <path id="path7278" style="fill:#525252" d="m 100.19938,174.80566 c 0,-0.23242 0.17969,-0.41309 0.41211,-0.41309 0.22559,0 0.4209,0.18066 0.4209,0.41309 v 4.4292 c 0,0.23291 -0.19531,0.41309 -0.4209,0.41309 -0.23242,0 -0.41211,-0.18018 -0.41211,-0.41309 z" />
      <path id="path7280" style="fill:#525252" d="m 102.47087,179.23486 v -4.4292 c 0,-0.23242 0.18066,-0.41309 0.41309,-0.41309 h 0.88574 c 1.44922,0 2.62012,1.17871 2.62012,2.62012 0,1.45654 -1.1709,2.63525 -2.62012,2.63525 h -0.88574 c -0.23242,0 -0.41309,-0.1875 -0.41309,-0.41309 z m 0.83398,-0.42041 h 0.46484 c 0.99121,-0.007 1.78711,-0.80322 1.78711,-1.80176 0,-0.9834 -0.7959,-1.78662 -1.78711,-1.78662 h -0.46484 z" />
      <path id="path7282" style="fill:#525252" d="m 110.70231,175.22607 h -1.19434 v 4.00879 c 0,0.23291 -0.17969,0.41309 -0.41309,0.41309 -0.22461,0 -0.41211,-0.18018 -0.41211,-0.41309 v -4.00879 h -1.18652 c -0.23242,0 -0.41309,-0.19531 -0.41309,-0.42041 0,-0.23242 0.18066,-0.41309 0.41309,-0.41309 h 3.20605 c 0.22461,0 0.41211,0.18066 0.41211,0.41309 0,0.2251 -0.1875,0.42041 -0.41211,0.42041 z" />
      <path id="path7284" style="fill:#525252" d="m 112.38591,179.23486 v -4.4292 c 0,-0.23242 0.18066,-0.41309 0.41309,-0.41309 0.23243,0 0.4209,0.18066 0.4209,0.41309 v 1.80176 h 1.94434 v -1.80176 c 0,-0.23242 0.17969,-0.41309 0.41211,-0.41309 0.2334,0 0.4209,0.18066 0.4209,0.41309 v 4.4292 c 0,0.23291 -0.1875,0.41309 -0.4209,0.41309 -0.23242,0 -0.41211,-0.18018 -0.41211,-0.41309 v -1.80176 h -1.94434 v 1.80176 c 0,0.23291 -0.18848,0.41309 -0.4209,0.41309 -0.23242,0 -0.41309,-0.18018 -0.41309,-0.41309 z" />
      <path id="path7286" style="fill:#525252" d="m 120.54704,174.80566 v 4.4292 c 0,0.23291 -0.19434,0.41309 -0.41992,0.41309 -0.23242,0 -0.41309,-0.18018 -0.41309,-0.41309 v -3.69336 l -0.2998,0.17236 c -0.0684,0.0454 -0.14258,0.0605 -0.21094,0.0605 -0.14258,0 -0.27734,-0.0752 -0.35254,-0.21045 -0.12793,-0.1875 -0.0596,-0.45068 0.13477,-0.56299 l 0.92383,-0.54785 c 0.008,-0.008 0.0225,-0.008 0.0303,-0.0151 0.0146,0 0.0225,-0.0151 0.0371,-0.0225 0.0156,0 0.0303,-0.008 0.0449,-0.008 0.008,-0.007 0.0225,-0.007 0.0303,-0.007 0.0147,-0.008 0.0381,-0.008 0.0527,-0.008 h 0.082 c 0.008,0.008 0.0234,0.008 0.0303,0.008 0.0225,0 0.0303,0.007 0.0449,0.0151 0.008,0 0.0225,0 0.0303,0.007 0.0225,0.0151 0.0303,0.0225 0.0449,0.0225 0.008,0.008 0.0156,0.0151 0.0303,0.0225 0.008,0.008 0.0225,0.0151 0.0303,0.0225 0.0147,0.008 0.0225,0.0225 0.0293,0.0303 0.008,0.007 0.0156,0.0151 0.0234,0.0298 0.007,0.008 0.0225,0.023 0.0293,0.0303 l 0.008,0.0151 c 0,0.007 0.008,0.0147 0.008,0.0225 0.007,0.0147 0.0147,0.0225 0.0147,0.0376 0.008,0.0147 0.008,0.0298 0.0146,0.0376 0,0.0146 0.008,0.0298 0.008,0.0371 0,0.0225 0,0.0376 0.0147,0.0527 v 0.0225 z" />
    </g>
    <g id="g7302">
      <path id="path7290" style="fill:#525252" d="m 137.8693,175.01611 -1.83984,4.37646 c -0.007,0.0225 -0.0225,0.0527 -0.0371,0.0679 l -0.008,0.007 c -0.008,0.0151 -0.0225,0.0303 -0.0371,0.0449 0,0.0151 -0.008,0.0151 -0.008,0.0225 -0.0146,0.008 -0.0371,0.0225 -0.0527,0.0376 h -0.008 c -0.0225,0.0151 -0.0371,0.0376 -0.0674,0.0454 h -0.007 c 0,0 -0.008,0 -0.008,0.007 -0.0147,0 -0.0381,0.007 -0.0606,0.0151 h -0.0147 c -0.0225,0.007 -0.0449,0.007 -0.0752,0.007 -0.0225,0 -0.0449,0 -0.0674,-0.007 h -0.0225 c -0.0225,-0.008 -0.0381,-0.0151 -0.0527,-0.0151 q -0.008,-0.007 -0.0146,-0.007 c -0.0303,-0.008 -0.0527,-0.0303 -0.0674,-0.0454 h -0.008 c -0.0225,-0.0151 -0.0381,-0.0298 -0.0527,-0.0376 q -0.008,-0.007 -0.0147,-0.0225 c -0.008,-0.0146 -0.0225,-0.0298 -0.0303,-0.0449 -0.0146,0 -0.0146,-0.007 -0.0146,-0.007 -0.0156,-0.0151 -0.0234,-0.0454 -0.0303,-0.0679 l -0.9834,-2.32715 -0.9834,2.32715 c -0.008,0.0225 -0.0225,0.0527 -0.0303,0.0679 -0.008,0 -0.008,0.007 -0.008,0.007 -0.0146,0.0151 -0.0303,0.0303 -0.0449,0.0449 0,0.0151 -0.008,0.0151 -0.008,0.0225 -0.0146,0.008 -0.0293,0.0225 -0.0449,0.0376 h -0.0146 c -0.0225,0.0151 -0.0449,0.0376 -0.0606,0.0454 h -0.007 c 0,0 -0.008,0 -0.008,0.007 -0.0303,0 -0.0449,0.007 -0.0596,0.0151 h -0.0234 c -0.0225,0.007 -0.0449,0.007 -0.0674,0.007 -0.0225,0 -0.0527,0 -0.0752,-0.007 h -0.0225 c -0.0225,-0.008 -0.0371,-0.0151 -0.0518,-0.0151 q -0.008,-0.007 -0.0156,-0.007 c -0.0225,-0.008 -0.0527,-0.0303 -0.0674,-0.0454 h -0.008 c -0.0225,-0.0151 -0.0293,-0.0298 -0.0527,-0.0376 q -0.007,-0.007 -0.0147,-0.0225 c -0.0146,-0.0146 -0.0225,-0.0298 -0.0371,-0.0449 v -0.007 c -0.0156,-0.0151 -0.0225,-0.0454 -0.0381,-0.0679 l -1.84668,-4.37646 c -0.082,-0.20264 0.008,-0.45068 0.22559,-0.5332 0.20215,-0.0903 0.4502,0.007 0.5332,0.21777 l 1.4707,3.47607 0.96875,-2.30518 c 0.0674,-0.16504 0.22559,-0.25488 0.39062,-0.25488 0.15723,0 0.31543,0.0898 0.38965,0.25488 l 0.96875,2.30518 1.46387,-3.47607 c 0.0898,-0.21045 0.33008,-0.30811 0.54785,-0.21777 0.20312,0.0825 0.30078,0.33057 0.21094,0.5332 z" />
      <path id="path7292" style="fill:#525252" d="m 138.9279,174.80566 c 0,-0.23242 0.17969,-0.41309 0.41211,-0.41309 0.22559,0 0.4209,0.18066 0.4209,0.41309 v 4.4292 c 0,0.23291 -0.19531,0.41309 -0.4209,0.41309 -0.23242,0 -0.41211,-0.18018 -0.41211,-0.41309 z" />
      <path id="path7294" style="fill:#525252" d="m 141.19938,179.23486 v -4.4292 c 0,-0.23242 0.18066,-0.41309 0.41309,-0.41309 h 0.88574 c 1.44922,0 2.62012,1.17871 2.62012,2.62012 0,1.45654 -1.1709,2.63525 -2.62012,2.63525 h -0.88574 c -0.23242,0 -0.41309,-0.1875 -0.41309,-0.41309 z m 0.83398,-0.42041 h 0.46484 c 0.99121,-0.007 1.78711,-0.80322 1.78711,-1.80176 0,-0.9834 -0.7959,-1.78662 -1.78711,-1.78662 h -0.46484 z" />
      <path id="path7296" style="fill:#525252" d="m 149.43083,175.22607 h -1.19434 v 4.00879 c 0,0.23291 -0.17969,0.41309 -0.41309,0.41309 -0.22461,0 -0.41211,-0.18018 -0.41211,-0.41309 v -4.00879 h -1.18652 c -0.23242,0 -0.41309,-0.19531 -0.41309,-0.42041 0,-0.23242 0.18066,-0.41309 0.41309,-0.41309 h 3.20605 c 0.22461,0 0.41211,0.18066 0.41211,0.41309 0,0.2251 -0.1875,0.42041 -0.41211,0.42041 z" />
      <path id="path7298" style="fill:#525252" d="m 151.11442,179.23486 v -4.4292 c 0,-0.23242 0.18066,-0.41309 0.41309,-0.41309 0.23243,0 0.4209,0.18066 0.4209,0.41309 v 1.80176 h 1.94434 v -1.80176 c 0,-0.23242 0.17969,-0.41309 0.41211,-0.41309 0.2334,0 0.4209,0.18066 0.4209,0.41309 v 4.4292 c 0,0.23291 -0.1875,0.41309 -0.4209,0.41309 -0.23242,0 -0.41211,-0.18018 -0.41211,-0.41309 v -1.80176 h -1.94434 v 1.80176 c 0,0.23291 -0.18848,0.41309 -0.4209,0.41309 -0.23242,0 -0.41309,-0.18018 -0.41309,-0.41309 z" />
      <path id="path7300" style="fill:#525252" d="m 161.10758,179.23486 c 0,0.23291 -0.17969,0.41309 -0.41309,0.41309 h -2.67188 c -0.11328,0 -0.2334,-0.0449 -0.30859,-0.13525 -0.15723,-0.17236 -0.14258,-0.42773 0.0234,-0.58545 l 2.22168,-2.01221 c 0.21777,-0.19482 0.31543,-0.4502 0.31543,-0.7207 0,-0.24023 -0.083,-0.46533 -0.24805,-0.65283 -0.19531,-0.21777 -0.45801,-0.31543 -0.7207,-0.31543 -0.23242,0 -0.46484,0.0825 -0.65332,0.24756 l -0.23242,0.21045 c -0.17285,0.15771 -0.42773,0.14258 -0.58594,-0.0298 -0.14941,-0.17285 -0.14258,-0.42822 0.0303,-0.58594 l 0.2334,-0.20996 c 0.33691,-0.31543 0.78027,-0.46582 1.20801,-0.46582 0.48828,0 0.9834,0.20312 1.33691,0.59326 0.31445,0.33789 0.46484,0.78076 0.46484,1.2085 0,0.48828 -0.20215,0.98389 -0.59277,1.33643 l -1.41895,1.28369 h 1.59863 c 0.2334,0 0.41309,0.18799 0.41309,0.42041 z" />
    </g>
    <g id="g7316">
      <path id="path7304" style="fill:#525252" d="m 52.26286,223.69531 c 0.13574,-0.16504 0.38281,-0.1875 0.54785,-0.0527 0.33105,0.27051 0.90137,0.58594 1.43457,0.57812 0.375,0 0.71289,-0.1123 0.93848,-0.27734 0.22461,-0.16504 0.32227,-0.35352 0.32227,-0.54102 0,-0.0977 -0.02246,-0.16504 -0.06738,-0.24023 -0.04492,-0.0752 -0.1123,-0.14941 -0.22559,-0.22461 -0.21777,-0.14258 -0.58496,-0.27051 -1.02832,-0.35352 h -0.01465 c -0.35352,-0.0674 -0.68359,-0.15723 -0.96875,-0.29199 -0.28516,-0.13574 -0.5332,-0.32324 -0.69824,-0.58594 -0.1123,-0.18066 -0.17285,-0.39062 -0.17285,-0.61523 0,-0.45117 0.25586,-0.84082 0.60059,-1.09668 0.35352,-0.25488 0.81152,-0.39746 1.29883,-0.39746 0.7207,0 1.25391,0.35254 1.63672,0.60059 0.17285,0.12012 0.22559,0.36035 0.10547,0.5332 -0.11328,0.17969 -0.35352,0.23242 -0.5332,0.1123 -0.38281,-0.25586 -0.75098,-0.48047 -1.20898,-0.48047 -0.33789,0 -0.6377,0.10449 -0.84082,0.25488 -0.20215,0.15039 -0.28516,0.31543 -0.28516,0.47363 0,0.0898 0.01562,0.14941 0.05273,0.20996 0.03711,0.0596 0.10547,0.12695 0.20312,0.19531 0.19434,0.13477 0.53223,0.25488 0.9375,0.33008 h 0.01562 c 0.38281,0.0752 0.73535,0.17285 1.03613,0.31543 0.30762,0.15039 0.57812,0.34473 0.75,0.62305 0.11328,0.17969 0.18066,0.40527 0.18066,0.6377 0,0.48047 -0.27051,0.89355 -0.64551,1.16406 -0.36816,0.27051 -0.85645,0.42773 -1.38867,0.42773 -0.81152,-0.008 -1.49414,-0.41309 -1.92188,-0.75098 -0.16504,-0.13477 -0.18848,-0.38281 -0.06055,-0.54785 z" />
      <path id="path7306" style="fill:#525252" d="m 59.64567,225.00195 c -1.20898,0 -2.16992,-0.97656 -2.16992,-2.16992 v -2.67285 c 0,-0.23242 0.17969,-0.41309 0.41309,-0.41309 0.22461,0 0.41992,0.18066 0.41992,0.41309 v 2.67285 c 0,0.73535 0.60059,1.33594 1.33691,1.33594 0.74316,0 1.33594,-0.60059 1.33594,-1.33594 v -2.67285 c 0,-0.23242 0.1875,-0.41309 0.4209,-0.41309 0.23242,0 0.41211,0.18066 0.41211,0.41309 v 2.67285 c 0,1.19336 -0.96777,2.16992 -2.16895,2.16992 z" />
      <path id="path7308" style="fill:#525252" d="m 63.61051,224.58887 v -4.42969 c 0,-0.23242 0.1875,-0.41309 0.41309,-0.41309 h 1.06641 c 0.78809,0 1.42578,0.63867 1.42578,1.42676 0,0.32324 -0.10449,0.61523 -0.28516,0.85547 0.4502,0.28613 0.75879,0.78906 0.75879,1.35938 0,0.89355 -0.7207,1.61426 -1.60645,1.61426 h -1.3291 c -0.0078,0 -0.0078,-0.008 -0.0078,-0.008 -0.01465,0 -0.01465,0.008 -0.02246,0.008 -0.22559,0 -0.41309,-0.1875 -0.41309,-0.41309 z m 0.83398,-2.80762 H 65.09 c 0.33008,0 0.59277,-0.27832 0.59277,-0.6084 0,-0.33008 -0.2627,-0.59277 -0.59277,-0.59277 h -0.64551 z m 0,2.38672 h 0.93848 c 0.42773,-0.007 0.77246,-0.34473 0.77246,-0.78027 0,-0.42773 -0.34473,-0.76562 -0.77246,-0.77344 h -0.93848 z" />
      <path id="path7310" style="fill:#525252" d="m 72.62223,220.15918 v 4.42969 c 0,0.22559 -0.19531,0.41309 -0.41992,0.41309 -0.2334,0 -0.41309,-0.1875 -0.41309,-0.41309 v -3.16113 l -1.08105,1.50195 c -0.08301,0.1123 -0.20312,0.17285 -0.33789,0.17285 h -0.01465 c -0.13574,0 -0.26367,-0.0606 -0.3457,-0.17285 l -1.07324,-1.50195 v 3.16113 c 0,0.22559 -0.18848,0.41309 -0.4209,0.41309 -0.22559,0 -0.41309,-0.1875 -0.41309,-0.41309 v -4.42969 c 0,-0.22461 0.1875,-0.41309 0.41309,-0.41309 h 0.02246 c 0.12012,0 0.25586,0.0605 0.33008,0.17285 l 1.49414,2.07227 1.49414,-2.07227 c 0.08301,-0.1123 0.20312,-0.17285 0.33789,-0.17285 h 0.0078 c 0.22461,0.008 0.41992,0.18848 0.41992,0.41309 z" />
      <path id="path7312" style="fill:#525252" d="m 74.5236,220.15918 c 0,-0.23242 0.17969,-0.41309 0.41211,-0.41309 0.22559,0 0.4209,0.18066 0.4209,0.41309 v 4.42969 c 0,0.23242 -0.19531,0.41309 -0.4209,0.41309 -0.23242,0 -0.41211,-0.18066 -0.41211,-0.41309 z" />
      <path id="path7314" style="fill:#525252" d="m 80.5568,220.45996 -1.42676,1.93652 1.42676,1.95215 c 0.12695,0.17969 0.09766,0.44238 -0.09082,0.57031 -0.07422,0.0527 -0.15723,0.083 -0.24023,0.083 -0.13477,0 -0.25488,-0.0674 -0.33691,-0.17285 l -1.26172,-1.73438 -1.26855,1.73438 c -0.08301,0.10547 -0.20312,0.17285 -0.33008,0.17285 -0.09082,0 -0.17285,-0.0303 -0.24023,-0.083 -0.18848,-0.12793 -0.22559,-0.39062 -0.09766,-0.57031 l 1.42578,-1.95215 -1.42578,-1.93652 c -0.12793,-0.1875 -0.09082,-0.44336 0.09766,-0.57031 0.17969,-0.14355 0.44238,-0.10547 0.57031,0.0898 l 1.26855,1.72656 1.26172,-1.72656 c 0.14258,-0.19531 0.38965,-0.2334 0.57715,-0.0898 0.18848,0.12695 0.21777,0.38281 0.09082,0.57031 z" />
    </g>
    <g id="g7326">
      <path id="path7318" style="fill:#525252" d="m 96.42204,223.69531 c 0.13477,-0.16504 0.38281,-0.1875 0.54785,-0.0527 0.33008,0.27051 0.90039,0.58594 1.43359,0.57812 0.375,0 0.71289,-0.1123 0.93848,-0.27734 0.22559,-0.16504 0.32324,-0.35352 0.32324,-0.54102 0,-0.0977 -0.02246,-0.16504 -0.06836,-0.24023 -0.04492,-0.0752 -0.1123,-0.14941 -0.22461,-0.22461 -0.21777,-0.14258 -0.58594,-0.27051 -1.02832,-0.35352 h -0.01562 c -0.35254,-0.0674 -0.68262,-0.15723 -0.96777,-0.29199 -0.28613,-0.13574 -0.5332,-0.32324 -0.69824,-0.58594 -0.11328,-0.18066 -0.17285,-0.39062 -0.17285,-0.61523 0,-0.45117 0.25488,-0.84082 0.60059,-1.09668 0.35254,-0.25488 0.81055,-0.39746 1.29883,-0.39746 0.7207,0 1.25391,0.35254 1.63672,0.60059 0.17188,0.12012 0.22461,0.36035 0.10449,0.5332 -0.1123,0.17969 -0.35254,0.23242 -0.5332,0.1123 -0.38281,-0.25586 -0.75,-0.48047 -1.20801,-0.48047 -0.33789,0 -0.63867,0.10449 -0.84082,0.25488 -0.20312,0.15039 -0.28516,0.31543 -0.28516,0.47363 0,0.0898 0.01465,0.14941 0.05176,0.20996 0.03809,0.0596 0.10547,0.12695 0.20312,0.19531 0.19531,0.13477 0.5332,0.25488 0.93848,0.33008 h 0.01465 c 0.38281,0.0752 0.73633,0.17285 1.03613,0.31543 0.30762,0.15039 0.57812,0.34473 0.75098,0.62305 0.1123,0.17969 0.17969,0.40527 0.17969,0.6377 0,0.48047 -0.26953,0.89355 -0.64551,1.16406 -0.36719,0.27051 -0.85547,0.42773 -1.38867,0.42773 -0.81055,-0.008 -1.49414,-0.41309 -1.92188,-0.75098 -0.16504,-0.13477 -0.1875,-0.38281 -0.05957,-0.54785 z" />
      <path id="path7320" style="fill:#525252" d="m 105.02067,220.45215 -1.53906,2.10938 v 2.02734 c 0,0.23242 -0.18066,0.41309 -0.41309,0.41309 -0.21777,0 -0.41309,-0.18066 -0.41309,-0.41309 v -2.02734 l -1.52441,-2.10938 c -0.14258,-0.17969 -0.10449,-0.43555 0.083,-0.57031 0.1875,-0.13574 0.44336,-0.0977 0.57031,0.0898 l 1.28418,1.75684 1.2832,-1.75684 c 0.14258,-0.1875 0.39844,-0.22559 0.57812,-0.0898 0.18066,0.13477 0.21777,0.39062 0.0908,0.57031 z" />
      <path id="path7322" style="fill:#525252" d="m 106.71989,224.58887 c 0,0.22559 -0.1875,0.41309 -0.40527,0.41309 -0.2334,0 -0.41309,-0.1875 -0.41309,-0.41309 v -4.36914 c -0.008,-0.12793 0.0527,-0.2627 0.16504,-0.3457 0.1875,-0.12793 0.44336,-0.0898 0.57031,0.0898 l 2.4248,3.35645 v -3.09375 c 0,-0.2168 0.18066,-0.40527 0.40527,-0.40527 0.22559,0 0.41309,0.18848 0.41309,0.40527 v 4.3623 c 0,0.22559 -0.1875,0.41309 -0.41309,0.41309 -0.12012,0 -0.23242,-0.0606 -0.30762,-0.15039 -0.0147,-0.0147 -0.0293,-0.0303 -0.0371,-0.0449 l -2.40234,-3.33301 v 3.11523 z" />
      <path id="path7324" style="fill:#525252" d="m 111.44352,222.29883 c 0.008,-1.48633 1.25391,-2.69531 2.75586,-2.70215 0.66016,0 1.26074,0.21777 1.73438,0.58496 0.17969,0.15039 0.20996,0.41309 0.0742,0.60059 -0.14941,0.18848 -0.42773,0.21777 -0.60059,0.083 -0.33008,-0.27051 -0.74316,-0.41309 -1.20801,-0.41309 -0.51855,0 -0.99902,0.20996 -1.35156,0.54102 -0.33789,0.34473 -0.54785,0.79492 -0.54785,1.30566 0,0.51074 0.20996,0.97656 0.54785,1.30664 0.35254,0.33008 0.83301,0.54004 1.35156,0.54004 0.46484,0 0.87012,-0.14258 1.20801,-0.41211 0.17285,-0.12793 0.45117,-0.0977 0.60059,0.082 0.13574,0.1875 0.10547,0.45801 -0.0742,0.60059 -0.47363,0.36816 -1.07422,0.58594 -1.73438,0.58594 -1.50195,0 -2.74805,-1.20898 -2.75586,-2.70312 z" />
    </g>
    <g id="g7340">
      <path id="path7328" style="fill:#525252" d="m 131.57243,224.58887 v -4.42969 c 0,-0.23242 0.18066,-0.41309 0.41309,-0.41309 h 0.88574 c 1.44922,0 2.62012,1.17871 2.62012,2.62012 0,1.45703 -1.1709,2.63574 -2.62012,2.63574 h -0.88574 c -0.23242,0 -0.41309,-0.1875 -0.41309,-0.41309 z m 0.83398,-0.4209 h 0.46484 c 0.99121,-0.007 1.78711,-0.80273 1.78711,-1.80176 0,-0.9834 -0.7959,-1.78613 -1.78711,-1.78613 h -0.46484 z" />
      <path id="path7330" style="fill:#525252" d="m 136.62809,224.58887 v -4.42969 c 0,-0.23242 0.17969,-0.41309 0.41309,-0.41309 h 2.4541 c 0.21777,0 0.41309,0.18066 0.41309,0.41309 0,0.2334 -0.19531,0.4209 -0.41309,0.4209 h -2.03418 v 1.37402 h 1.74902 c 0.22559,0 0.41309,0.19434 0.41309,0.41211 0,0.2334 -0.1875,0.4209 -0.41309,0.4209 h -1.74902 v 1.38086 h 2.03418 c 0.21777,0 0.41309,0.18848 0.41309,0.4209 0,0.22559 -0.19531,0.41309 -0.41309,0.41309 h -2.43164 c -0.0156,0 -0.0156,-0.008 -0.0156,-0.008 l -0.007,0.008 c -0.2334,0 -0.41309,-0.1875 -0.41309,-0.41309 z" />
      <path id="path7332" style="fill:#525252" d="m 144.32633,220.58008 h -1.19434 v 4.00879 c 0,0.23242 -0.17969,0.41309 -0.41309,0.41309 -0.22461,0 -0.41211,-0.18066 -0.41211,-0.41309 v -4.00879 h -1.18652 c -0.23242,0 -0.41309,-0.19531 -0.41309,-0.4209 0,-0.23242 0.18066,-0.41309 0.41309,-0.41309 h 3.20605 c 0.22461,0 0.41211,0.18066 0.41211,0.41309 0,0.22559 -0.1875,0.4209 -0.41211,0.4209 z" />
      <path id="path7334" style="fill:#525252" d="m 148.18766,225.00195 c -1.20898,0 -2.16992,-0.97656 -2.16992,-2.16992 v -2.67285 c 0,-0.23242 0.17969,-0.41309 0.41309,-0.41309 0.22461,0 0.41992,0.18066 0.41992,0.41309 v 2.67285 c 0,0.73535 0.60059,1.33594 1.33691,1.33594 0.74316,0 1.33594,-0.60059 1.33594,-1.33594 v -2.67285 c 0,-0.23242 0.1875,-0.41309 0.4209,-0.41309 0.23242,0 0.41211,0.18066 0.41211,0.41309 v 2.67285 c 0,1.19336 -0.96777,2.16992 -2.16895,2.16992 z" />
      <path id="path7336" style="fill:#525252" d="m 152.8654,224.58887 c 0,0.22559 -0.1875,0.41309 -0.40527,0.41309 -0.23242,0 -0.41309,-0.1875 -0.41309,-0.41309 v -4.36914 c -0.007,-0.12793 0.0527,-0.2627 0.16602,-0.3457 0.1875,-0.12793 0.44238,-0.0898 0.57031,0.0898 l 2.4248,3.35645 v -3.09375 c 0,-0.2168 0.17969,-0.40527 0.40527,-0.40527 0.22558,0 0.41309,0.18848 0.41309,0.40527 v 4.3623 c 0,0.22559 -0.1875,0.41309 -0.41309,0.41309 -0.12012,0 -0.23242,-0.0606 -0.30762,-0.15039 -0.0156,-0.0147 -0.0303,-0.0303 -0.0381,-0.0449 l -2.40234,-3.33301 v 3.11523 z" />
      <path id="path7338" style="fill:#525252" d="m 157.37223,224.58887 v -4.42969 c 0,-0.23242 0.18066,-0.41309 0.41309,-0.41309 h 2.45508 c 0.21777,0 0.41309,0.18066 0.41309,0.41309 0,0.2334 -0.19531,0.4209 -0.41309,0.4209 h -2.03418 v 1.37402 h 1.74902 c 0.22461,0 0.41309,0.19434 0.41309,0.41211 0,0.2334 -0.18848,0.4209 -0.41309,0.4209 h -1.74902 v 1.38086 h 2.03418 c 0.21777,0 0.41309,0.18848 0.41309,0.4209 0,0.22559 -0.19531,0.41309 -0.41309,0.41309 h -2.43262 c -0.0147,0 -0.0147,-0.008 -0.0147,-0.008 l -0.008,0.008 c -0.23242,0 -0.41309,-0.1875 -0.41309,-0.41309 z" />
    </g>
    <g id="g7350">
      <path id="path7342" style="fill:#525252" d="m 20.93083,263.35938 v 4.42969 c 0,0.22559 -0.19531,0.41309 -0.4209,0.41309 -0.23242,0 -0.41309,-0.1875 -0.41309,-0.41309 v -3.16113 l -1.08105,1.50195 c -0.08203,0.1123 -0.20215,0.17285 -0.33789,0.17285 h -0.01465 c -0.13477,0 -0.2627,-0.0605 -0.3457,-0.17285 l -1.07324,-1.50195 v 3.16113 c 0,0.22559 -0.1875,0.41309 -0.41992,0.41309 -0.22559,0 -0.41309,-0.1875 -0.41309,-0.41309 v -4.42969 c 0,-0.22461 0.1875,-0.41309 0.41309,-0.41309 h 0.02246 c 0.12012,0 0.25488,0.0606 0.33008,0.17285 l 1.49414,2.07227 1.49414,-2.07227 c 0.08203,-0.1123 0.20215,-0.17285 0.33691,-0.17285 h 0.0078 c 0.22559,0.008 0.4209,0.18848 0.4209,0.41309 z" />
      <path id="path7344" style="fill:#525252" d="m 26.58512,263.59961 c 0.46484,0.49609 0.75781,1.15625 0.75781,1.89941 0,0.74316 -0.29297,1.41113 -0.75781,1.89941 -0.44336,0.48828 -1.10352,0.80371 -1.79492,0.80371 -0.7207,0 -1.38086,-0.31543 -1.83887,-0.80371 -0.46582,-0.48828 -0.74316,-1.15625 -0.74316,-1.89941 0,-0.74316 0.27734,-1.40332 0.74316,-1.89941 0.45801,-0.49512 1.11816,-0.80273 1.83887,-0.80273 0.69141,0 1.35156,0.30762 1.79492,0.80273 z m -0.09766,1.89941 c 0,-0.51074 -0.20312,-0.9834 -0.51074,-1.31348 -0.31543,-0.33789 -0.73535,-0.5332 -1.18652,-0.5332 -0.48047,0 -0.90039,0.19531 -1.21582,0.5332 -0.31543,0.33008 -0.51074,0.80273 -0.51074,1.31348 0,0.51075 0.19531,0.9834 0.51074,1.30664 0.31543,0.33789 0.73535,0.54004 1.21582,0.54004 0.45117,0 0.87109,-0.20215 1.18652,-0.54004 0.30762,-0.32324 0.51074,-0.7959 0.51074,-1.30664 z" />
      <path id="path7346" style="fill:#525252" d="m 28.62809,267.78906 v -4.42969 c 0,-0.23242 0.18066,-0.41309 0.41309,-0.41309 h 0.88574 c 1.44922,0 2.62012,1.17871 2.62012,2.62012 0,1.45703 -1.1709,2.63574 -2.62012,2.63574 h -0.88574 c -0.23242,0 -0.41309,-0.1875 -0.41309,-0.41309 z m 0.83398,-0.4209 h 0.46484 c 0.99121,-0.007 1.78711,-0.80273 1.78711,-1.80176 0,-0.9834 -0.7959,-1.78613 -1.78711,-1.78613 h -0.46484 z" />
      <path id="path7348" style="fill:#525252" d="m 37.61442,263.35938 v 4.42969 c 0,0.23242 -0.19531,0.41309 -0.4209,0.41309 -0.23242,0 -0.41211,-0.18066 -0.41211,-0.41309 v -3.69336 l -0.30078,0.17188 c -0.06738,0.0459 -0.14258,0.0606 -0.20996,0.0606 -0.14258,0 -0.27832,-0.0752 -0.35254,-0.20996 -0.12793,-0.1875 -0.06055,-0.45117 0.13477,-0.56348 l 0.92383,-0.54785 c 0.0068,-0.008 0.02246,-0.008 0.0293,-0.0146 0.01562,0 0.02246,-0.0156 0.03809,-0.0225 0.01465,0 0.0293,-0.008 0.04492,-0.008 0.0078,-0.008 0.02246,-0.008 0.03027,-0.008 0.01465,-0.008 0.03711,-0.008 0.05176,-0.008 h 0.08301 c 0.0078,0.008 0.02246,0.008 0.03027,0.008 0.02246,0 0.0293,0.008 0.04492,0.0156 0.0078,0 0.02246,0 0.03027,0.007 0.02246,0.0156 0.0293,0.0225 0.04492,0.0225 0.0068,0.008 0.01465,0.0156 0.0293,0.0225 0.0078,0.008 0.02344,0.0156 0.03027,0.0225 0.01562,0.008 0.02246,0.0225 0.03027,0.0303 0.0078,0.008 0.01465,0.0156 0.02246,0.0303 l 0.03027,0.0303 0.0068,0.0147 c 0,0.008 0.0078,0.0146 0.0078,0.0225 0.0078,0.0147 0.01562,0.0225 0.01562,0.0381 0.0068,0.0147 0.0068,0.0293 0.01465,0.0371 0,0.0147 0.0078,0.0303 0.0078,0.0371 0,0.0225 0,0.0381 0.01465,0.0527 v 0.0225 z" />
    </g>
    <g id="g7360">
      <path id="path7352" style="fill:#525252" d="m 59.65934,263.35938 v 4.42969 c 0,0.22559 -0.19531,0.41309 -0.4209,0.41309 -0.23242,0 -0.41309,-0.1875 -0.41309,-0.41309 v -3.16113 l -1.08105,1.50195 c -0.08203,0.1123 -0.20215,0.17285 -0.33789,0.17285 h -0.01465 c -0.13477,0 -0.2627,-0.0605 -0.3457,-0.17285 l -1.07324,-1.50195 v 3.16113 c 0,0.22559 -0.1875,0.41309 -0.41992,0.41309 -0.22559,0 -0.41309,-0.1875 -0.41309,-0.41309 v -4.42969 c 0,-0.22461 0.1875,-0.41309 0.41309,-0.41309 h 0.02246 c 0.12012,0 0.25488,0.0606 0.33008,0.17285 l 1.49414,2.07227 1.49414,-2.07227 c 0.08203,-0.1123 0.20215,-0.17285 0.33691,-0.17285 h 0.0078 c 0.22559,0.008 0.4209,0.18848 0.4209,0.41309 z" />
      <path id="path7354" style="fill:#525252" d="m 65.31364,263.59961 c 0.46484,0.49609 0.75781,1.15625 0.75781,1.89941 0,0.74316 -0.29297,1.41113 -0.75781,1.89941 -0.44336,0.48828 -1.10352,0.80371 -1.79492,0.80371 -0.7207,0 -1.38086,-0.31543 -1.83887,-0.80371 -0.46582,-0.48828 -0.74316,-1.15625 -0.74316,-1.89941 0,-0.74316 0.27734,-1.40332 0.74316,-1.89941 0.45801,-0.49512 1.11816,-0.80273 1.83887,-0.80273 0.69141,0 1.35156,0.30762 1.79492,0.80273 z m -0.09766,1.89941 c 0,-0.51074 -0.20312,-0.9834 -0.51074,-1.31348 -0.31543,-0.33789 -0.73535,-0.5332 -1.18652,-0.5332 -0.48047,0 -0.90039,0.19531 -1.21582,0.5332 -0.31543,0.33008 -0.51074,0.80273 -0.51074,1.31348 0,0.51075 0.19531,0.9834 0.51074,1.30664 0.31543,0.33789 0.73535,0.54004 1.21582,0.54004 0.45117,0 0.87109,-0.20215 1.18652,-0.54004 0.30762,-0.32324 0.51074,-0.7959 0.51074,-1.30664 z" />
      <path id="path7356" style="fill:#525252" d="m 67.35661,267.78906 v -4.42969 c 0,-0.23242 0.18066,-0.41309 0.41309,-0.41309 h 0.88574 c 1.44922,0 2.62012,1.17871 2.62012,2.62012 0,1.45703 -1.1709,2.63574 -2.62012,2.63574 H 67.7697 c -0.23242,0 -0.41309,-0.1875 -0.41309,-0.41309 z m 0.83398,-0.4209 h 0.46484 c 0.99121,-0.007 1.78711,-0.80273 1.78711,-1.80176 0,-0.9834 -0.7959,-1.78613 -1.78711,-1.78613 h -0.46484 z" />
      <path id="path7358" style="fill:#525252" d="m 78.17497,267.78906 c 0,0.23242 -0.18066,0.41309 -0.41309,0.41309 h -2.67285 c -0.1123,0 -0.23242,-0.0449 -0.30762,-0.13574 -0.15723,-0.17188 -0.14258,-0.42773 0.02246,-0.58496 l 2.22266,-2.0127 c 0.2168,-0.19434 0.31445,-0.4502 0.31445,-0.7207 0,-0.24023 -0.08203,-0.46484 -0.24707,-0.65234 -0.19531,-0.21777 -0.45801,-0.31543 -0.7207,-0.31543 -0.2334,0 -0.46582,0.082 -0.65332,0.24707 l -0.23242,0.21094 c -0.17285,0.15723 -0.42871,0.14258 -0.58594,-0.0303 -0.15039,-0.17285 -0.14258,-0.42773 0.03027,-0.58594 l 0.23242,-0.20996 c 0.33789,-0.31543 0.78125,-0.46582 1.20898,-0.46582 0.4873,0 0.9834,0.20312 1.33594,0.59375 0.31543,0.33789 0.46582,0.78027 0.46582,1.20801 0,0.48828 -0.20312,0.98438 -0.59375,1.33691 l -1.41895,1.2832 h 1.59961 c 0.23242,0 0.41309,0.18848 0.41309,0.4209 z" />
    </g>
    <g id="g7370">
      <path id="path7362" style="fill:#525252" d="m 99.26872,263.35938 v 4.42969 c 0,0.22559 -0.19531,0.41309 -0.41992,0.41309 -0.2334,0 -0.41309,-0.1875 -0.41309,-0.41309 v -3.16113 l -1.08105,1.50195 c -0.08301,0.1123 -0.20312,0.17285 -0.33789,0.17285 h -0.01562 c -0.13477,0 -0.2627,-0.0605 -0.34473,-0.17285 l -1.07324,-1.50195 v 3.16113 c 0,0.22559 -0.18848,0.41309 -0.4209,0.41309 -0.22559,0 -0.41309,-0.1875 -0.41309,-0.41309 v -4.42969 c 0,-0.22461 0.1875,-0.41309 0.41309,-0.41309 h 0.02246 c 0.12012,0 0.25488,0.0606 0.33008,0.17285 l 1.49414,2.07227 1.49414,-2.07227 c 0.08301,-0.1123 0.20312,-0.17285 0.33789,-0.17285 h 0.0078 c 0.22461,0.008 0.41992,0.18848 0.41992,0.41309 z" />
      <path id="path7364" style="fill:#525252" d="m 104.92301,263.59961 c 0.46582,0.49609 0.75879,1.15625 0.75879,1.89941 0,0.74316 -0.29297,1.41113 -0.75879,1.89941 -0.44238,0.48828 -1.10352,0.80371 -1.79395,0.80371 -0.7207,0 -1.38184,-0.31543 -1.83984,-0.80371 -0.46484,-0.48828 -0.74316,-1.15625 -0.74316,-1.89941 0,-0.74316 0.27832,-1.40332 0.74316,-1.89941 0.45801,-0.49512 1.11914,-0.80273 1.83984,-0.80273 0.69043,0 1.35156,0.30762 1.79395,0.80273 z m -0.0977,1.89941 c 0,-0.51074 -0.20215,-0.9834 -0.50977,-1.31348 -0.31543,-0.33789 -0.73633,-0.5332 -1.18652,-0.5332 -0.48047,0 -0.90137,0.19531 -1.21582,0.5332 -0.31543,0.33008 -0.51074,0.80273 -0.51074,1.31348 0,0.51075 0.19531,0.9834 0.51074,1.30664 0.31445,0.33789 0.73535,0.54004 1.21582,0.54004 0.4502,0 0.87109,-0.20215 1.18652,-0.54004 0.30762,-0.32324 0.50977,-0.7959 0.50977,-1.30664 z" />
      <path id="path7366" style="fill:#525252" d="m 106.96696,267.78906 v -4.42969 c 0,-0.23242 0.17969,-0.41309 0.41309,-0.41309 h 0.88574 c 1.44824,0 2.62012,1.17871 2.62012,2.62012 0,1.45703 -1.17188,2.63574 -2.62012,2.63574 h -0.88574 c -0.2334,0 -0.41309,-0.1875 -0.41309,-0.41309 z m 0.83301,-0.4209 h 0.46582 c 0.99023,-0.007 1.78613,-0.80273 1.78613,-1.80176 0,-0.9834 -0.7959,-1.78613 -1.78613,-1.78613 h -0.46582 z" />
      <path id="path7368" style="fill:#525252" d="m 117.23649,265.01172 c 0.36816,0.36035 0.54785,0.84082 0.54785,1.31348 0,0.47266 -0.17969,0.95312 -0.54785,1.32129 -0.36035,0.36035 -0.84082,0.54785 -1.32129,0.54785 -0.47266,0 -0.95312,-0.1875 -1.31348,-0.54785 -0.16504,-0.16504 -0.16504,-0.43555 0,-0.60059 0.16504,-0.16504 0.43555,-0.16504 0.60059,0 0.19531,0.19531 0.4502,0.29297 0.71289,0.29297 0.26269,0 0.51758,-0.0977 0.7207,-0.29297 0.20312,-0.20312 0.2998,-0.45801 0.2998,-0.7207 0,-0.26269 -0.0967,-0.51855 -0.2998,-0.71289 -0.19531,-0.20312 -0.4502,-0.29297 -0.71289,-0.30078 -0.12012,0.008 -0.2334,-0.0449 -0.30859,-0.13477 q -0.007,0 -0.007,-0.008 c -0.17285,-0.16504 -0.17285,-0.42773 -0.0156,-0.60059 l 0.7666,-0.78125 h -1.2168 c -0.23242,0 -0.41992,-0.1875 -0.41992,-0.42773 0,-0.23242 0.1875,-0.41992 0.41992,-0.41992 h 2.21484 c 0.24023,0 0.42773,0.1875 0.42773,0.41992 0,0.0752 -0.0225,0.14258 -0.0527,0.20312 -0.0225,0.0371 -0.0449,0.0752 -0.0752,0.10449 l -0.94531,0.97656 c 0.19531,0.0898 0.375,0.20996 0.52539,0.36816 z" />
    </g>
    <g id="g7380">
      <path id="path7372" style="fill:#525252" d="m 138.75798,263.35938 v 4.42969 c 0,0.22559 -0.19531,0.41309 -0.41992,0.41309 -0.2334,0 -0.41309,-0.1875 -0.41309,-0.41309 v -3.16113 l -1.08105,1.50195 c -0.083,0.1123 -0.20312,0.17285 -0.33789,0.17285 h -0.0147 c -0.13574,0 -0.26367,-0.0605 -0.3457,-0.17285 l -1.07324,-1.50195 v 3.16113 c 0,0.22559 -0.18848,0.41309 -0.4209,0.41309 -0.22559,0 -0.41309,-0.1875 -0.41309,-0.41309 v -4.42969 c 0,-0.22461 0.1875,-0.41309 0.41309,-0.41309 h 0.0225 c 0.12012,0 0.25586,0.0606 0.33008,0.17285 l 1.49414,2.07227 1.49414,-2.07227 c 0.083,-0.1123 0.20312,-0.17285 0.33789,-0.17285 h 0.008 c 0.22461,0.008 0.41992,0.18848 0.41992,0.41309 z" />
      <path id="path7374" style="fill:#525252" d="m 144.41227,263.59961 c 0.46582,0.49609 0.75879,1.15625 0.75879,1.89941 0,0.74316 -0.29297,1.41113 -0.75879,1.89941 -0.44238,0.48828 -1.10352,0.80371 -1.79395,0.80371 -0.7207,0 -1.38184,-0.31543 -1.83887,-0.80371 -0.46582,-0.48828 -0.74414,-1.15625 -0.74414,-1.89941 0,-0.74316 0.27832,-1.40332 0.74414,-1.89941 0.45703,-0.49512 1.11816,-0.80273 1.83887,-0.80273 0.69043,0 1.35156,0.30762 1.79395,0.80273 z m -0.0977,1.89941 c 0,-0.51074 -0.20215,-0.9834 -0.50977,-1.31348 -0.31543,-0.33789 -0.73633,-0.5332 -1.18652,-0.5332 -0.48047,0 -0.90137,0.19531 -1.21582,0.5332 -0.31543,0.33008 -0.51074,0.80273 -0.51074,1.31348 0,0.51075 0.19531,0.9834 0.51074,1.30664 0.31445,0.33789 0.73535,0.54004 1.21582,0.54004 0.4502,0 0.87109,-0.20215 1.18652,-0.54004 0.30762,-0.32324 0.50977,-0.7959 0.50977,-1.30664 z" />
      <path id="path7376" style="fill:#525252" d="m 146.45622,267.78906 v -4.42969 c 0,-0.23242 0.17969,-0.41309 0.41309,-0.41309 h 0.88574 c 1.44824,0 2.62012,1.17871 2.62012,2.62012 0,1.45703 -1.17188,2.63574 -2.62012,2.63574 h -0.88574 c -0.2334,0 -0.41309,-0.1875 -0.41309,-0.41309 z m 0.83301,-0.4209 h 0.46582 c 0.99023,-0.007 1.78613,-0.80273 1.78613,-1.80176 0,-0.9834 -0.7959,-1.78613 -1.78613,-1.78613 h -0.46582 z" />
      <path id="path7378" style="fill:#525252" d="m 157.89665,266.80566 c 0,0.23242 -0.1875,0.41309 -0.41992,0.41309 h -0.0752 v 0.57031 c 0,0.23242 -0.18066,0.41309 -0.41309,0.41309 -0.23243,0 -0.41309,-0.18066 -0.41309,-0.41309 v -0.57031 h -2.36426 c -0.0908,0 -0.18066,-0.0225 -0.25586,-0.0908 -0.1875,-0.14258 -0.20996,-0.39746 -0.0674,-0.57812 l 2.77832,-3.45312 c 0.007,0 0.007,-0.007 0.0147,-0.0147 0.008,-0.008 0.0146,-0.0156 0.0225,-0.0303 0.0225,-0.008 0.0303,-0.0146 0.0371,-0.0225 0.008,-0.008 0.0225,-0.0147 0.0303,-0.0225 0.0156,-0.008 0.0225,-0.0146 0.0449,-0.0146 0.008,-0.0156 0.0156,-0.0225 0.0303,-0.0225 0.008,-0.008 0.0225,-0.008 0.0449,-0.0156 0.008,0 0.0225,0 0.0303,-0.008 h 0.12793 c 0.0146,0.008 0.0225,0.008 0.0371,0.008 0.008,0.008 0.0303,0.008 0.0449,0.0156 0.008,0 0.0225,0.007 0.0303,0.007 0.0146,0.0156 0.0303,0.0225 0.0371,0.0303 0.0156,0.008 0.0225,0.0147 0.0381,0.0225 0,0 0.007,0 0.007,0.008 0.008,0 0.0234,0.007 0.0234,0.0146 0.0146,0.0147 0.0225,0.0225 0.0293,0.0303 0.008,0.008 0.0156,0.0225 0.0225,0.0303 0.008,0.007 0.0156,0.0147 0.0303,0.0371 0,0.008 0.008,0.0225 0.0146,0.0303 0.008,0.0147 0.008,0.0225 0.0156,0.0449 0,0.008 0.008,0.0225 0.008,0.0303 0.007,0.0146 0.007,0.0225 0.007,0.0449 0,0.0147 0.008,0.0225 0.008,0.0371 v 3.05566 h 0.0752 c 0.23242,0 0.41992,0.1875 0.41992,0.41309 z m -1.32129,-2.26758 -1.49414,1.85449 h 1.49414 z" />
    </g>
    <g id="g7392">
      <path id="path7382" style="fill:#525252" d="m 17.08024,308.77539 c -0.01465,-0.0147 -0.03027,-0.0225 -0.05273,-0.0371 0,-0.008 -0.0068,-0.008 -0.0068,-0.0225 -0.01562,-0.0147 -0.03027,-0.0303 -0.03809,-0.0449 0,0 -0.0078,0 -0.0078,-0.008 -0.0068,-0.0147 -0.02246,-0.0449 -0.03711,-0.0596 l -1.83887,-4.38477 c -0.09082,-0.20215 0.0068,-0.4502 0.22461,-0.5332 0.20312,-0.0898 0.44336,0.008 0.5332,0.21777 l 1.46387,3.47656 1.46387,-3.47656 c 0.08984,-0.20996 0.33789,-0.30762 0.54102,-0.21777 0.20996,0.083 0.30762,0.33105 0.22461,0.5332 l -1.85449,4.38477 c -0.0068,0.0147 -0.01465,0.0449 -0.0293,0.0596 q 0,0.008 -0.0078,0.008 c -0.0078,0.0146 -0.03027,0.0303 -0.03711,0.0449 q -0.0078,0.0147 -0.01562,0.0225 c -0.01465,0.0147 -0.03027,0.0225 -0.04492,0.0371 l -0.01465,0.008 c -0.01562,0.008 -0.03809,0.0303 -0.06055,0.0381 q -0.0078,0 -0.01465,0.007 c -0.02246,0 -0.03809,0.008 -0.06055,0.0156 h -0.01465 c -0.03027,0.007 -0.05273,0.007 -0.0752,0.007 -0.02247,0 -0.05273,0 -0.0752,-0.007 h -0.01465 c -0.01562,-0.008 -0.04492,-0.0156 -0.06055,-0.0156 0,-0.007 -0.0068,-0.007 -0.0068,-0.007 h -0.0078 c -0.01465,-0.008 -0.04492,-0.0303 -0.06738,-0.0459 h -0.0078 z" />
      <path id="path7384" style="fill:#525252" d="m 19.98844,308.28027 1.83984,-4.37695 c 0.08984,-0.20996 0.33008,-0.30762 0.54785,-0.21777 0.20215,0.083 0.2998,0.33105 0.20996,0.5332 l -1.83887,4.38477 c -0.06836,0.15723 -0.22559,0.24707 -0.38281,0.24707 -0.0459,0 -0.10547,-0.007 -0.15039,-0.0293 -0.21777,-0.083 -0.31543,-0.33105 -0.22559,-0.54102 z" />
      <path id="path7386" style="fill:#525252" d="m 27.1779,304.24902 c 0.46484,0.49512 0.75781,1.15625 0.75781,1.89941 0,0.74316 -0.29297,1.41113 -0.75781,1.89941 -0.44336,0.4873 -1.10352,0.80273 -1.79492,0.80273 -0.7207,0 -1.38086,-0.31543 -1.83887,-0.80273 -0.46582,-0.48828 -0.74316,-1.15625 -0.74316,-1.89941 0,-0.74316 0.27734,-1.4043 0.74316,-1.89941 0.45801,-0.49609 1.11816,-0.80371 1.83887,-0.80371 0.69141,0 1.35156,0.30762 1.79492,0.80371 z m -0.09766,1.89941 c 0,-0.51074 -0.20312,-0.9834 -0.51074,-1.31445 -0.31543,-0.33691 -0.73535,-0.53223 -1.18652,-0.53223 -0.48047,0 -0.90039,0.19531 -1.21582,0.53223 -0.31543,0.33105 -0.51074,0.80371 -0.51074,1.31445 0,0.51074 0.19531,0.9834 0.51074,1.30566 0.31543,0.33789 0.73535,0.54102 1.21582,0.54102 0.45117,0 0.87109,-0.20312 1.18652,-0.54102 0.30762,-0.32227 0.51074,-0.79492 0.51074,-1.30566 z" />
      <path id="path7388" style="fill:#525252" d="m 28.98844,306.14844 c 0.0078,-1.48633 1.25391,-2.69531 2.75488,-2.70312 0.66113,0 1.26172,0.21777 1.73438,0.58594 0.18066,0.15039 0.20996,0.41309 0.0752,0.60059 -0.15039,0.1875 -0.42773,0.21777 -0.60059,0.082 -0.33008,-0.26953 -0.74316,-0.41211 -1.20898,-0.41211 -0.51758,0 -0.99805,0.20996 -1.35059,0.54004 -0.33789,0.3457 -0.54883,0.7959 -0.54883,1.30664 0,0.51074 0.21094,0.97559 0.54883,1.30566 0.35254,0.33105 0.83301,0.54102 1.35059,0.54102 0.46582,0 0.87109,-0.14258 1.20898,-0.41309 0.17285,-0.12793 0.4502,-0.0977 0.60059,0.083 0.13477,0.1875 0.10547,0.45801 -0.0752,0.60059 -0.47266,0.36719 -1.07324,0.58496 -1.73438,0.58496 -1.50098,0 -2.74707,-1.20801 -2.75488,-2.70215 z" />
      <path id="path7390" style="fill:#525252" d="m 38.25407,304.42871 h -1.19336 v 4.00879 c 0,0.2334 -0.18066,0.41309 -0.41309,0.41309 -0.22559,0 -0.41309,-0.17969 -0.41309,-0.41309 v -4.00879 h -1.18652 c -0.23242,0 -0.41211,-0.19531 -0.41211,-0.41992 0,-0.23242 0.17969,-0.41309 0.41211,-0.41309 h 3.20605 c 0.22559,0 0.41309,0.18066 0.41309,0.41309 0,0.22461 -0.1875,0.41992 -0.41309,0.41992 z" />
    </g>
    <g id="g7402">
      <path id="path7394" style="fill:#525252" d="m 61.50602,304.42871 h -1.19336 v 4.00879 c 0,0.2334 -0.17969,0.41309 -0.41309,0.41309 -0.22461,0 -0.41211,-0.17969 -0.41211,-0.41309 v -4.00879 h -1.18652 c -0.23242,0 -0.41309,-0.19531 -0.41309,-0.41992 0,-0.23242 0.18066,-0.41309 0.41309,-0.41309 h 3.20508 c 0.22559,0 0.41309,0.18066 0.41309,0.41309 0,0.22461 -0.1875,0.41992 -0.41309,0.41992 z" />
      <path id="path7396" style="fill:#525252" d="m 66.66716,308.22754 c 0.07422,0.21777 -0.0459,0.4502 -0.26367,0.52539 -0.0293,0.008 -0.08984,0.0225 -0.16504,0.0225 h -0.0068 c -0.0752,0 -0.18848,-0.0147 -0.29297,-0.082 -0.09766,-0.0605 -0.18066,-0.1582 -0.24023,-0.2627 -0.10547,-0.21777 -0.1582,-0.48828 -0.1582,-0.90137 -0.0068,-0.14258 -0.03711,-0.24023 -0.08984,-0.32227 -0.04492,-0.083 -0.13477,-0.1582 -0.22461,-0.21777 -0.1582,-0.10547 -0.35352,-0.16504 -0.4209,-0.18066 h -0.88574 v 1.62891 c 0,0.22559 -0.1875,0.41309 -0.4209,0.41309 -0.23242,0 -0.41211,-0.1875 -0.41211,-0.41309 v -4.42871 c 0,-0.23242 0.17969,-0.41309 0.41211,-0.41309 h 1.34375 c 0.89355,0 1.60742,0.7207 1.60742,1.61426 0,0.49512 -0.22559,0.93066 -0.58594,1.23145 0.09766,0.0742 0.1875,0.16504 0.2627,0.27734 0.15039,0.21777 0.24805,0.49512 0.24805,0.81055 -0.0078,0.22559 0.01465,0.36816 0.0293,0.44336 0.12012,0.0371 0.21777,0.12793 0.26367,0.25488 z m -1.05176,-3.01758 c 0,-0.43555 -0.34473,-0.78125 -0.77344,-0.78125 h -0.92285 v 1.54688 h 0.92285 c 0.42871,0 0.77344,-0.3457 0.77344,-0.76562 z" />
      <path id="path7398" style="fill:#525252" d="m 67.96891,304.00879 c 0,-0.23242 0.17969,-0.41309 0.41211,-0.41309 0.22559,0 0.4209,0.18066 0.4209,0.41309 v 4.42871 c 0,0.2334 -0.19531,0.41309 -0.4209,0.41309 -0.23242,0 -0.41211,-0.17969 -0.41211,-0.41309 z" />
      <path id="path7400" style="fill:#525252" d="m 70.00798,306.15527 c 0,-1.50879 1.24609,-2.70996 2.77051,-2.70996 0.6377,0 1.24609,0.21777 1.71094,0.58594 0.19531,0.14258 0.22559,0.41992 0.08301,0.6084 -0.14258,0.17969 -0.4209,0.21777 -0.6084,0.0674 -0.32227,-0.24805 -0.73535,-0.40527 -1.18555,-0.40527 -0.54102,0 -1.01367,0.20215 -1.35156,0.54785 -0.35254,0.33789 -0.56348,0.7959 -0.56348,1.30566 0,0.49609 0.21094,0.9541 0.56348,1.29199 0.33789,0.34473 0.81055,0.54785 1.35156,0.54785 0.375,0 0.72754,-0.1123 1.02832,-0.28516 v -1.02832 h -1.07422 c -0.23242,0 -0.42773,-0.19531 -0.42773,-0.42871 0,-0.24023 0.19531,-0.41992 0.42773,-0.41992 h 1.49414 c 0.24023,0 0.43555,0.17969 0.43555,0.41992 v 1.65918 c 0,0.0527 -0.01465,0.083 -0.02246,0.12793 -0.0078,0.0147 -0.0078,0.0225 -0.01465,0.0371 v 0.008 c -0.02246,0.0674 -0.06738,0.12793 -0.14258,0.18066 -0.47363,0.36719 -1.06641,0.58496 -1.7041,0.58496 -1.52441,0 -2.77051,-1.19336 -2.77051,-2.69531 z" />
    </g>
    <g id="g7448">
      <g id="g7424">
        <path id="path7404" style="fill:#525252" d="m 44.30876,13.61035 c 0.01074,-2.17822 1.83691,-3.94971 4.03711,-3.96094 0.96777,0 1.84863,0.31934 2.54102,0.8584 0.26465,0.22021 0.30859,0.60498 0.11035,0.87988 -0.21973,0.27539 -0.62695,0.31934 -0.87988,0.12109 -0.48438,-0.396 -1.08887,-0.60498 -1.77148,-0.60498 -0.75879,0 -1.46289,0.30811 -1.98047,0.79199 -0.49512,0.50635 -0.80273,1.1665 -0.80273,1.91455 0,0.74805 0.30762,1.43018 0.80273,1.91406 0.51758,0.48438 1.22168,0.79199 1.98047,0.79199 0.68262,0 1.27637,-0.20898 1.77148,-0.60498 0.25293,-0.18701 0.66016,-0.14307 0.87988,0.12109 0.19824,0.2749 0.1543,0.6709 -0.11035,0.88037 -0.69238,0.53906 -1.57324,0.85791 -2.54102,0.85791 -2.2002,0 -4.02637,-1.77148 -4.03711,-3.96045 z" />
        <path id="path7406" style="fill:#525252" d="m 53.95524,16.96582 v -6.49121 c 0,-0.33008 0.26465,-0.60498 0.60547,-0.60498 0.34082,0 0.61621,0.2749 0.61621,0.60498 v 5.875 h 2.98145 c 0.31934,0 0.60449,0.2749 0.60449,0.61621 0,0.33008 -0.28516,0.60498 -0.60449,0.60498 h -3.59766 c -0.34082,0 -0.60547,-0.2749 -0.60547,-0.60498 z" />
        <path id="path7408" style="fill:#525252" d="M 64.90055,15.75537 H 62.2277 l -0.53906,1.43018 c -0.09961,0.24219 -0.33008,0.38525 -0.57227,0.38525 -0.07715,0 -0.14355,-0.01123 -0.20898,-0.0332 -0.31934,-0.12061 -0.47363,-0.47266 -0.36328,-0.79199 l 2.43164,-6.47998 c 0.09863,-0.2417 0.34082,-0.396 0.58301,-0.38477 0.25293,-0.01123 0.4834,0.14307 0.58301,0.38477 l 2.43164,6.47998 c 0.10938,0.31934 -0.04395,0.67139 -0.36328,0.79199 -0.05566,0.02197 -0.13184,0.0332 -0.20898,0.0332 -0.24219,0 -0.47363,-0.14307 -0.56152,-0.38525 l -0.53906,-1.43018 z m -0.45117,-1.20996 -0.89062,-2.36523 -0.8916,2.36523 h 1.78223 z" />
        <path id="path7410" style="fill:#525252" d="m 68.47575,15.65674 c 0.19727,-0.24219 0.56055,-0.27539 0.80273,-0.07715 0.48438,0.396 1.32031,0.85791 2.10156,0.84717 0.5498,0 1.04492,-0.16504 1.375,-0.40723 0.33008,-0.24219 0.47266,-0.51709 0.47266,-0.79199 0,-0.14307 -0.0332,-0.24219 -0.09863,-0.35205 -0.06641,-0.10986 -0.16504,-0.22021 -0.33008,-0.33008 -0.31934,-0.20898 -0.8584,-0.396 -1.50684,-0.51709 h -0.02246 c -0.5166,-0.09912 -1.00098,-0.23096 -1.41895,-0.4292 -0.41797,-0.19775 -0.78125,-0.47314 -1.02344,-0.85791 -0.16504,-0.26416 -0.25293,-0.57227 -0.25293,-0.90234 0,-0.66016 0.37402,-1.23193 0.87988,-1.60596 0.51758,-0.37402 1.18848,-0.5835 1.90332,-0.5835 1.05664,0 1.83691,0.51709 2.39844,0.88037 0.25293,0.17627 0.33008,0.52783 0.1543,0.78125 -0.16504,0.26367 -0.51758,0.34082 -0.78125,0.16504 -0.56152,-0.37402 -1.10059,-0.7041 -1.77148,-0.7041 -0.49512,0 -0.93457,0.15381 -1.23242,0.37402 -0.29688,0.21973 -0.41797,0.46191 -0.41797,0.69287 0,0.13232 0.02246,0.22021 0.07715,0.30811 0.05469,0.0879 0.1543,0.18701 0.29688,0.28613 0.28613,0.19775 0.78125,0.37402 1.37598,0.48389 h 0.02148 c 0.56152,0.11035 1.07812,0.25293 1.51855,0.4624 0.45117,0.21973 0.84668,0.50586 1.09961,0.91309 0.16504,0.26367 0.26465,0.59375 0.26465,0.93506 0,0.7041 -0.39648,1.30908 -0.94629,1.70508 -0.53906,0.396 -1.25391,0.62695 -2.03516,0.62695 -1.18848,-0.01074 -2.18945,-0.60498 -2.81641,-1.1001 -0.24219,-0.19775 -0.27539,-0.56104 -0.08789,-0.80273 z" />
        <path id="path7412" style="fill:#525252" d="m 76.52751,15.65674 c 0.19727,-0.24219 0.56055,-0.27539 0.80273,-0.07715 0.48438,0.396 1.32031,0.85791 2.10156,0.84717 0.5498,0 1.04492,-0.16504 1.375,-0.40723 0.33008,-0.24219 0.47266,-0.51709 0.47266,-0.79199 0,-0.14307 -0.0332,-0.24219 -0.09863,-0.35205 -0.06641,-0.10986 -0.16504,-0.22021 -0.33008,-0.33008 -0.31934,-0.20898 -0.8584,-0.396 -1.50684,-0.51709 h -0.02246 c -0.5166,-0.09912 -1.00098,-0.23096 -1.41895,-0.4292 -0.41797,-0.19775 -0.78125,-0.47314 -1.02344,-0.85791 -0.16504,-0.26416 -0.25293,-0.57227 -0.25293,-0.90234 0,-0.66016 0.37402,-1.23193 0.87988,-1.60596 0.51758,-0.37402 1.18848,-0.5835 1.90332,-0.5835 1.05664,0 1.83691,0.51709 2.39844,0.88037 0.25293,0.17627 0.33008,0.52783 0.1543,0.78125 -0.16504,0.26367 -0.51758,0.34082 -0.78125,0.16504 -0.56152,-0.37402 -1.10059,-0.7041 -1.77148,-0.7041 -0.49512,0 -0.93457,0.15381 -1.23242,0.37402 -0.29688,0.21973 -0.41797,0.46191 -0.41797,0.69287 0,0.13232 0.02246,0.22021 0.07715,0.30811 0.05469,0.0879 0.1543,0.18701 0.29688,0.28613 0.28613,0.19775 0.78125,0.37402 1.37598,0.48389 h 0.02148 c 0.56152,0.11035 1.07812,0.25293 1.51855,0.4624 0.45117,0.21973 0.84668,0.50586 1.09961,0.91309 0.16504,0.26367 0.26465,0.59375 0.26465,0.93506 0,0.7041 -0.39648,1.30908 -0.94629,1.70508 -0.53906,0.396 -1.25391,0.62695 -2.03516,0.62695 -1.18848,-0.01074 -2.18945,-0.60498 -2.81641,-1.1001 C 76.3732,16.26172 76.34,15.89843 76.5275,15.65674 Z" />
        <path id="path7414" style="fill:#525252" d="m 85.00798,10.47461 c 0,-0.34082 0.26465,-0.60498 0.60547,-0.60498 0.33008,0 0.61621,0.26416 0.61621,0.60498 v 6.49121 c 0,0.34082 -0.28613,0.60498 -0.61621,0.60498 -0.34082,0 -0.60547,-0.26416 -0.60547,-0.60498 z" />
        <path id="path7416" style="fill:#525252" d="m 88.76969,13.61035 c 0.01074,-2.17822 1.83691,-3.94971 4.03809,-3.96094 0.96777,0 1.84766,0.31934 2.54102,0.8584 0.26367,0.22021 0.30762,0.60498 0.11035,0.87988 -0.2207,0.27539 -0.62793,0.31934 -0.88086,0.12109 -0.4834,-0.396 -1.08887,-0.60498 -1.77051,-0.60498 -0.75977,0 -1.46387,0.30811 -1.98047,0.79199 -0.49512,0.50635 -0.80371,1.1665 -0.80371,1.91455 0,0.74805 0.30859,1.43018 0.80371,1.91406 0.5166,0.48438 1.2207,0.79199 1.98047,0.79199 0.68164,0 1.27539,-0.20898 1.77051,-0.60498 0.25293,-0.18701 0.66016,-0.14307 0.88086,0.12109 0.19727,0.2749 0.15332,0.6709 -0.11035,0.88037 -0.69336,0.53906 -1.57324,0.85791 -2.54102,0.85791 -2.20117,0 -4.02734,-1.77148 -4.03809,-3.96045 z" />
        <path id="path7418" style="fill:#525252" d="m 105.04997,17.46094 c -0.0215,-0.02197 -0.0439,-0.0332 -0.0762,-0.05518 0,-0.01123 -0.0117,-0.01123 -0.0117,-0.0332 -0.0215,-0.02197 -0.0439,-0.04395 -0.0547,-0.06592 0,0 -0.0107,0 -0.0107,-0.01074 -0.0117,-0.02197 -0.0332,-0.06592 -0.0557,-0.08838 l -2.69531,-6.4248 c -0.13184,-0.29688 0.0117,-0.66016 0.33008,-0.78076 0.29688,-0.13232 0.64941,0.01074 0.78125,0.31885 l 2.14551,5.09375 2.14551,-5.09375 c 0.13184,-0.30811 0.49512,-0.45117 0.79199,-0.31885 0.30762,0.12061 0.45117,0.48389 0.33008,0.78076 l -2.71777,6.4248 c -0.0107,0.02246 -0.0215,0.06641 -0.044,0.08838 q 0,0.01074 -0.0107,0.01074 c -0.0107,0.02197 -0.0439,0.04395 -0.0547,0.06592 q -0.0117,0.02197 -0.0225,0.0332 c -0.0225,0.02197 -0.044,0.0332 -0.0664,0.05518 l -0.0215,0.01074 c -0.0225,0.01123 -0.0547,0.04395 -0.0879,0.05518 q -0.0107,0 -0.0225,0.01074 c -0.0332,0 -0.0547,0.01123 -0.0879,0.02197 h -0.0215 c -0.0439,0.01123 -0.0771,0.01123 -0.11035,0.01123 -0.0332,0 -0.0772,0 -0.11035,-0.01123 h -0.0215 c -0.0225,-0.01074 -0.0664,-0.02197 -0.0879,-0.02197 0,-0.01074 -0.0117,-0.01074 -0.0117,-0.01074 h -0.0107 c -0.0215,-0.01123 -0.0664,-0.04395 -0.0986,-0.06592 H 105.05 Z" />
        <path id="path7420" style="fill:#525252" d="m 110.8361,13.61035 c 0.0107,-2.17822 1.83691,-3.94971 4.03711,-3.96094 0.96777,0 1.84863,0.31934 2.54102,0.8584 0.26465,0.22021 0.30859,0.60498 0.11035,0.87988 -0.21973,0.27539 -0.62695,0.31934 -0.87988,0.12109 -0.48438,-0.396 -1.08887,-0.60498 -1.77148,-0.60498 -0.75879,0 -1.46289,0.30811 -1.98047,0.79199 -0.49512,0.50635 -0.80273,1.1665 -0.80273,1.91455 0,0.74805 0.30762,1.43018 0.80273,1.91406 0.51758,0.48438 1.22168,0.79199 1.98047,0.79199 0.68262,0 1.27637,-0.20898 1.77148,-0.60498 0.25293,-0.18701 0.66016,-0.14307 0.87988,0.12109 0.19824,0.2749 0.1543,0.6709 -0.11035,0.88037 -0.69238,0.53906 -1.57324,0.85791 -2.54102,0.85791 -2.2002,0 -4.02637,-1.77148 -4.03711,-3.96045 z" />
        <path id="path7422" style="fill:#525252" d="m 126.3361,10.82666 c 0.68164,0.72607 1.11133,1.69434 1.11133,2.78369 0,1.08887 -0.42969,2.06836 -1.11133,2.7832 -0.64941,0.71533 -1.61719,1.17725 -2.62891,1.17725 -1.05664,0 -2.02441,-0.46191 -2.69629,-1.17725 -0.68164,-0.71484 -1.08887,-1.69434 -1.08887,-2.7832 0,-1.08936 0.40723,-2.05762 1.08887,-2.78369 0.67188,-0.72607 1.63965,-1.17725 2.69629,-1.17725 1.01172,0 1.97949,0.45117 2.62891,1.17725 z m -0.14258,2.78369 c 0,-0.74805 -0.29785,-1.44141 -0.74902,-1.92529 -0.46191,-0.49512 -1.07812,-0.78125 -1.7373,-0.78125 -0.7041,0 -1.32031,0.28613 -1.7832,0.78125 -0.46191,0.48389 -0.74805,1.17725 -0.74805,1.92529 0,0.74804 0.28613,1.44092 0.74805,1.91406 0.46289,0.49512 1.0791,0.79199 1.7832,0.79199 0.65918,0 1.27539,-0.29688 1.7373,-0.79199 0.45117,-0.47314 0.74902,-1.16602 0.74902,-1.91406 z" />
      </g>
      <g id="g7446">
        <path id="path7426" style="fill:#525252" d="m 44.30876,13.61035 c 0.01074,-2.17822 1.83691,-3.94971 4.03711,-3.96094 0.96777,0 1.84863,0.31934 2.54102,0.8584 0.26465,0.22021 0.30859,0.60498 0.11035,0.87988 -0.21973,0.27539 -0.62695,0.31934 -0.87988,0.12109 -0.48438,-0.396 -1.08887,-0.60498 -1.77148,-0.60498 -0.75879,0 -1.46289,0.30811 -1.98047,0.79199 -0.49512,0.50635 -0.80273,1.1665 -0.80273,1.91455 0,0.74805 0.30762,1.43018 0.80273,1.91406 0.51758,0.48438 1.22168,0.79199 1.98047,0.79199 0.68262,0 1.27637,-0.20898 1.77148,-0.60498 0.25293,-0.18701 0.66016,-0.14307 0.87988,0.12109 0.19824,0.2749 0.1543,0.6709 -0.11035,0.88037 -0.69238,0.53906 -1.57324,0.85791 -2.54102,0.85791 -2.2002,0 -4.02637,-1.77148 -4.03711,-3.96045 z" />
        <path id="path7428" style="fill:#525252" d="m 53.95524,16.96582 v -6.49121 c 0,-0.33008 0.26465,-0.60498 0.60547,-0.60498 0.34082,0 0.61621,0.2749 0.61621,0.60498 v 5.875 h 2.98145 c 0.31934,0 0.60449,0.2749 0.60449,0.61621 0,0.33008 -0.28516,0.60498 -0.60449,0.60498 h -3.59766 c -0.34082,0 -0.60547,-0.2749 -0.60547,-0.60498 z" />
        <path id="path7430" style="fill:#525252" d="M 64.90055,15.75537 H 62.2277 l -0.53906,1.43018 c -0.09961,0.24219 -0.33008,0.38525 -0.57227,0.38525 -0.07715,0 -0.14355,-0.01123 -0.20898,-0.0332 -0.31934,-0.12061 -0.47363,-0.47266 -0.36328,-0.79199 l 2.43164,-6.47998 c 0.09863,-0.2417 0.34082,-0.396 0.58301,-0.38477 0.25293,-0.01123 0.4834,0.14307 0.58301,0.38477 l 2.43164,6.47998 c 0.10938,0.31934 -0.04395,0.67139 -0.36328,0.79199 -0.05566,0.02197 -0.13184,0.0332 -0.20898,0.0332 -0.24219,0 -0.47363,-0.14307 -0.56152,-0.38525 l -0.53906,-1.43018 z m -0.45117,-1.20996 -0.89062,-2.36523 -0.8916,2.36523 h 1.78223 z" />
        <path id="path7432" style="fill:#525252" d="m 68.47575,15.65674 c 0.19727,-0.24219 0.56055,-0.27539 0.80273,-0.07715 0.48438,0.396 1.32031,0.85791 2.10156,0.84717 0.5498,0 1.04492,-0.16504 1.375,-0.40723 0.33008,-0.24219 0.47266,-0.51709 0.47266,-0.79199 0,-0.14307 -0.0332,-0.24219 -0.09863,-0.35205 -0.06641,-0.10986 -0.16504,-0.22021 -0.33008,-0.33008 -0.31934,-0.20898 -0.8584,-0.396 -1.50684,-0.51709 h -0.02246 c -0.5166,-0.09912 -1.00098,-0.23096 -1.41895,-0.4292 -0.41797,-0.19775 -0.78125,-0.47314 -1.02344,-0.85791 -0.16504,-0.26416 -0.25293,-0.57227 -0.25293,-0.90234 0,-0.66016 0.37402,-1.23193 0.87988,-1.60596 0.51758,-0.37402 1.18848,-0.5835 1.90332,-0.5835 1.05664,0 1.83691,0.51709 2.39844,0.88037 0.25293,0.17627 0.33008,0.52783 0.1543,0.78125 -0.16504,0.26367 -0.51758,0.34082 -0.78125,0.16504 -0.56152,-0.37402 -1.10059,-0.7041 -1.77148,-0.7041 -0.49512,0 -0.93457,0.15381 -1.23242,0.37402 -0.29688,0.21973 -0.41797,0.46191 -0.41797,0.69287 0,0.13232 0.02246,0.22021 0.07715,0.30811 0.05469,0.0879 0.1543,0.18701 0.29688,0.28613 0.28613,0.19775 0.78125,0.37402 1.37598,0.48389 h 0.02148 c 0.56152,0.11035 1.07812,0.25293 1.51855,0.4624 0.45117,0.21973 0.84668,0.50586 1.09961,0.91309 0.16504,0.26367 0.26465,0.59375 0.26465,0.93506 0,0.7041 -0.39648,1.30908 -0.94629,1.70508 -0.53906,0.396 -1.25391,0.62695 -2.03516,0.62695 -1.18848,-0.01074 -2.18945,-0.60498 -2.81641,-1.1001 -0.24219,-0.19775 -0.27539,-0.56104 -0.08789,-0.80273 z" />
        <path id="path7434" style="fill:#525252" d="m 76.52751,15.65674 c 0.19727,-0.24219 0.56055,-0.27539 0.80273,-0.07715 0.48438,0.396 1.32031,0.85791 2.10156,0.84717 0.5498,0 1.04492,-0.16504 1.375,-0.40723 0.33008,-0.24219 0.47266,-0.51709 0.47266,-0.79199 0,-0.14307 -0.0332,-0.24219 -0.09863,-0.35205 -0.06641,-0.10986 -0.16504,-0.22021 -0.33008,-0.33008 -0.31934,-0.20898 -0.8584,-0.396 -1.50684,-0.51709 h -0.02246 c -0.5166,-0.09912 -1.00098,-0.23096 -1.41895,-0.4292 -0.41797,-0.19775 -0.78125,-0.47314 -1.02344,-0.85791 -0.16504,-0.26416 -0.25293,-0.57227 -0.25293,-0.90234 0,-0.66016 0.37402,-1.23193 0.87988,-1.60596 0.51758,-0.37402 1.18848,-0.5835 1.90332,-0.5835 1.05664,0 1.83691,0.51709 2.39844,0.88037 0.25293,0.17627 0.33008,0.52783 0.1543,0.78125 -0.16504,0.26367 -0.51758,0.34082 -0.78125,0.16504 -0.56152,-0.37402 -1.10059,-0.7041 -1.77148,-0.7041 -0.49512,0 -0.93457,0.15381 -1.23242,0.37402 -0.29688,0.21973 -0.41797,0.46191 -0.41797,0.69287 0,0.13232 0.02246,0.22021 0.07715,0.30811 0.05469,0.0879 0.1543,0.18701 0.29688,0.28613 0.28613,0.19775 0.78125,0.37402 1.37598,0.48389 h 0.02148 c 0.56152,0.11035 1.07812,0.25293 1.51855,0.4624 0.45117,0.21973 0.84668,0.50586 1.09961,0.91309 0.16504,0.26367 0.26465,0.59375 0.26465,0.93506 0,0.7041 -0.39648,1.30908 -0.94629,1.70508 -0.53906,0.396 -1.25391,0.62695 -2.03516,0.62695 -1.18848,-0.01074 -2.18945,-0.60498 -2.81641,-1.1001 C 76.3732,16.26172 76.34,15.89843 76.5275,15.65674 Z" />
        <path id="path7436" style="fill:#525252" d="m 85.00798,10.47461 c 0,-0.34082 0.26465,-0.60498 0.60547,-0.60498 0.33008,0 0.61621,0.26416 0.61621,0.60498 v 6.49121 c 0,0.34082 -0.28613,0.60498 -0.61621,0.60498 -0.34082,0 -0.60547,-0.26416 -0.60547,-0.60498 z" />
        <path id="path7438" style="fill:#525252" d="m 88.76969,13.61035 c 0.01074,-2.17822 1.83691,-3.94971 4.03809,-3.96094 0.96777,0 1.84766,0.31934 2.54102,0.8584 0.26367,0.22021 0.30762,0.60498 0.11035,0.87988 -0.2207,0.27539 -0.62793,0.31934 -0.88086,0.12109 -0.4834,-0.396 -1.08887,-0.60498 -1.77051,-0.60498 -0.75977,0 -1.46387,0.30811 -1.98047,0.79199 -0.49512,0.50635 -0.80371,1.1665 -0.80371,1.91455 0,0.74805 0.30859,1.43018 0.80371,1.91406 0.5166,0.48438 1.2207,0.79199 1.98047,0.79199 0.68164,0 1.27539,-0.20898 1.77051,-0.60498 0.25293,-0.18701 0.66016,-0.14307 0.88086,0.12109 0.19727,0.2749 0.15332,0.6709 -0.11035,0.88037 -0.69336,0.53906 -1.57324,0.85791 -2.54102,0.85791 -2.20117,0 -4.02734,-1.77148 -4.03809,-3.96045 z" />
        <path id="path7440" style="fill:#525252" d="m 105.04997,17.46094 c -0.0215,-0.02197 -0.0439,-0.0332 -0.0762,-0.05518 0,-0.01123 -0.0117,-0.01123 -0.0117,-0.0332 -0.0215,-0.02197 -0.0439,-0.04395 -0.0547,-0.06592 0,0 -0.0107,0 -0.0107,-0.01074 -0.0117,-0.02197 -0.0332,-0.06592 -0.0557,-0.08838 l -2.69531,-6.4248 c -0.13184,-0.29688 0.0117,-0.66016 0.33008,-0.78076 0.29688,-0.13232 0.64941,0.01074 0.78125,0.31885 l 2.14551,5.09375 2.14551,-5.09375 c 0.13184,-0.30811 0.49512,-0.45117 0.79199,-0.31885 0.30762,0.12061 0.45117,0.48389 0.33008,0.78076 l -2.71777,6.4248 c -0.0107,0.02246 -0.0215,0.06641 -0.044,0.08838 q 0,0.01074 -0.0107,0.01074 c -0.0107,0.02197 -0.0439,0.04395 -0.0547,0.06592 q -0.0117,0.02197 -0.0225,0.0332 c -0.0225,0.02197 -0.044,0.0332 -0.0664,0.05518 l -0.0215,0.01074 c -0.0225,0.01123 -0.0547,0.04395 -0.0879,0.05518 q -0.0107,0 -0.0225,0.01074 c -0.0332,0 -0.0547,0.01123 -0.0879,0.02197 h -0.0215 c -0.0439,0.01123 -0.0771,0.01123 -0.11035,0.01123 -0.0332,0 -0.0772,0 -0.11035,-0.01123 h -0.0215 c -0.0225,-0.01074 -0.0664,-0.02197 -0.0879,-0.02197 0,-0.01074 -0.0117,-0.01074 -0.0117,-0.01074 h -0.0107 c -0.0215,-0.01123 -0.0664,-0.04395 -0.0986,-0.06592 H 105.05 Z" />
        <path id="path7442" style="fill:#525252" d="m 110.8361,13.61035 c 0.0107,-2.17822 1.83691,-3.94971 4.03711,-3.96094 0.96777,0 1.84863,0.31934 2.54102,0.8584 0.26465,0.22021 0.30859,0.60498 0.11035,0.87988 -0.21973,0.27539 -0.62695,0.31934 -0.87988,0.12109 -0.48438,-0.396 -1.08887,-0.60498 -1.77148,-0.60498 -0.75879,0 -1.46289,0.30811 -1.98047,0.79199 -0.49512,0.50635 -0.80273,1.1665 -0.80273,1.91455 0,0.74805 0.30762,1.43018 0.80273,1.91406 0.51758,0.48438 1.22168,0.79199 1.98047,0.79199 0.68262,0 1.27637,-0.20898 1.77148,-0.60498 0.25293,-0.18701 0.66016,-0.14307 0.87988,0.12109 0.19824,0.2749 0.1543,0.6709 -0.11035,0.88037 -0.69238,0.53906 -1.57324,0.85791 -2.54102,0.85791 -2.2002,0 -4.02637,-1.77148 -4.03711,-3.96045 z" />
        <path id="path7444" style="fill:#525252" d="m 126.3361,10.82666 c 0.68164,0.72607 1.11133,1.69434 1.11133,2.78369 0,1.08887 -0.42969,2.06836 -1.11133,2.7832 -0.64941,0.71533 -1.61719,1.17725 -2.62891,1.17725 -1.05664,0 -2.02441,-0.46191 -2.69629,-1.17725 -0.68164,-0.71484 -1.08887,-1.69434 -1.08887,-2.7832 0,-1.08936 0.40723,-2.05762 1.08887,-2.78369 0.67188,-0.72607 1.63965,-1.17725 2.69629,-1.17725 1.01172,0 1.97949,0.45117 2.62891,1.17725 z m -0.14258,2.78369 c 0,-0.74805 -0.29785,-1.44141 -0.74902,-1.92529 -0.46191,-0.49512 -1.07812,-0.78125 -1.7373,-0.78125 -0.7041,0 -1.32031,0.28613 -1.7832,0.78125 -0.46191,0.48389 -0.74805,1.17725 -0.74805,1.92529 0,0.74804 0.28613,1.44092 0.74805,1.91406 0.46289,0.49512 1.0791,0.79199 1.7832,0.79199 0.65918,0 1.27539,-0.29688 1.7373,-0.79199 0.45117,-0.47314 0.74902,-1.16602 0.74902,-1.91406 z" />
      </g>
    </g>
    <g id="g7474">
      <g id="g7460">
        <path id="path7450" style="fill:#c9c9c9" d="m 94.25798,308.4375 v -4.42969 c 0,-0.22461 0.18066,-0.41309 0.41309,-0.41309 0.23243,0 0.4209,0.18848 0.4209,0.41309 v 4.00879 h 2.03418 c 0.21777,0 0.41309,0.18848 0.41309,0.4209 0,0.22461 -0.19531,0.41211 -0.41309,0.41211 h -2.45508 c -0.23242,0 -0.41309,-0.1875 -0.41309,-0.41211 z" />
        <path id="path7452" style="fill:#c9c9c9" d="m 98.37516,308.2793 1.83984,-4.37695 c 0.0898,-0.20996 0.33008,-0.30762 0.54785,-0.2168 0.20215,0.082 0.2998,0.33008 0.20996,0.5332 l -1.83887,4.38379 c -0.06836,0.15723 -0.22559,0.24707 -0.38281,0.24707 -0.0459,0 -0.10547,-0.007 -0.15039,-0.0293 -0.21777,-0.083 -0.31543,-0.33008 -0.22559,-0.54102 z" />
        <path id="path7454" style="fill:#c9c9c9" d="m 106.2404,304.00781 v 4.42969 c 0,0.22461 -0.19531,0.41211 -0.4209,0.41211 -0.23242,0 -0.41309,-0.1875 -0.41309,-0.41211 v -3.16113 l -1.08105,1.50195 c -0.082,0.1123 -0.20215,0.17285 -0.33789,0.17285 h -0.0147 c -0.13477,0 -0.2627,-0.0605 -0.3457,-0.17285 l -1.07324,-1.50195 v 3.16113 c 0,0.22461 -0.1875,0.41211 -0.41992,0.41211 -0.22559,0 -0.41309,-0.1875 -0.41309,-0.41211 v -4.42969 c 0,-0.22461 0.1875,-0.41309 0.41309,-0.41309 h 0.0225 c 0.12012,0 0.25488,0.0605 0.33008,0.17285 l 1.49414,2.07227 1.49316,-2.07227 c 0.083,-0.1123 0.20312,-0.17285 0.33789,-0.17285 h 0.008 c 0.22559,0.008 0.4209,0.18848 0.4209,0.41309 z" />
        <path id="path7456" style="fill:#c9c9c9" d="m 111.89469,304.24805 c 0.46484,0.49609 0.75781,1.15625 0.75781,1.89941 0,0.74316 -0.29297,1.41113 -0.75781,1.89941 -0.44336,0.48828 -1.10352,0.80273 -1.79492,0.80273 -0.7207,0 -1.38086,-0.31445 -1.83887,-0.80273 -0.46582,-0.48828 -0.74316,-1.15625 -0.74316,-1.89941 0,-0.74316 0.27734,-1.40332 0.74316,-1.89941 0.45801,-0.49609 1.11816,-0.80273 1.83887,-0.80273 0.69141,0 1.35156,0.30664 1.79492,0.80273 z m -0.0977,1.89941 c 0,-0.51074 -0.20312,-0.9834 -0.51074,-1.31348 -0.31543,-0.33789 -0.73535,-0.5332 -1.18652,-0.5332 -0.48047,0 -0.90039,0.19531 -1.21582,0.5332 -0.31543,0.33008 -0.51074,0.80273 -0.51074,1.31348 0,0.51075 0.19531,0.9834 0.51074,1.30566 0.31543,0.33789 0.73535,0.54102 1.21582,0.54102 0.45117,0 0.87109,-0.20312 1.18652,-0.54102 0.30762,-0.32227 0.51074,-0.79492 0.51074,-1.30566 z" />
        <path id="path7458" style="fill:#c9c9c9" d="m 114.79411,308.4375 c 0,0.22461 -0.1875,0.41211 -0.40527,0.41211 -0.2334,0 -0.41309,-0.1875 -0.41309,-0.41211 v -4.36914 c -0.008,-0.12793 0.0527,-0.26367 0.16504,-0.3457 0.1875,-0.12793 0.44336,-0.0898 0.57031,0.0898 l 2.4248,3.35547 v -3.09277 c 0,-0.21777 0.18066,-0.40527 0.40527,-0.40527 0.22559,0 0.41309,0.1875 0.41309,0.40527 v 4.3623 c 0,0.22461 -0.1875,0.41211 -0.41309,0.41211 -0.12012,0 -0.23242,-0.0596 -0.30762,-0.14941 -0.0146,-0.0147 -0.0293,-0.0303 -0.0371,-0.0459 l -2.40234,-3.33203 v 3.11523 z" />
      </g>
      <g id="g7472">
        <path id="path7462" style="fill:#c9c9c9" d="m 94.25798,308.4375 v -4.42969 c 0,-0.22461 0.18066,-0.41309 0.41309,-0.41309 0.23243,0 0.4209,0.18848 0.4209,0.41309 v 4.00879 h 2.03418 c 0.21777,0 0.41309,0.18848 0.41309,0.4209 0,0.22461 -0.19531,0.41211 -0.41309,0.41211 h -2.45508 c -0.23242,0 -0.41309,-0.1875 -0.41309,-0.41211 z" />
        <path id="path7464" style="fill:#c9c9c9" d="m 98.37516,308.2793 1.83984,-4.37695 c 0.0898,-0.20996 0.33008,-0.30762 0.54785,-0.2168 0.20215,0.082 0.2998,0.33008 0.20996,0.5332 l -1.83887,4.38379 c -0.06836,0.15723 -0.22559,0.24707 -0.38281,0.24707 -0.0459,0 -0.10547,-0.007 -0.15039,-0.0293 -0.21777,-0.083 -0.31543,-0.33008 -0.22559,-0.54102 z" />
        <path id="path7466" style="fill:#c9c9c9" d="m 106.2404,304.00781 v 4.42969 c 0,0.22461 -0.19531,0.41211 -0.4209,0.41211 -0.23242,0 -0.41309,-0.1875 -0.41309,-0.41211 v -3.16113 l -1.08105,1.50195 c -0.082,0.1123 -0.20215,0.17285 -0.33789,0.17285 h -0.0147 c -0.13477,0 -0.2627,-0.0605 -0.3457,-0.17285 l -1.07324,-1.50195 v 3.16113 c 0,0.22461 -0.1875,0.41211 -0.41992,0.41211 -0.22559,0 -0.41309,-0.1875 -0.41309,-0.41211 v -4.42969 c 0,-0.22461 0.1875,-0.41309 0.41309,-0.41309 h 0.0225 c 0.12012,0 0.25488,0.0605 0.33008,0.17285 l 1.49414,2.07227 1.49316,-2.07227 c 0.083,-0.1123 0.20312,-0.17285 0.33789,-0.17285 h 0.008 c 0.22559,0.008 0.4209,0.18848 0.4209,0.41309 z" />
        <path id="path7468" style="fill:#c9c9c9" d="m 111.89469,304.24805 c 0.46484,0.49609 0.75781,1.15625 0.75781,1.89941 0,0.74316 -0.29297,1.41113 -0.75781,1.89941 -0.44336,0.48828 -1.10352,0.80273 -1.79492,0.80273 -0.7207,0 -1.38086,-0.31445 -1.83887,-0.80273 -0.46582,-0.48828 -0.74316,-1.15625 -0.74316,-1.89941 0,-0.74316 0.27734,-1.40332 0.74316,-1.89941 0.45801,-0.49609 1.11816,-0.80273 1.83887,-0.80273 0.69141,0 1.35156,0.30664 1.79492,0.80273 z m -0.0977,1.89941 c 0,-0.51074 -0.20312,-0.9834 -0.51074,-1.31348 -0.31543,-0.33789 -0.73535,-0.5332 -1.18652,-0.5332 -0.48047,0 -0.90039,0.19531 -1.21582,0.5332 -0.31543,0.33008 -0.51074,0.80273 -0.51074,1.31348 0,0.51075 0.19531,0.9834 0.51074,1.30566 0.31543,0.33789 0.73535,0.54102 1.21582,0.54102 0.45117,0 0.87109,-0.20312 1.18652,-0.54102 0.30762,-0.32227 0.51074,-0.79492 0.51074,-1.30566 z" />
        <path id="path7470" style="fill:#c9c9c9" d="m 114.79411,308.4375 c 0,0.22461 -0.1875,0.41211 -0.40527,0.41211 -0.2334,0 -0.41309,-0.1875 -0.41309,-0.41211 v -4.36914 c -0.008,-0.12793 0.0527,-0.26367 0.16504,-0.3457 0.1875,-0.12793 0.44336,-0.0898 0.57031,0.0898 l 2.4248,3.35547 v -3.09277 c 0,-0.21777 0.18066,-0.40527 0.40527,-0.40527 0.22559,0 0.41309,0.1875 0.41309,0.40527 v 4.3623 c 0,0.22461 -0.1875,0.41211 -0.41309,0.41211 -0.12012,0 -0.23242,-0.0596 -0.30762,-0.14941 -0.0146,-0.0147 -0.0293,-0.0303 -0.0371,-0.0459 l -2.40234,-3.33203 v 3.11523 z" />
      </g>
    </g>
    <g id="g7500">
      <g id="g7486">
        <path id="path7476" style="fill:#c9c9c9" d="m 138.63005,308.22656 c 0.0752,0.21875 -0.0449,0.45117 -0.2627,0.52539 -0.0303,0.008 -0.0898,0.0234 -0.16504,0.0234 h -0.008 c -0.0752,0 -0.1875,-0.0156 -0.29297,-0.083 -0.0977,-0.0596 -0.17969,-0.15723 -0.24023,-0.2627 -0.10449,-0.21777 -0.15723,-0.48828 -0.15723,-0.90039 -0.008,-0.14258 -0.0371,-0.24023 -0.0898,-0.32324 -0.0449,-0.083 -0.13574,-0.15723 -0.22559,-0.21777 -0.15723,-0.10547 -0.35254,-0.16504 -0.41992,-0.17969 H 135.882 v 1.62891 c 0,0.22461 -0.1875,0.41211 -0.41992,0.41211 -0.23242,0 -0.41309,-0.1875 -0.41309,-0.41211 v -4.42969 c 0,-0.23242 0.18066,-0.41309 0.41309,-0.41309 h 1.34375 c 0.89355,0 1.60645,0.7207 1.60645,1.61426 0,0.49609 -0.22461,0.93164 -0.58496,1.23145 0.0967,0.0752 0.1875,0.16504 0.2627,0.27734 0.14941,0.21777 0.24707,0.49512 0.24707,0.81152 -0.007,0.22461 0.0156,0.36719 0.0303,0.44238 0.12012,0.0381 0.21777,0.12793 0.2627,0.25488 z m -1.05078,-3.01758 c 0,-0.43555 -0.3457,-0.78125 -0.77344,-0.78125 H 135.882 v 1.54688 h 0.92383 c 0.42773,0 0.77344,-0.3457 0.77344,-0.76562 z" />
        <path id="path7478" style="fill:#c9c9c9" d="m 139.9318,304.00781 c 0,-0.23242 0.18066,-0.41309 0.41309,-0.41309 0.22559,0 0.41992,0.18066 0.41992,0.41309 v 4.42969 c 0,0.23242 -0.19434,0.41211 -0.41992,0.41211 -0.23242,0 -0.41309,-0.17969 -0.41309,-0.41211 z" />
        <path id="path7480" style="fill:#c9c9c9" d="m 141.97087,306.1543 c 0,-1.50781 1.24707,-2.70898 2.77051,-2.70898 0.63867,0 1.24609,0.2168 1.71191,0.58496 0.19531,0.14258 0.22559,0.4209 0.082,0.6084 -0.14258,0.17969 -0.41992,0.21777 -0.60742,0.0674 -0.32324,-0.24707 -0.73633,-0.40527 -1.18652,-0.40527 -0.54004,0 -1.01367,0.20312 -1.35156,0.54785 -0.35254,0.33789 -0.5625,0.7959 -0.5625,1.30566 0,0.49609 0.20996,0.9541 0.5625,1.29199 0.33789,0.34473 0.81152,0.54785 1.35156,0.54785 0.37598,0 0.72852,-0.1123 1.02832,-0.28516 v -1.02832 h -1.07324 c -0.23242,0 -0.42773,-0.19531 -0.42773,-0.42871 0,-0.24023 0.19531,-0.41992 0.42773,-0.41992 h 1.49414 c 0.24023,0 0.43555,0.17969 0.43555,0.41992 v 1.66016 c 0,0.0527 -0.0156,0.082 -0.0225,0.12695 -0.008,0.0156 -0.008,0.0234 -0.0156,0.0371 v 0.008 c -0.0225,0.0684 -0.0674,0.12793 -0.14258,0.18066 -0.47266,0.36816 -1.06543,0.58496 -1.7041,0.58496 -1.52344,0 -2.77051,-1.19336 -2.77051,-2.69531 z" />
        <path id="path7482" style="fill:#c9c9c9" d="m 148.00895,308.4375 v -4.42969 c 0,-0.23242 0.18066,-0.41309 0.41309,-0.41309 0.23243,0 0.4209,0.18066 0.4209,0.41309 v 1.80176 h 1.94434 v -1.80176 c 0,-0.23242 0.17969,-0.41309 0.41211,-0.41309 0.2334,0 0.4209,0.18066 0.4209,0.41309 v 4.42969 c 0,0.23242 -0.1875,0.41211 -0.4209,0.41211 -0.23242,0 -0.41211,-0.17969 -0.41211,-0.41211 v -1.80273 h -1.94434 v 1.80273 c 0,0.23242 -0.18848,0.41211 -0.4209,0.41211 -0.23242,0 -0.41309,-0.17969 -0.41309,-0.41211 z" />
        <path id="path7484" style="fill:#c9c9c9" d="m 156.57731,304.42773 h -1.19336 v 4.00977 c 0,0.23242 -0.18066,0.41211 -0.41309,0.41211 -0.22559,0 -0.41309,-0.17969 -0.41309,-0.41211 v -4.00977 h -1.18652 c -0.23242,0 -0.41211,-0.19531 -0.41211,-0.41992 0,-0.23242 0.17969,-0.41309 0.41211,-0.41309 h 3.20605 c 0.22559,0 0.41309,0.18066 0.41309,0.41309 0,0.22461 -0.1875,0.41992 -0.41309,0.41992 z" />
      </g>
      <g id="g7498">
        <path id="path7488" style="fill:#c9c9c9" d="m 138.63005,308.22656 c 0.0752,0.21875 -0.0449,0.45117 -0.2627,0.52539 -0.0303,0.008 -0.0898,0.0234 -0.16504,0.0234 h -0.008 c -0.0752,0 -0.1875,-0.0156 -0.29297,-0.083 -0.0977,-0.0596 -0.17969,-0.15723 -0.24023,-0.2627 -0.10449,-0.21777 -0.15723,-0.48828 -0.15723,-0.90039 -0.008,-0.14258 -0.0371,-0.24023 -0.0898,-0.32324 -0.0449,-0.083 -0.13574,-0.15723 -0.22559,-0.21777 -0.15723,-0.10547 -0.35254,-0.16504 -0.41992,-0.17969 H 135.882 v 1.62891 c 0,0.22461 -0.1875,0.41211 -0.41992,0.41211 -0.23242,0 -0.41309,-0.1875 -0.41309,-0.41211 v -4.42969 c 0,-0.23242 0.18066,-0.41309 0.41309,-0.41309 h 1.34375 c 0.89355,0 1.60645,0.7207 1.60645,1.61426 0,0.49609 -0.22461,0.93164 -0.58496,1.23145 0.0967,0.0752 0.1875,0.16504 0.2627,0.27734 0.14941,0.21777 0.24707,0.49512 0.24707,0.81152 -0.007,0.22461 0.0156,0.36719 0.0303,0.44238 0.12012,0.0381 0.21777,0.12793 0.2627,0.25488 z m -1.05078,-3.01758 c 0,-0.43555 -0.3457,-0.78125 -0.77344,-0.78125 H 135.882 v 1.54688 h 0.92383 c 0.42773,0 0.77344,-0.3457 0.77344,-0.76562 z" />
        <path id="path7490" style="fill:#c9c9c9" d="m 139.9318,304.00781 c 0,-0.23242 0.18066,-0.41309 0.41309,-0.41309 0.22559,0 0.41992,0.18066 0.41992,0.41309 v 4.42969 c 0,0.23242 -0.19434,0.41211 -0.41992,0.41211 -0.23242,0 -0.41309,-0.17969 -0.41309,-0.41211 z" />
        <path id="path7492" style="fill:#c9c9c9" d="m 141.97087,306.1543 c 0,-1.50781 1.24707,-2.70898 2.77051,-2.70898 0.63867,0 1.24609,0.2168 1.71191,0.58496 0.19531,0.14258 0.22559,0.4209 0.082,0.6084 -0.14258,0.17969 -0.41992,0.21777 -0.60742,0.0674 -0.32324,-0.24707 -0.73633,-0.40527 -1.18652,-0.40527 -0.54004,0 -1.01367,0.20312 -1.35156,0.54785 -0.35254,0.33789 -0.5625,0.7959 -0.5625,1.30566 0,0.49609 0.20996,0.9541 0.5625,1.29199 0.33789,0.34473 0.81152,0.54785 1.35156,0.54785 0.37598,0 0.72852,-0.1123 1.02832,-0.28516 v -1.02832 h -1.07324 c -0.23242,0 -0.42773,-0.19531 -0.42773,-0.42871 0,-0.24023 0.19531,-0.41992 0.42773,-0.41992 h 1.49414 c 0.24023,0 0.43555,0.17969 0.43555,0.41992 v 1.66016 c 0,0.0527 -0.0156,0.082 -0.0225,0.12695 -0.008,0.0156 -0.008,0.0234 -0.0156,0.0371 v 0.008 c -0.0225,0.0684 -0.0674,0.12793 -0.14258,0.18066 -0.47266,0.36816 -1.06543,0.58496 -1.7041,0.58496 -1.52344,0 -2.77051,-1.19336 -2.77051,-2.69531 z" />
        <path id="path7494" style="fill:#c9c9c9" d="m 148.00895,308.4375 v -4.42969 c 0,-0.23242 0.18066,-0.41309 0.41309,-0.41309 0.23243,0 0.4209,0.18066 0.4209,0.41309 v 1.80176 h 1.94434 v -1.80176 c 0,-0.23242 0.17969,-0.41309 0.41211,-0.41309 0.2334,0 0.4209,0.18066 0.4209,0.41309 v 4.42969 c 0,0.23242 -0.1875,0.41211 -0.4209,0.41211 -0.23242,0 -0.41211,-0.17969 -0.41211,-0.41211 v -1.80273 h -1.94434 v 1.80273 c 0,0.23242 -0.18848,0.41211 -0.4209,0.41211 -0.23242,0 -0.41309,-0.17969 -0.41309,-0.41211 z" />
        <path id="path7496" style="fill:#c9c9c9" d="m 156.57731,304.42773 h -1.19336 v 4.00977 c 0,0.23242 -0.18066,0.41211 -0.41309,0.41211 -0.22559,0 -0.41309,-0.17969 -0.41309,-0.41211 v -4.00977 h -1.18652 c -0.23242,0 -0.41211,-0.19531 -0.41211,-0.41992 0,-0.23242 0.17969,-0.41309 0.41211,-0.41309 h 3.20605 c 0.22559,0 0.41309,0.18066 0.41309,0.41309 0,0.22461 -0.1875,0.41992 -0.41309,0.41992 z" />
      </g>
    </g>
    <line id="line7502" style="fill:none;stroke:#525252;stroke-miterlimit:10" y2="259.47842" x2="26.97431" y1="253.2422" x1="26.97431" />
    <line id="line7504" style="fill:none;stroke:#525252;stroke-linecap:round;stroke-miterlimit:10" y2="259.47842" x2="66.385338" y1="253.2422" x1="66.385338" />
    <line id="line7506" style="fill:none;stroke:#525252;stroke-linecap:round;stroke-miterlimit:10" y2="259.47842" x2="106.50365" y1="253.2422" x1="106.50365" />
    <line id="line7508" style="fill:none;stroke:#525252;stroke-linecap:round;stroke-miterlimit:10" y2="259.47842" x2="145.91605" y1="253.2422" x1="145.91605" />
  </g>
</svg>
