<?xml version="1.0" encoding="UTF-8" standalone="no"?>
<svg xmlns:dc="http://purl.org/dc/elements/1.1/" xmlns:cc="http://creativecommons.org/ns#" xmlns:rdf="http://www.w3.org/1999/02/22-rdf-syntax-ns#" xmlns:svg="http://www.w3.org/2000/svg" xmlns="http://www.w3.org/2000/svg" xmlns:sodipodi="http://sodipodi.sourceforge.net/DTD/sodipodi-0.dtd" xmlns:inkscape="http://www.inkscape.org/namespaces/inkscape" inkscape:version="1.0 (4035a4f, 2020-05-01)" sodipodi:docname="string-panel-light-3.svg" version="1.1" viewBox="0 0 230.39999 485.66925" height="128.5mm" width="60.959999mm" data-name="Layer 2" id="Layer_2">
  <metadata id="metadata1164">
    <rdf:RDF>
      <cc:Work rdf:about="">
        <dc:format>image/svg+xml</dc:format>
        <dc:type rdf:resource="http://purl.org/dc/dcmitype/StillImage" />
        <dc:title></dc:title>
      </cc:Work>
    </rdf:RDF>
  </metadata>
  <sodipodi:namedview inkscape:current-layer="Layer_2" inkscape:window-maximized="0" inkscape:window-y="104" inkscape:window-x="-64" inkscape:cy="182.12599" inkscape:cx="86.400002" inkscape:zoom="1.2316035" units="mm" inkscape:document-units="mm" showgrid="false" id="namedview1162" inkscape:window-height="1156" inkscape:window-width="1196" inkscape:pageshadow="2" inkscape:pageopacity="0" guidetolerance="10" gridtolerance="10" objecttolerance="10" borderopacity="1" bordercolor="#666666" pagecolor="#ffffff" />
  <defs id="defs847">
    <linearGradient gradientUnits="userSpaceOnUse" y2="364.25198" x2="86.400002" y1="0" x1="86.400002" id="linear-gradient">
      <stop id="stop833" stop-color="#ebebeb" offset="0" />
      <stop id="stop835" stop-color="#e9e9e9" offset=".71429" />
      <stop id="stop837" stop-color="#e2e2e2" offset=".97129" />
      <stop id="stop839" stop-color="#e1e1e1" offset="1" />
    </linearGradient>
    <linearGradient gradientUnits="userSpaceOnUse" y2="350.42447" x2="118.29347" y1="350.42447" x1="67.269836" id="linear-gradient-2">
      <stop id="stop842" stop-color="#1e1e20" offset="0" />
      <stop id="stop844" stop-color="#272729" offset="1" />
    </linearGradient>
  </defs>
  <g transform="scale(1.3333333)" id="PANELS">
    <rect y="0" x="0" id="rect849" style="fill:url(#linear-gradient)" height="364.25198" width="172.8" />
    <rect id="rect851" style="fill:#525252" ry="4.41927" rx="4.41927" height="40.110241" width="73.70079" y="299.05511" x="89.248611" />
    <g id="g857">
      <rect id="rect853" style="fill:#111111" ry="0.66406" rx="0.66406" height="106.22314" width="148.62988" y="25.408199" x="12.08512" />
      <path id="path855" style="fill:#4d4d4d" d="M 159.96869,26.15413 V 130.88524 H 12.8313 V 26.15413 h 147.13739 m 0.0823,-1.49272 H 12.74903 c -0.77576,0 -1.41046,0.6347 -1.41046,1.41043 v 104.89567 c 0,0.77574 0.6347,1.41043 1.41046,1.41043 h 147.30194 c 0.77576,0 1.41046,-0.63469 1.41046,-1.41043 V 26.07184 c 0,-0.77574 -0.6347,-1.41043 -1.41046,-1.41043 z" />
    </g>
    <g id="g863">
      <rect id="rect859" style="fill:#111111" ry="0.66406" rx="0.66406" height="106.22314" width="148.62988" y="24.416019" x="12.08512" />
      <path id="path861" d="M 159.96869,25.162 V 129.89311 H 12.8313 V 25.162 h 147.13739 m 0.0823,-1.49272 H 12.74903 c -0.77576,0 -1.41046,0.6347 -1.41046,1.41043 v 104.89567 c 0,0.77574 0.6347,1.41043 1.41046,1.41043 h 147.30194 c 0.77576,0 1.41046,-0.63469 1.41046,-1.41043 V 25.07972 c 0,-0.77574 -0.6347,-1.41043 -1.41046,-1.41043 v 0 z" />
    </g>
    <rect id="rect865" style="fill:#2663be" height="1.41971" width="46.590019" y="349.77374" x="126.20998" />
    <rect x="0" id="rect867" style="fill:#2663be" height="1.41971" width="46.590019" y="349.77374" />
    <path id="path869" style="fill:url(#linear-gradient-2)" d="m 72.91756,349.03939 -1.92155,0.0975 c 0,-0.26011 -0.07641,-0.46494 -0.22922,-0.61451 -0.15281,-0.14956 -0.36578,-0.22434 -0.63889,-0.22434 -0.2341,0 -0.42105,0.0569 -0.56086,0.1707 -0.13981,0.1138 -0.20971,0.27149 -0.20971,0.47307 0,0.18208 0.08128,0.32188 0.24385,0.41942 0.17557,0.091 0.49746,0.19508 0.96565,0.31213 0.85185,0.22759 1.47449,0.50559 1.8679,0.83397 0.39341,0.32839 0.59012,0.78195 0.59012,1.36069 0,0.76732 -0.25686,1.34606 -0.77057,1.73622 -0.52022,0.38366 -1.17699,0.57549 -1.97032,0.57549 -0.90388,0 -1.63543,-0.21459 -2.19466,-0.64377 -0.55273,-0.43568 -0.82584,-1.04368 -0.81934,-1.82401 l 1.92155,-0.0975 c -0.0065,0.27962 0.09266,0.50559 0.2975,0.67791 0.20484,0.17232 0.46982,0.25848 0.79496,0.25848 0.54623,0 0.81934,-0.19508 0.81934,-0.58524 0,-0.16907 -0.09429,-0.31376 -0.28287,-0.43406 -0.18858,-0.1203 -0.50721,-0.23898 -0.9559,-0.35602 -0.7153,-0.17557 -1.28103,-0.39992 -1.69721,-0.67303 -0.4877,-0.31863 -0.73155,-0.81934 -0.73155,-1.50213 0,-0.67628 0.22759,-1.23226 0.68278,-1.66795 0.46169,-0.44218 1.11847,-0.66328 1.97032,-0.66328 0.84535,0 1.52814,0.21134 2.04835,0.63401 0.50721,0.41617 0.76732,0.99491 0.78033,1.73622 z m 19.36182,0.87787 h 3.56023 v 0.60475 c 0,1.08595 -0.31863,1.96707 -0.9559,2.64335 -0.63727,0.67628 -1.49887,1.01442 -2.58483,1.01442 -1.11196,0 -2.02559,-0.33814 -2.74089,-1.01442 -0.70229,-0.66978 -1.05344,-1.58341 -1.05344,-2.74089 0,-1.15748 0.35115,-2.07111 1.05344,-2.74089 0.7153,-0.67628 1.62893,-1.01442 2.74089,-1.01442 0.86486,0 1.60292,0.21622 2.21417,0.64865 0.61126,0.43243 1.02743,1.03556 1.24852,1.80938 l -1.95081,0.32188 c -0.2341,-0.74131 -0.74456,-1.11196 -1.53139,-1.11196 -0.59825,0 -1.05669,0.17557 -1.37532,0.52672 -0.31863,0.35115 -0.47795,0.87136 -0.47795,1.56065 0,0.68929 0.15932,1.2095 0.47795,1.56065 0.31863,0.35115 0.77707,0.52672 1.37532,0.52672 0.7218,0 1.20625,-0.30888 1.45336,-0.92664 h -1.45336 v -1.66795 z m -13.70446,-3.14081 h 1.87278 v 4.19425 c 0,1.00792 -0.28612,1.79475 -0.85836,2.36048 -0.56574,0.56574 -1.35256,0.8486 -2.36048,0.8486 -1.01442,0 -1.80775,-0.28287 -2.37999,-0.8486 -0.57224,-0.56574 -0.85836,-1.35256 -0.85836,-2.36048 v -4.19425 h 1.88253 v 4.16499 c 0,1.04694 0.45194,1.5704 1.35582,1.5704 0.89737,0 1.34606,-0.52347 1.34606,-1.5704 z m 7.10096,7.29604 h 2.12639 l -1.47286,-2.7604 c 0.7283,-0.40967 1.09245,-1.11196 1.09246,-2.10688 0,-0.75431 -0.21784,-1.34769 -0.65352,-1.78012 -0.43568,-0.43243 -1.02743,-0.64865 -1.77524,-0.64865 h -3.29687 v 7.29604 h 1.88253 v -2.43852 h 0.79983 l 1.29729,2.43852 z m 16.04543,-5.6281 v -1.66794 h -4.77949 v 7.29604 h 4.78924 v -1.66795 h -2.90671 v -1.23877 h 2.47753 v -1.62893 h -2.47753 v -1.09246 h 2.89696 z m 9.67603,-1.66794 -1.98983,3.5895 2.11663,3.70654 h -2.17516 l -1.33631,-2.45802 -1.34606,2.45802 h -2.17516 l 2.11663,-3.70654 -1.98983,-3.5895 h 2.17516 l 1.21926,2.33122 1.2095,-2.33122 h 2.17516 z m 6.89612,1.66794 v -1.66794 h -6.43768 v 1.66794 h 2.28245 v 5.6281 h 1.88254 v -5.6281 h 2.2727 z m -34.71471,1.52163 v -1.52163 h 1.18999 c 0.2341,0 0.41617,0.0683 0.54623,0.20484 0.13006,0.13656 0.19508,0.32188 0.19508,0.55598 0,0.2341 -0.06503,0.41942 -0.19508,0.55598 -0.13005,0.13656 -0.31213,0.20484 -0.54623,0.20484 h -1.18999 z" />
    <g id="Favicon">
      <path style="fill:#ff9000" d="m 60.72654,347.37718 2.36861,1.23238 v -2.4794 h -7.91462 c -0.37359,0 -0.67399,0.22833 -0.67399,0.51227 v 4.77731 l 1.62144,0.34832 c 0.08473,0.0176 0.16946,-0.0205 0.19642,-0.082 l 0.4044,-1.11236 c 0.02696,-0.079 0.1502,-0.11416 0.24264,-0.0673 l 3.87835,2.02861 c 0.14635,0.0761 0.03851,0.25173 -0.13095,0.21368 l -2.98868,-0.63521 c -0.08473,-0.0176 -0.17331,0.0205 -0.19257,0.0849 l -0.39669,1.11236 c -0.02696,0.0791 -0.15406,0.11419 -0.24264,0.0673 l -2.39172,-1.25871 v 2.59942 h 7.8607 c 0.40054,0 0.72406,-0.2488 0.72406,-0.55033 v -4.84463 l -1.60218,-0.33956 c -0.08473,-0.0176 -0.16946,0.0205 -0.19257,0.082 l -0.41595,1.11531 c -0.03081,0.079 -0.1502,0.11123 -0.24264,0.0673 l -3.88221,-2.03154 c -0.14635,-0.0761 -0.03851,-0.25175 0.13095,-0.21369 l 2.98868,0.63522 c 0.08473,0.0176 0.16946,-0.0205 0.19257,-0.082 l 0.41595,-1.11529 c 0.03081,-0.0761 0.1502,-0.11124 0.24264,-0.0644 v 0 z" id="Logo" />
    </g>
  </g>
  <g transform="scale(1.3333333)" data-name="Labels String (outline)" id="Labels_String__outline_">
    <g id="g884">
      <path id="path874" style="fill:#525252" d="m 18.21278,177.60596 h -0.92285 v 1.62891 c 0,0.22559 -0.18848,0.41309 -0.4209,0.41309 -0.22559,0 -0.41309,-0.1875 -0.41309,-0.41309 v -4.4292 c 0,-0.23242 0.1875,-0.41309 0.41309,-0.41309 h 1.34375 c 0.89355,0 1.61426,0.7207 1.61426,1.61426 0,0.87842 -0.7207,1.59912 -1.61426,1.59912 z m -0.92285,-0.8335 h 0.92285 c 0.43555,0 0.77344,-0.34521 0.78125,-0.76562 -0.0078,-0.43555 -0.3457,-0.78076 -0.78125,-0.78076 h -0.92285 v 1.54639 z" />
      <path id="path876" style="fill:#525252" d="m 20.91883,174.80566 c 0,-0.23242 0.18066,-0.41309 0.41309,-0.41309 0.22461,0 0.41992,0.18066 0.41992,0.41309 v 4.4292 c 0,0.23291 -0.19531,0.41309 -0.41992,0.41309 -0.23242,0 -0.41309,-0.18018 -0.41309,-0.41309 z" />
      <path id="path878" style="fill:#525252" d="m 26.40418,175.22607 h -1.19336 v 4.00879 c 0,0.23291 -0.18066,0.41309 -0.41309,0.41309 -0.22559,0 -0.41309,-0.18018 -0.41309,-0.41309 v -4.00879 h -1.18652 c -0.23242,0 -0.41211,-0.19531 -0.41211,-0.42041 0,-0.23242 0.17969,-0.41309 0.41211,-0.41309 h 3.20605 c 0.22559,0 0.41309,0.18066 0.41309,0.41309 0,0.2251 -0.1875,0.42041 -0.41309,0.42041 z" />
      <path id="path880" style="fill:#525252" d="m 27.44325,176.94531 c 0.0078,-1.48633 1.25391,-2.69531 2.75488,-2.70264 0.66113,0 1.26172,0.21777 1.73438,0.58545 0.18066,0.15039 0.20996,0.41309 0.0752,0.60059 -0.15039,0.18799 -0.42773,0.21777 -0.60059,0.0825 -0.33008,-0.27002 -0.74316,-0.4126 -1.20898,-0.4126 -0.51758,0 -0.99805,0.20996 -1.35156,0.54053 -0.33691,0.34521 -0.54785,0.79541 -0.54785,1.30615 0,0.51074 0.21094,0.97607 0.54785,1.30615 0.35352,0.33057 0.83398,0.54053 1.35156,0.54053 0.46582,0 0.87109,-0.14258 1.20898,-0.4126 0.17285,-0.12793 0.4502,-0.0977 0.60059,0.0825 0.13477,0.1875 0.10547,0.45801 -0.0752,0.60059 -0.47266,0.36768 -1.07324,0.58545 -1.73438,0.58545 -1.50098,0 -2.74707,-1.2085 -2.75488,-2.70264 z" />
      <path id="path882" style="fill:#525252" d="m 33.49598,179.23486 v -4.4292 c 0,-0.23242 0.18066,-0.41309 0.41309,-0.41309 0.23243,0 0.4209,0.18066 0.4209,0.41309 v 1.80176 h 1.94434 v -1.80176 c 0,-0.23242 0.17969,-0.41309 0.41211,-0.41309 0.2334,0 0.4209,0.18066 0.4209,0.41309 v 4.4292 c 0,0.23291 -0.1875,0.41309 -0.4209,0.41309 -0.23242,0 -0.41211,-0.18018 -0.41211,-0.41309 v -1.80176 h -1.94434 v 1.80176 c 0,0.23291 -0.18848,0.41309 -0.4209,0.41309 -0.23242,0 -0.41309,-0.18018 -0.41309,-0.41309 z" />
    </g>
    <g id="g900">
      <path id="path886" style="fill:#525252" d="m 51.35633,179.23486 v -4.4292 c 0,-0.23242 0.17969,-0.41309 0.41309,-0.41309 h 2.4541 c 0.21777,0 0.41309,0.18066 0.41309,0.41309 0,0.23291 -0.19531,0.42041 -0.41309,0.42041 h -2.03418 v 1.37402 h 1.74902 c 0.22559,0 0.41309,0.19482 0.41309,0.4126 0,0.23291 -0.1875,0.42041 -0.41309,0.42041 h -1.74902 v 1.38135 h 2.03418 c 0.21777,0 0.41309,0.18799 0.41309,0.42041 0,0.22559 -0.19531,0.41309 -0.41309,0.41309 h -2.43164 c -0.01562,0 -0.01562,-0.007 -0.01562,-0.007 l -0.0068,0.007 c -0.2334,0 -0.41309,-0.1875 -0.41309,-0.41309 z" />
      <path id="path888" style="fill:#525252" d="m 59.60243,175.10596 -1.42676,1.93701 1.42676,1.95166 c 0.12695,0.18018 0.09766,0.44287 -0.09082,0.5708 -0.07422,0.0527 -0.15723,0.0825 -0.24023,0.0825 -0.13477,0 -0.25488,-0.0674 -0.33789,-0.17285 l -1.26074,-1.73389 -1.26855,1.73389 c -0.08301,0.10547 -0.20312,0.17285 -0.33008,0.17285 -0.09082,0 -0.17285,-0.0298 -0.24023,-0.0825 -0.18848,-0.12793 -0.22559,-0.39062 -0.09766,-0.5708 l 1.42578,-1.95166 -1.42578,-1.93701 c -0.12793,-0.1875 -0.09082,-0.44287 0.09766,-0.57031 0.17969,-0.14307 0.44238,-0.10547 0.57031,0.0898 l 1.26855,1.72656 1.26074,-1.72656 c 0.14355,-0.19531 0.39062,-0.23291 0.57812,-0.0898 0.18848,0.12744 0.21777,0.38281 0.09082,0.57031 z" />
      <path id="path890" style="fill:#525252" d="m 60.68543,176.94531 c 0.0078,-1.48633 1.25391,-2.69531 2.75586,-2.70264 0.66016,0 1.26074,0.21777 1.73438,0.58545 0.17969,0.15039 0.20996,0.41309 0.07422,0.60059 -0.14941,0.18799 -0.42773,0.21777 -0.60059,0.0825 -0.33008,-0.27002 -0.74316,-0.4126 -1.20801,-0.4126 -0.51855,0 -0.99902,0.20996 -1.35156,0.54053 -0.33789,0.34521 -0.54785,0.79541 -0.54785,1.30615 0,0.51074 0.20996,0.97607 0.54785,1.30615 0.35254,0.33057 0.83301,0.54053 1.35156,0.54053 0.46484,0 0.87012,-0.14258 1.20801,-0.4126 0.17285,-0.12793 0.45117,-0.0977 0.60059,0.0825 0.13574,0.1875 0.10547,0.45801 -0.07422,0.60059 -0.47363,0.36768 -1.07422,0.58545 -1.73438,0.58545 -1.50195,0 -2.74805,-1.2085 -2.75586,-2.70264 z" />
      <path id="path892" style="fill:#525252" d="m 66.7909,174.80566 c 0,-0.23242 0.18066,-0.41309 0.41309,-0.41309 0.22461,0 0.41992,0.18066 0.41992,0.41309 v 4.4292 c 0,0.23291 -0.19531,0.41309 -0.41992,0.41309 -0.23242,0 -0.41309,-0.18018 -0.41309,-0.41309 z" />
      <path id="path894" style="fill:#525252" d="m 72.27625,175.22607 h -1.19336 v 4.00879 c 0,0.23291 -0.17969,0.41309 -0.41309,0.41309 -0.22461,0 -0.41211,-0.18018 -0.41211,-0.41309 v -4.00879 h -1.18652 c -0.23242,0 -0.41309,-0.19531 -0.41309,-0.42041 0,-0.23242 0.18066,-0.41309 0.41309,-0.41309 h 3.20508 c 0.22559,0 0.41309,0.18066 0.41309,0.41309 0,0.2251 -0.1875,0.42041 -0.41309,0.42041 z" />
      <path id="path896" style="fill:#525252" d="m 73.96082,179.23486 v -4.4292 c 0,-0.23242 0.18066,-0.41309 0.41309,-0.41309 h 2.45508 c 0.21777,0 0.41309,0.18066 0.41309,0.41309 0,0.23291 -0.19531,0.42041 -0.41309,0.42041 h -2.03418 v 1.37402 h 1.74902 c 0.22461,0 0.41309,0.19482 0.41309,0.4126 0,0.23291 -0.18848,0.42041 -0.41309,0.42041 h -1.74902 v 1.38135 h 2.03418 c 0.21777,0 0.41309,0.18799 0.41309,0.42041 0,0.22559 -0.19531,0.41309 -0.41309,0.41309 h -2.43262 c -0.01465,0 -0.01465,-0.007 -0.01465,-0.007 l -0.0078,0.007 c -0.23242,0 -0.41309,-0.1875 -0.41309,-0.41309 z" />
      <path id="path898" style="fill:#525252" d="m 82.07215,179.0249 c 0.07422,0.21777 -0.0459,0.4502 -0.26367,0.52539 -0.0293,0.007 -0.08984,0.0225 -0.16504,0.0225 h -0.0068 c -0.0752,0 -0.18848,-0.0151 -0.29297,-0.0825 -0.09766,-0.0601 -0.18066,-0.15771 -0.24023,-0.2627 -0.10547,-0.21777 -0.1582,-0.48779 -0.1582,-0.90088 -0.0068,-0.14258 -0.03711,-0.24023 -0.08984,-0.32275 -0.04492,-0.0825 -0.13477,-0.15771 -0.22461,-0.21777 -0.1582,-0.10498 -0.35352,-0.16504 -0.4209,-0.18018 h -0.88574 v 1.62891 c 0,0.22559 -0.1875,0.41309 -0.4209,0.41309 -0.23242,0 -0.41211,-0.1875 -0.41211,-0.41309 v -4.4292 c 0,-0.23242 0.17969,-0.41309 0.41211,-0.41309 H 80.247 c 0.89355,0 1.60742,0.7207 1.60742,1.61426 0,0.49561 -0.22559,0.93115 -0.58594,1.23145 0.09766,0.0747 0.1875,0.16504 0.2627,0.27734 0.15039,0.21777 0.24805,0.49561 0.24805,0.81104 -0.0078,0.2251 0.01465,0.36768 0.0293,0.44287 0.12012,0.0376 0.21777,0.12793 0.26367,0.25537 z m -1.05176,-3.01807 c 0,-0.43555 -0.34473,-0.78076 -0.77344,-0.78076 H 79.3241 v 1.54639 h 0.92285 c 0.42871,0 0.77344,-0.34521 0.77344,-0.76562 z" />
    </g>
    <g id="g910">
      <path id="path902" style="fill:#525252" d="m 20.93055,263.35938 v 4.42969 c 0,0.22559 -0.19531,0.41309 -0.4209,0.41309 -0.23242,0 -0.41309,-0.1875 -0.41309,-0.41309 v -3.16113 l -1.08105,1.50195 c -0.08203,0.1123 -0.20215,0.17285 -0.33789,0.17285 h -0.01465 c -0.13477,0 -0.2627,-0.0605 -0.3457,-0.17285 l -1.07324,-1.50195 v 3.16113 c 0,0.22559 -0.1875,0.41309 -0.41992,0.41309 -0.22559,0 -0.41309,-0.1875 -0.41309,-0.41309 v -4.42969 c 0,-0.22461 0.1875,-0.41309 0.41309,-0.41309 h 0.02246 c 0.12012,0 0.25488,0.0606 0.33008,0.17285 l 1.49414,2.07227 1.49414,-2.07227 c 0.08203,-0.1123 0.20215,-0.17285 0.33691,-0.17285 h 0.0078 c 0.22559,0.008 0.4209,0.18848 0.4209,0.41309 z" />
      <path id="path904" style="fill:#525252" d="m 26.58485,263.59961 c 0.46484,0.49609 0.75781,1.15625 0.75781,1.89941 0,0.74316 -0.29297,1.41113 -0.75781,1.89941 -0.44336,0.48828 -1.10352,0.80371 -1.79492,0.80371 -0.7207,0 -1.38086,-0.31543 -1.83887,-0.80371 -0.46582,-0.48828 -0.74316,-1.15625 -0.74316,-1.89941 0,-0.74316 0.27734,-1.40332 0.74316,-1.89941 0.45801,-0.49512 1.11816,-0.80273 1.83887,-0.80273 0.69141,0 1.35156,0.30762 1.79492,0.80273 z m -0.09766,1.89941 c 0,-0.51074 -0.20312,-0.9834 -0.51074,-1.31348 -0.31543,-0.33789 -0.73535,-0.5332 -1.18652,-0.5332 -0.48047,0 -0.90039,0.19531 -1.21582,0.5332 -0.31543,0.33008 -0.51074,0.80273 -0.51074,1.31348 0,0.51075 0.19531,0.9834 0.51074,1.30664 0.31543,0.33789 0.73535,0.54004 1.21582,0.54004 0.45117,0 0.87109,-0.20215 1.18652,-0.54004 0.30762,-0.32324 0.51074,-0.7959 0.51074,-1.30664 z" />
      <path id="path906" style="fill:#525252" d="m 28.62782,267.78906 v -4.42969 c 0,-0.23242 0.18066,-0.41309 0.41309,-0.41309 h 0.88574 c 1.44922,0 2.62012,1.17871 2.62012,2.62012 0,1.45703 -1.1709,2.63574 -2.62012,2.63574 h -0.88574 c -0.23242,0 -0.41309,-0.1875 -0.41309,-0.41309 z m 0.83398,-0.4209 h 0.46484 c 0.99121,-0.007 1.78711,-0.80273 1.78711,-1.80176 0,-0.9834 -0.7959,-1.78613 -1.78711,-1.78613 H 29.4618 Z" />
      <path id="path908" style="fill:#525252" d="m 37.61414,263.35938 v 4.42969 c 0,0.23242 -0.19531,0.41309 -0.4209,0.41309 -0.23242,0 -0.41211,-0.18066 -0.41211,-0.41309 v -3.69336 l -0.30078,0.17188 c -0.06738,0.0459 -0.14258,0.0606 -0.20996,0.0606 -0.14258,0 -0.27832,-0.0752 -0.35254,-0.20996 -0.12793,-0.1875 -0.06055,-0.45117 0.13477,-0.56348 l 0.92383,-0.54785 c 0.0068,-0.008 0.02246,-0.008 0.0293,-0.0146 0.01562,0 0.02246,-0.0156 0.03809,-0.0225 0.01465,0 0.0293,-0.008 0.04492,-0.008 0.0078,-0.008 0.02246,-0.008 0.03027,-0.008 0.01465,-0.008 0.03711,-0.008 0.05176,-0.008 h 0.08301 c 0.0078,0.008 0.02246,0.008 0.03027,0.008 0.02246,0 0.0293,0.008 0.04492,0.0156 0.0078,0 0.02246,0 0.03027,0.007 0.02246,0.0156 0.0293,0.0225 0.04492,0.0225 0.0068,0.008 0.01465,0.0156 0.0293,0.0225 0.0078,0.008 0.02344,0.0156 0.03027,0.0225 0.01562,0.008 0.02246,0.0225 0.03027,0.0303 0.0078,0.008 0.01465,0.0156 0.02246,0.0303 l 0.03027,0.0303 0.0068,0.0147 c 0,0.008 0.0078,0.0146 0.0078,0.0225 0.0078,0.0147 0.01562,0.0225 0.01562,0.0381 0.0068,0.0147 0.0068,0.0293 0.01465,0.0371 0,0.0147 0.0078,0.0303 0.0078,0.0371 0,0.0225 0,0.0381 0.01465,0.0527 v 0.0225 z" />
    </g>
    <g id="g920">
      <path id="path912" style="fill:#525252" d="m 59.65907,263.35938 v 4.42969 c 0,0.22559 -0.19531,0.41309 -0.4209,0.41309 -0.23242,0 -0.41211,-0.1875 -0.41211,-0.41309 v -3.16113 l -1.08203,1.50195 c -0.08203,0.1123 -0.20215,0.17285 -0.33789,0.17285 h -0.01465 c -0.13477,0 -0.2627,-0.0605 -0.34473,-0.17285 l -1.07422,-1.50195 v 3.16113 c 0,0.22559 -0.1875,0.41309 -0.41992,0.41309 -0.22559,0 -0.41309,-0.1875 -0.41309,-0.41309 v -4.42969 c 0,-0.22461 0.1875,-0.41309 0.41309,-0.41309 h 0.02246 c 0.12012,0 0.25488,0.0606 0.33008,0.17285 l 1.49414,2.07227 1.49414,-2.07227 c 0.08301,-0.1123 0.20215,-0.17285 0.33691,-0.17285 h 0.0078 c 0.22559,0.008 0.4209,0.18848 0.4209,0.41309 z" />
      <path id="path914" style="fill:#525252" d="m 65.31336,263.59961 c 0.46582,0.49609 0.75879,1.15625 0.75879,1.89941 0,0.74316 -0.29297,1.41113 -0.75879,1.89941 -0.44238,0.48828 -1.10352,0.80371 -1.79395,0.80371 -0.7207,0 -1.38184,-0.31543 -1.83984,-0.80371 -0.46484,-0.48828 -0.74316,-1.15625 -0.74316,-1.89941 0,-0.74316 0.27832,-1.40332 0.74316,-1.89941 0.45801,-0.49512 1.11914,-0.80273 1.83984,-0.80273 0.69043,0 1.35156,0.30762 1.79395,0.80273 z m -0.09766,1.89941 c 0,-0.51074 -0.20215,-0.9834 -0.51074,-1.31348 -0.31445,-0.33789 -0.73535,-0.5332 -1.18555,-0.5332 -0.48047,0 -0.90137,0.19531 -1.2168,0.5332 -0.31445,0.33008 -0.50977,0.80273 -0.50977,1.31348 0,0.51075 0.19531,0.9834 0.50977,1.30664 0.31543,0.33789 0.73633,0.54004 1.2168,0.54004 0.4502,0 0.87109,-0.20215 1.18555,-0.54004 0.30859,-0.32324 0.51074,-0.7959 0.51074,-1.30664 z" />
      <path id="path916" style="fill:#525252" d="m 67.35731,267.78906 v -4.42969 c 0,-0.23242 0.17969,-0.41309 0.41211,-0.41309 h 0.88672 c 1.44824,0 2.61914,1.17871 2.61914,2.62012 0,1.45703 -1.1709,2.63574 -2.61914,2.63574 h -0.88672 c -0.23242,0 -0.41211,-0.1875 -0.41211,-0.41309 z m 0.83301,-0.4209 h 0.46582 c 0.99023,-0.007 1.78613,-0.80273 1.78613,-1.80176 0,-0.9834 -0.7959,-1.78613 -1.78613,-1.78613 h -0.46582 z" />
      <path id="path918" style="fill:#525252" d="m 78.17469,267.78906 c 0,0.23242 -0.18066,0.41309 -0.41309,0.41309 h -2.67188 c -0.11328,0 -0.2334,-0.0449 -0.30859,-0.13574 -0.15723,-0.17188 -0.14258,-0.42773 0.02246,-0.58496 l 2.22266,-2.0127 c 0.21777,-0.19434 0.31543,-0.4502 0.31543,-0.7207 0,-0.24023 -0.08301,-0.46484 -0.24805,-0.65234 -0.19531,-0.21777 -0.45801,-0.31543 -0.7207,-0.31543 -0.23242,0 -0.46484,0.082 -0.65332,0.24707 l -0.23242,0.21094 c -0.17285,0.15723 -0.42871,0.14258 -0.58594,-0.0303 -0.14941,-0.17285 -0.14258,-0.42773 0.03027,-0.58594 l 0.23242,-0.20996 c 0.33789,-0.31543 0.78125,-0.46582 1.20898,-0.46582 0.48828,0 0.9834,0.20312 1.33594,0.59375 0.31543,0.33789 0.46582,0.78027 0.46582,1.20801 0,0.48828 -0.20215,0.98438 -0.59277,1.33691 l -1.41992,1.2832 h 1.59961 c 0.23242,0 0.41309,0.18848 0.41309,0.4209 z" />
    </g>
    <g id="g930">
      <path id="path922" style="fill:#525252" d="m 99.26942,263.35938 v 4.42969 c 0,0.22559 -0.19531,0.41309 -0.4209,0.41309 -0.2334,0 -0.41309,-0.1875 -0.41309,-0.41309 v -3.16113 l -1.08105,1.50195 c -0.08301,0.1123 -0.20215,0.17285 -0.33789,0.17285 h -0.01465 c -0.13477,0 -0.26367,-0.0605 -0.3457,-0.17285 l -1.07324,-1.50195 v 3.16113 c 0,0.22559 -0.18848,0.41309 -0.4209,0.41309 -0.22461,0 -0.41211,-0.1875 -0.41211,-0.41309 v -4.42969 c 0,-0.22461 0.1875,-0.41309 0.41211,-0.41309 h 0.02344 c 0.11914,0 0.25391,0.0606 0.33008,0.17285 l 1.49414,2.07227 1.49414,-2.07227 c 0.08203,-0.1123 0.20215,-0.17285 0.33691,-0.17285 h 0.0078 c 0.22559,0.008 0.4209,0.18848 0.4209,0.41309 z" />
      <path id="path924" style="fill:#525252" d="m 104.92371,263.59961 c 0.46484,0.49609 0.75781,1.15625 0.75781,1.89941 0,0.74316 -0.29297,1.41113 -0.75781,1.89941 -0.44336,0.48828 -1.10352,0.80371 -1.79492,0.80371 -0.7207,0 -1.38086,-0.31543 -1.83984,-0.80371 -0.46484,-0.48828 -0.74219,-1.15625 -0.74219,-1.89941 0,-0.74316 0.27734,-1.40332 0.74219,-1.89941 0.45898,-0.49512 1.11914,-0.80273 1.83984,-0.80273 0.69141,0 1.35156,0.30762 1.79492,0.80273 z m -0.0977,1.89941 c 0,-0.51074 -0.20312,-0.9834 -0.51074,-1.31348 -0.31543,-0.33789 -0.73535,-0.5332 -1.18652,-0.5332 -0.48047,0 -0.90039,0.19531 -1.21582,0.5332 -0.31543,0.33008 -0.51074,0.80273 -0.51074,1.31348 0,0.51075 0.19531,0.9834 0.51074,1.30664 0.31543,0.33789 0.73535,0.54004 1.21582,0.54004 0.45117,0 0.87109,-0.20215 1.18652,-0.54004 0.30762,-0.32324 0.51074,-0.7959 0.51074,-1.30664 z" />
      <path id="path926" style="fill:#525252" d="m 106.96668,267.78906 v -4.42969 c 0,-0.23242 0.17969,-0.41309 0.41309,-0.41309 h 0.88574 c 1.44922,0 2.62012,1.17871 2.62012,2.62012 0,1.45703 -1.1709,2.63574 -2.62012,2.63574 h -0.88574 c -0.2334,0 -0.41309,-0.1875 -0.41309,-0.41309 z m 0.83398,-0.4209 h 0.46484 c 0.99023,-0.007 1.78711,-0.80273 1.78711,-1.80176 0,-0.9834 -0.79688,-1.78613 -1.78711,-1.78613 h -0.46484 z" />
      <path id="path928" style="fill:#525252" d="m 117.23621,265.01172 c 0.36816,0.36035 0.54883,0.84082 0.54883,1.31348 0,0.47266 -0.18066,0.95312 -0.54883,1.32129 -0.35938,0.36035 -0.83984,0.54785 -1.32031,0.54785 -0.47363,0 -0.9541,-0.1875 -1.31445,-0.54785 -0.16504,-0.16504 -0.16504,-0.43555 0,-0.60059 0.16504,-0.16504 0.43555,-0.16504 0.60059,0 0.19531,0.19531 0.4502,0.29297 0.71387,0.29297 0.26172,0 0.51758,-0.0977 0.7207,-0.29297 0.20215,-0.20312 0.29883,-0.45801 0.29883,-0.7207 0,-0.26269 -0.0967,-0.51855 -0.29883,-0.71289 -0.19531,-0.20312 -0.45117,-0.29297 -0.71387,-0.30078 -0.12012,0.008 -0.2334,-0.0449 -0.30762,-0.13477 q -0.008,0 -0.008,-0.008 c -0.17188,-0.16504 -0.17188,-0.42773 -0.0156,-0.60059 l 0.7666,-0.78125 h -1.21582 c -0.2334,0 -0.4209,-0.1875 -0.4209,-0.42773 0,-0.23242 0.1875,-0.41992 0.4209,-0.41992 h 2.21484 c 0.24023,0 0.42773,0.1875 0.42773,0.41992 0,0.0752 -0.0234,0.14258 -0.0527,0.20312 -0.0234,0.0371 -0.0449,0.0752 -0.0762,0.10449 l -0.94531,0.97656 c 0.19531,0.0898 0.375,0.20996 0.52539,0.36816 z" />
    </g>
    <g id="g940">
      <path id="path932" style="fill:#525252" d="m 138.7577,263.35938 v 4.42969 c 0,0.22559 -0.19531,0.41309 -0.41992,0.41309 -0.23242,0 -0.41309,-0.1875 -0.41309,-0.41309 v -3.16113 l -1.08105,1.50195 c -0.082,0.1123 -0.20312,0.17285 -0.33789,0.17285 h -0.0147 c -0.13574,0 -0.2627,-0.0605 -0.3457,-0.17285 l -1.07324,-1.50195 v 3.16113 c 0,0.22559 -0.1875,0.41309 -0.41992,0.41309 -0.22656,0 -0.41406,-0.1875 -0.41406,-0.41309 v -4.42969 c 0,-0.22461 0.1875,-0.41309 0.41406,-0.41309 h 0.0215 c 0.12109,0 0.25586,0.0606 0.33008,0.17285 l 1.49414,2.07227 1.49414,-2.07227 c 0.083,-0.1123 0.20312,-0.17285 0.33789,-0.17285 h 0.008 c 0.22461,0.008 0.41992,0.18848 0.41992,0.41309 z" />
      <path id="path934" style="fill:#525252" d="m 144.412,263.59961 c 0.46582,0.49609 0.75879,1.15625 0.75879,1.89941 0,0.74316 -0.29297,1.41113 -0.75879,1.89941 -0.44238,0.48828 -1.10352,0.80371 -1.79395,0.80371 -0.7207,0 -1.38184,-0.31543 -1.83887,-0.80371 -0.46582,-0.48828 -0.74414,-1.15625 -0.74414,-1.89941 0,-0.74316 0.27832,-1.40332 0.74414,-1.89941 0.45703,-0.49512 1.11816,-0.80273 1.83887,-0.80273 0.69043,0 1.35156,0.30762 1.79395,0.80273 z m -0.0977,1.89941 c 0,-0.51074 -0.20215,-0.9834 -0.50977,-1.31348 -0.31543,-0.33789 -0.73633,-0.5332 -1.18652,-0.5332 -0.48047,0 -0.90137,0.19531 -1.21582,0.5332 -0.31543,0.33008 -0.51074,0.80273 -0.51074,1.31348 0,0.51075 0.19531,0.9834 0.51074,1.30664 0.31445,0.33789 0.73535,0.54004 1.21582,0.54004 0.4502,0 0.87109,-0.20215 1.18652,-0.54004 0.30762,-0.32324 0.50977,-0.7959 0.50977,-1.30664 z" />
      <path id="path936" style="fill:#525252" d="m 146.45594,267.78906 v -4.42969 c 0,-0.23242 0.18066,-0.41309 0.41309,-0.41309 h 0.88574 c 1.44824,0 2.62012,1.17871 2.62012,2.62012 0,1.45703 -1.17188,2.63574 -2.62012,2.63574 h -0.88574 c -0.23242,0 -0.41309,-0.1875 -0.41309,-0.41309 z m 0.83301,-0.4209 h 0.46582 c 0.99121,-0.007 1.78613,-0.80273 1.78613,-1.80176 0,-0.9834 -0.79492,-1.78613 -1.78613,-1.78613 h -0.46582 z" />
      <path id="path938" style="fill:#525252" d="m 157.89637,266.80566 c 0,0.23242 -0.1875,0.41309 -0.41992,0.41309 h -0.0752 v 0.57031 c 0,0.23242 -0.18066,0.41309 -0.41309,0.41309 -0.23243,0 -0.41211,-0.18066 -0.41211,-0.41309 v -0.57031 h -2.36523 c -0.0898,0 -0.17969,-0.0225 -0.25586,-0.0908 -0.1875,-0.14258 -0.20898,-0.39746 -0.0664,-0.57812 l 2.77734,-3.45312 c 0.008,0 0.008,-0.007 0.0147,-0.0147 0.008,-0.008 0.0146,-0.0156 0.0225,-0.0303 0.0225,-0.008 0.0303,-0.0146 0.0371,-0.0225 0.008,-0.008 0.0234,-0.0147 0.0312,-0.0225 0.0147,-0.008 0.0215,-0.0146 0.0449,-0.0146 0.007,-0.0156 0.0146,-0.0225 0.0293,-0.0225 0.008,-0.008 0.0234,-0.008 0.0449,-0.0156 0.008,0 0.0234,0 0.0303,-0.008 h 0.12793 c 0.0147,0.008 0.0225,0.008 0.0371,0.008 0.008,0.008 0.0303,0.008 0.0449,0.0156 0.008,0 0.0234,0.007 0.0303,0.007 0.0146,0.0156 0.0303,0.0225 0.0381,0.0303 0.0146,0.008 0.0215,0.0147 0.0371,0.0225 0,0 0.008,0 0.008,0.008 0.008,0 0.0225,0.007 0.0225,0.0146 l 0.0303,0.0303 c 0.007,0.008 0.0146,0.0225 0.0215,0.0303 0.008,0.007 0.0156,0.0147 0.0312,0.0371 0,0.008 0.007,0.0225 0.0137,0.0303 0.008,0.0147 0.008,0.0225 0.0156,0.0449 0,0.008 0.008,0.0225 0.008,0.0303 0.008,0.0146 0.008,0.0225 0.008,0.0449 0,0.0147 0.007,0.0225 0.007,0.0371 v 3.05566 h 0.0752 c 0.23242,0 0.41992,0.1875 0.41992,0.41309 z m -1.32031,-2.26758 -1.49414,1.85449 h 1.49414 z" />
    </g>
    <g id="g952">
      <path id="path942" style="fill:#525252" d="m 17.07996,308.77539 c -0.01465,-0.0147 -0.03027,-0.0225 -0.05273,-0.0371 0,-0.008 -0.0068,-0.008 -0.0068,-0.0225 -0.01562,-0.0147 -0.03027,-0.0303 -0.03809,-0.0449 0,0 -0.0078,0 -0.0078,-0.008 -0.0068,-0.0147 -0.02246,-0.0449 -0.03711,-0.0596 l -1.83887,-4.38477 c -0.09082,-0.20215 0.0068,-0.4502 0.22461,-0.5332 0.20312,-0.0898 0.44336,0.008 0.5332,0.21777 l 1.46387,3.47656 1.46387,-3.47656 c 0.08984,-0.20996 0.33789,-0.30762 0.54102,-0.21777 0.20996,0.083 0.30762,0.33105 0.22461,0.5332 l -1.85449,4.38477 c -0.0068,0.0147 -0.01465,0.0449 -0.0293,0.0596 q 0,0.008 -0.0078,0.008 c -0.0078,0.0146 -0.03027,0.0303 -0.03711,0.0449 q -0.0078,0.0147 -0.01562,0.0225 c -0.01465,0.0147 -0.03027,0.0225 -0.04492,0.0371 l -0.01465,0.008 c -0.01562,0.008 -0.03809,0.0303 -0.06055,0.0381 q -0.0078,0 -0.01465,0.007 c -0.02246,0 -0.03809,0.008 -0.06055,0.0156 h -0.01465 c -0.03027,0.007 -0.05273,0.007 -0.0752,0.007 -0.02247,0 -0.05273,0 -0.0752,-0.007 H 17.2304 c -0.01562,-0.008 -0.04492,-0.0156 -0.06055,-0.0156 0,-0.007 -0.0068,-0.007 -0.0068,-0.007 h -0.0078 c -0.01465,-0.008 -0.04492,-0.0303 -0.06738,-0.0459 h -0.0078 z" />
      <path id="path944" style="fill:#525252" d="m 19.98817,308.28027 1.83984,-4.37695 c 0.08984,-0.20996 0.33008,-0.30762 0.54785,-0.21777 0.20215,0.083 0.2998,0.33105 0.20996,0.5332 l -1.83887,4.38477 c -0.06836,0.15723 -0.22559,0.24707 -0.38281,0.24707 -0.0459,0 -0.10547,-0.007 -0.15039,-0.0293 -0.21777,-0.083 -0.31543,-0.33105 -0.22559,-0.54102 z" />
      <path id="path946" style="fill:#525252" d="m 27.17762,304.24902 c 0.46484,0.49512 0.75781,1.15625 0.75781,1.89941 0,0.74316 -0.29297,1.41113 -0.75781,1.89941 -0.44336,0.4873 -1.10352,0.80273 -1.79492,0.80273 -0.7207,0 -1.38086,-0.31543 -1.83887,-0.80273 -0.46582,-0.48828 -0.74316,-1.15625 -0.74316,-1.89941 0,-0.74316 0.27734,-1.4043 0.74316,-1.89941 0.45801,-0.49609 1.11816,-0.80371 1.83887,-0.80371 0.69141,0 1.35156,0.30762 1.79492,0.80371 z m -0.09766,1.89941 c 0,-0.51074 -0.20312,-0.9834 -0.51074,-1.31445 -0.31543,-0.33691 -0.73535,-0.53223 -1.18652,-0.53223 -0.48047,0 -0.90039,0.19531 -1.21582,0.53223 -0.31543,0.33105 -0.51074,0.80371 -0.51074,1.31445 0,0.51074 0.19531,0.9834 0.51074,1.30566 0.31543,0.33789 0.73535,0.54102 1.21582,0.54102 0.45117,0 0.87109,-0.20312 1.18652,-0.54102 0.30762,-0.32227 0.51074,-0.79492 0.51074,-1.30566 z" />
      <path id="path948" style="fill:#525252" d="m 28.98817,306.14844 c 0.0078,-1.48633 1.25391,-2.69531 2.75488,-2.70312 0.66113,0 1.26172,0.21777 1.73438,0.58594 0.18066,0.15039 0.20996,0.41309 0.0752,0.60059 -0.15039,0.1875 -0.42773,0.21777 -0.60059,0.082 -0.33008,-0.26953 -0.74316,-0.41211 -1.20898,-0.41211 -0.51758,0 -0.99805,0.20996 -1.35059,0.54004 -0.33789,0.3457 -0.54883,0.7959 -0.54883,1.30664 0,0.51074 0.21094,0.97559 0.54883,1.30566 0.35254,0.33105 0.83301,0.54102 1.35059,0.54102 0.46582,0 0.87109,-0.14258 1.20898,-0.41309 0.17285,-0.12793 0.4502,-0.0977 0.60059,0.083 0.13477,0.1875 0.10547,0.45801 -0.0752,0.60059 -0.47266,0.36719 -1.07324,0.58496 -1.73438,0.58496 -1.50098,0 -2.74707,-1.20801 -2.75488,-2.70215 z" />
      <path id="path950" style="fill:#525252" d="m 38.25379,304.42871 h -1.19336 v 4.00879 c 0,0.2334 -0.18066,0.41309 -0.41309,0.41309 -0.22559,0 -0.41309,-0.17969 -0.41309,-0.41309 v -4.00879 h -1.18652 c -0.23242,0 -0.41211,-0.19531 -0.41211,-0.41992 0,-0.23242 0.17969,-0.41309 0.41211,-0.41309 h 3.20605 c 0.22559,0 0.41309,0.18066 0.41309,0.41309 0,0.22461 -0.1875,0.41992 -0.41309,0.41992 z" />
    </g>
    <g id="g962">
      <path id="path954" style="fill:#525252" d="m 61.50575,304.42871 h -1.19336 v 4.00879 c 0,0.2334 -0.17969,0.41309 -0.41211,0.41309 -0.22559,0 -0.41309,-0.17969 -0.41309,-0.41309 v -4.00879 h -1.18652 c -0.23242,0 -0.41211,-0.19531 -0.41211,-0.41992 0,-0.23242 0.17969,-0.41309 0.41211,-0.41309 h 3.20508 c 0.22656,0 0.41406,0.18066 0.41406,0.41309 0,0.22461 -0.1875,0.41992 -0.41406,0.41992 z" />
      <path id="path956" style="fill:#525252" d="m 66.66688,308.22754 c 0.0752,0.21777 -0.0459,0.4502 -0.2627,0.52539 -0.03027,0.008 -0.08984,0.0225 -0.16602,0.0225 h -0.0068 c -0.0752,0 -0.18848,-0.0147 -0.29297,-0.082 -0.09766,-0.0605 -0.18066,-0.1582 -0.24023,-0.2627 -0.10449,-0.21777 -0.15723,-0.48828 -0.15723,-0.90137 -0.0078,-0.14258 -0.03711,-0.24023 -0.08984,-0.32227 -0.04492,-0.083 -0.13574,-0.1582 -0.22559,-0.21777 -0.15723,-0.10547 -0.35254,-0.16504 -0.4209,-0.18066 h -0.88574 v 1.62891 c 0,0.22559 -0.1875,0.41309 -0.4209,0.41309 -0.23242,0 -0.41211,-0.1875 -0.41211,-0.41309 v -4.42871 c 0,-0.23242 0.17969,-0.41309 0.41211,-0.41309 h 1.34375 c 0.89453,0 1.60742,0.7207 1.60742,1.61426 0,0.49512 -0.22461,0.93066 -0.58594,1.23145 0.09766,0.0742 0.1875,0.16504 0.26367,0.27734 0.14941,0.21777 0.24707,0.49512 0.24707,0.81055 -0.0068,0.22559 0.01465,0.36816 0.03027,0.44336 0.11914,0.0371 0.2168,0.12793 0.2627,0.25488 z m -1.05176,-3.01758 c 0,-0.43555 -0.34473,-0.78125 -0.77344,-0.78125 h -0.92285 v 1.54688 h 0.92285 c 0.42871,0 0.77344,-0.3457 0.77344,-0.76562 z" />
      <path id="path958" style="fill:#525252" d="m 67.96864,304.00879 c 0,-0.23242 0.17969,-0.41309 0.41211,-0.41309 0.22656,0 0.4209,0.18066 0.4209,0.41309 v 4.42871 c 0,0.2334 -0.19434,0.41309 -0.4209,0.41309 -0.23242,0 -0.41211,-0.17969 -0.41211,-0.41309 z" />
      <path id="path960" style="fill:#525252" d="m 70.0077,306.15527 c 0,-1.50879 1.24609,-2.70996 2.77051,-2.70996 0.6377,0 1.24609,0.21777 1.71191,0.58594 0.19531,0.14258 0.22461,0.41992 0.08203,0.6084 -0.14258,0.17969 -0.41992,0.21777 -0.60742,0.0674 -0.32324,-0.24805 -0.73633,-0.40527 -1.18652,-0.40527 -0.54004,0 -1.01367,0.20215 -1.35156,0.54785 -0.35254,0.33789 -0.56348,0.7959 -0.56348,1.30566 0,0.49609 0.21094,0.9541 0.56348,1.29199 0.33789,0.34473 0.81152,0.54785 1.35156,0.54785 0.37598,0 0.72754,-0.1123 1.02832,-0.28516 v -1.02832 h -1.07422 c -0.23242,0 -0.42773,-0.19531 -0.42773,-0.42871 0,-0.24023 0.19531,-0.41992 0.42773,-0.41992 h 1.49414 c 0.24023,0 0.43555,0.17969 0.43555,0.41992 v 1.65918 c 0,0.0527 -0.01465,0.083 -0.02148,0.12793 -0.0078,0.0147 -0.0078,0.0225 -0.01562,0.0371 v 0.008 c -0.02246,0.0674 -0.06738,0.12793 -0.14258,0.18066 -0.47266,0.36719 -1.06641,0.58496 -1.7041,0.58496 -1.52441,0 -2.77051,-1.19336 -2.77051,-2.69531 z" />
    </g>
    <g id="g974">
      <path id="path964" style="fill:#525252" d="m 18.13075,223.76367 h -1.82422 l -0.36816,0.97559 c -0.06738,0.16504 -0.22559,0.2627 -0.39062,0.2627 -0.05273,0 -0.09766,-0.007 -0.14258,-0.0225 -0.21777,-0.082 -0.32227,-0.32227 -0.24805,-0.54004 l 1.65918,-4.42188 c 0.06836,-0.16504 0.2334,-0.27051 0.39844,-0.2627 0.17285,-0.008 0.33008,0.0977 0.39746,0.2627 l 1.65918,4.42188 c 0.0752,0.21777 -0.03027,0.45801 -0.24805,0.54004 -0.03711,0.0156 -0.08984,0.0225 -0.14258,0.0225 -0.16504,0 -0.32227,-0.0977 -0.38281,-0.2627 z m -0.30859,-0.82617 -0.60742,-1.61426 -0.6084,1.61426 z" />
      <path id="path966" style="fill:#525252" d="m 22.32215,225.00195 c -1.20898,0 -2.16992,-0.97559 -2.16992,-2.16895 v -2.67285 c 0,-0.23242 0.18066,-0.41309 0.41309,-0.41309 0.22559,0 0.4209,0.18066 0.4209,0.41309 v 2.67285 c 0,0.73535 0.60059,1.33594 1.33594,1.33594 0.74316,0 1.33594,-0.60059 1.33594,-1.33594 v -2.67285 c 0,-0.23242 0.18848,-0.41309 0.4209,-0.41309 0.23242,0 0.41309,0.18066 0.41309,0.41309 v 2.67285 c 0,1.19336 -0.96875,2.16895 -2.16992,2.16895 z" />
      <path id="path968" style="fill:#525252" d="m 26.06239,224.58887 v -4.42871 c 0,-0.23242 0.18066,-0.41309 0.41309,-0.41309 h 0.88574 c 1.44922,0 2.62012,1.17871 2.62012,2.62012 0,1.45605 -1.1709,2.63477 -2.62012,2.63477 h -0.88574 c -0.23242,0 -0.41309,-0.1875 -0.41309,-0.41309 z m 0.83398,-0.41992 h 0.46484 c 0.99121,-0.008 1.78711,-0.80371 1.78711,-1.80176 0,-0.9834 -0.7959,-1.78711 -1.78711,-1.78711 h -0.46484 z" />
      <path id="path970" style="fill:#525252" d="m 31.17078,220.16016 c 0,-0.23242 0.17969,-0.41309 0.41211,-0.41309 0.22559,0 0.4209,0.18066 0.4209,0.41309 v 4.42871 c 0,0.2334 -0.19531,0.41309 -0.4209,0.41309 -0.23242,0 -0.41211,-0.17969 -0.41211,-0.41309 z" />
      <path id="path972" style="fill:#525252" d="m 37.5868,220.40039 c 0.46582,0.49512 0.75879,1.15625 0.75879,1.89941 0,0.74316 -0.29297,1.41113 -0.75879,1.89941 -0.44238,0.4873 -1.10352,0.80273 -1.79395,0.80273 -0.7207,0 -1.38184,-0.31543 -1.83984,-0.80273 -0.46484,-0.48828 -0.74316,-1.15625 -0.74316,-1.89941 0,-0.74316 0.27832,-1.4043 0.74316,-1.89941 0.45801,-0.49609 1.11914,-0.80371 1.83984,-0.80371 0.69043,0 1.35156,0.30762 1.79395,0.80371 z m -0.09766,1.89941 c 0,-0.51074 -0.20215,-0.9834 -0.50977,-1.31445 -0.31543,-0.33691 -0.73633,-0.53223 -1.18652,-0.53223 -0.48047,0 -0.90137,0.19531 -1.21582,0.53223 -0.31543,0.33105 -0.51074,0.80371 -0.51074,1.31445 0,0.51074 0.19531,0.9834 0.51074,1.30566 0.31445,0.33789 0.73535,0.54102 1.21582,0.54102 0.4502,0 0.87109,-0.20312 1.18652,-0.54102 0.30762,-0.32227 0.50977,-0.79492 0.50977,-1.30566 z" />
    </g>
    <g id="g994">
      <path id="path976" style="fill:#525252" d="m 46.7616,223.69531 c 0.13477,-0.16504 0.38281,-0.1875 0.54785,-0.0527 0.33105,0.27051 0.90137,0.58594 1.43457,0.57812 0.375,0 0.71289,-0.1123 0.93848,-0.27734 0.22461,-0.16504 0.32227,-0.35352 0.32227,-0.54102 0,-0.0977 -0.02246,-0.16504 -0.06738,-0.24023 -0.04492,-0.0752 -0.1123,-0.14941 -0.22559,-0.22461 -0.21777,-0.14258 -0.58496,-0.27051 -1.02832,-0.35352 h -0.01465 c -0.35352,-0.0674 -0.68359,-0.15723 -0.96875,-0.29199 -0.28516,-0.13574 -0.5332,-0.32324 -0.69824,-0.58594 -0.1123,-0.18066 -0.17285,-0.39062 -0.17285,-0.61523 0,-0.45117 0.25586,-0.84082 0.60059,-1.09668 0.35352,-0.25488 0.81152,-0.39746 1.29883,-0.39746 0.7207,0 1.25391,0.35254 1.63672,0.60059 0.17285,0.12012 0.22559,0.36035 0.10547,0.5332 -0.11328,0.17969 -0.35352,0.23242 -0.5332,0.1123 -0.38281,-0.25586 -0.75098,-0.48047 -1.20898,-0.48047 -0.33789,0 -0.6377,0.10449 -0.84082,0.25488 -0.20215,0.15039 -0.28516,0.31543 -0.28516,0.47363 0,0.0898 0.01465,0.14941 0.05273,0.20996 0.03711,0.0596 0.10547,0.12695 0.20215,0.19531 0.19531,0.13477 0.5332,0.25488 0.93848,0.33008 h 0.01562 c 0.38281,0.0752 0.73535,0.17285 1.03613,0.31543 0.30762,0.15039 0.57812,0.34473 0.75,0.62305 0.11328,0.17969 0.18066,0.40527 0.18066,0.6377 0,0.48047 -0.27051,0.89355 -0.64551,1.16406 -0.36816,0.27051 -0.85645,0.42773 -1.38867,0.42773 -0.81152,-0.008 -1.49414,-0.41309 -1.92188,-0.75098 -0.16602,-0.13477 -0.18848,-0.38281 -0.06055,-0.54785 z" />
      <path id="path978" style="fill:#525252" d="M 55.03016,220.58008 H 53.8368 v 4.00879 c 0,0.23242 -0.18066,0.41309 -0.41309,0.41309 -0.22559,0 -0.41309,-0.18066 -0.41309,-0.41309 v -4.00879 H 51.8241 c -0.23242,0 -0.41211,-0.19531 -0.41211,-0.4209 0,-0.23242 0.17969,-0.41309 0.41211,-0.41309 h 3.20605 c 0.22559,0 0.41309,0.18066 0.41309,0.41309 0,0.22559 -0.1875,0.4209 -0.41309,0.4209 z" />
      <path id="path980" style="fill:#525252" d="m 56.72938,220.15918 c 0,-0.23242 0.18066,-0.41309 0.41309,-0.41309 0.22461,0 0.41992,0.18066 0.41992,0.41309 v 4.42969 c 0,0.23242 -0.19531,0.41309 -0.41992,0.41309 -0.23242,0 -0.41309,-0.18066 -0.41309,-0.41309 z" />
      <path id="path982" style="fill:#525252" d="m 58.96473,224.58887 v -4.42969 c 0,-0.22461 0.17969,-0.41309 0.41309,-0.41309 h 2.4541 c 0.21777,0 0.41309,0.18848 0.41309,0.41309 0,0.2334 -0.19531,0.4209 -0.41309,0.4209 h -2.03418 v 1.37402 h 1.74902 c 0.22559,0 0.41309,0.19434 0.41309,0.41211 0,0.2334 -0.1875,0.4209 -0.41309,0.4209 h -1.74902 v 1.80176 c 0,0.22559 -0.1875,0.41309 -0.41992,0.41309 -0.2334,0 -0.41309,-0.1875 -0.41309,-0.41309 z" />
      <path id="path984" style="fill:#525252" d="m 63.50184,224.58887 v -4.42969 c 0,-0.22461 0.17969,-0.41309 0.41309,-0.41309 h 2.4541 c 0.21777,0 0.41309,0.18848 0.41309,0.41309 0,0.2334 -0.19531,0.4209 -0.41309,0.4209 h -2.03418 v 1.37402 h 1.74902 c 0.22559,0 0.41309,0.19434 0.41309,0.41211 0,0.2334 -0.1875,0.4209 -0.41309,0.4209 h -1.74902 v 1.80176 c 0,0.22559 -0.1875,0.41309 -0.41992,0.41309 -0.2334,0 -0.41309,-0.1875 -0.41309,-0.41309 z" />
      <path id="path986" style="fill:#525252" d="m 68.86512,224.58887 c 0,0.22559 -0.1875,0.41309 -0.40527,0.41309 -0.2334,0 -0.41309,-0.1875 -0.41309,-0.41309 v -4.36914 c -0.0078,-0.12793 0.05273,-0.2627 0.16504,-0.3457 0.1875,-0.12793 0.44336,-0.0898 0.57031,0.0898 l 2.4248,3.35645 v -3.09375 c 0,-0.2168 0.18066,-0.40527 0.40527,-0.40527 0.22559,0 0.41309,0.18848 0.41309,0.40527 v 4.3623 c 0,0.22559 -0.1875,0.41309 -0.41309,0.41309 -0.12012,0 -0.23242,-0.0606 -0.30762,-0.15039 -0.01465,-0.0147 -0.0293,-0.0303 -0.03711,-0.0449 l -2.40234,-3.33301 v 3.11523 z" />
      <path id="path988" style="fill:#525252" d="m 73.33387,224.58887 v -4.42969 c 0,-0.23242 0.18066,-0.41309 0.41309,-0.41309 h 2.45508 c 0.21777,0 0.41309,0.18066 0.41309,0.41309 0,0.2334 -0.19531,0.4209 -0.41309,0.4209 h -2.03418 v 1.37402 h 1.74902 c 0.22461,0 0.41309,0.19434 0.41309,0.41211 0,0.2334 -0.18848,0.4209 -0.41309,0.4209 h -1.74902 v 1.38086 h 2.03418 c 0.21777,0 0.41309,0.18848 0.41309,0.4209 0,0.22559 -0.19531,0.41309 -0.41309,0.41309 h -2.43262 c -0.01465,0 -0.01465,-0.008 -0.01465,-0.008 l -0.0078,0.008 c -0.23242,0 -0.41309,-0.1875 -0.41309,-0.41309 z" />
      <path id="path990" style="fill:#525252" d="m 77.61707,223.69531 c 0.13477,-0.16504 0.38281,-0.1875 0.54785,-0.0527 0.33008,0.27051 0.90039,0.58594 1.43359,0.57812 0.375,0 0.71289,-0.1123 0.93848,-0.27734 0.22559,-0.16504 0.32324,-0.35352 0.32324,-0.54102 0,-0.0977 -0.02246,-0.16504 -0.06836,-0.24023 -0.04492,-0.0752 -0.1123,-0.14941 -0.22461,-0.22461 -0.21777,-0.14258 -0.58594,-0.27051 -1.02832,-0.35352 h -0.01562 c -0.35254,-0.0674 -0.68262,-0.15723 -0.96777,-0.29199 -0.28613,-0.13574 -0.5332,-0.32324 -0.69824,-0.58594 -0.11328,-0.18066 -0.17285,-0.39062 -0.17285,-0.61523 0,-0.45117 0.25488,-0.84082 0.60059,-1.09668 0.35254,-0.25488 0.81055,-0.39746 1.29883,-0.39746 0.7207,0 1.25391,0.35254 1.63672,0.60059 0.17188,0.12012 0.22461,0.36035 0.10449,0.5332 -0.1123,0.17969 -0.35254,0.23242 -0.5332,0.1123 -0.38281,-0.25586 -0.75,-0.48047 -1.20801,-0.48047 -0.33789,0 -0.63867,0.10449 -0.84082,0.25488 -0.20312,0.15039 -0.28516,0.31543 -0.28516,0.47363 0,0.0898 0.01465,0.14941 0.05176,0.20996 0.03809,0.0596 0.10547,0.12695 0.20312,0.19531 0.19531,0.13477 0.5332,0.25488 0.93848,0.33008 h 0.01465 c 0.38281,0.0752 0.73633,0.17285 1.03613,0.31543 0.30762,0.15039 0.57812,0.34473 0.75098,0.62305 0.1123,0.17969 0.17969,0.40527 0.17969,0.6377 0,0.48047 -0.26953,0.89355 -0.64551,1.16406 -0.36719,0.27051 -0.85547,0.42773 -1.38867,0.42773 -0.81055,-0.008 -1.49414,-0.41309 -1.92188,-0.75098 -0.16504,-0.13477 -0.1875,-0.38281 -0.05957,-0.54785 z" />
      <path id="path992" style="fill:#525252" d="m 82.54383,223.69531 c 0.13477,-0.16504 0.38281,-0.1875 0.54785,-0.0527 0.33105,0.27051 0.90137,0.58594 1.43457,0.57812 0.375,0 0.71289,-0.1123 0.93848,-0.27734 0.22461,-0.16504 0.32227,-0.35352 0.32227,-0.54102 0,-0.0977 -0.02246,-0.16504 -0.06738,-0.24023 -0.04492,-0.0752 -0.1123,-0.14941 -0.22559,-0.22461 -0.21777,-0.14258 -0.58496,-0.27051 -1.02832,-0.35352 h -0.01465 c -0.35352,-0.0674 -0.68359,-0.15723 -0.96875,-0.29199 -0.28516,-0.13574 -0.5332,-0.32324 -0.69824,-0.58594 -0.1123,-0.18066 -0.17285,-0.39062 -0.17285,-0.61523 0,-0.45117 0.25586,-0.84082 0.60059,-1.09668 0.35352,-0.25488 0.81152,-0.39746 1.29883,-0.39746 0.7207,0 1.25391,0.35254 1.63672,0.60059 0.17285,0.12012 0.22559,0.36035 0.10547,0.5332 -0.11328,0.17969 -0.35352,0.23242 -0.5332,0.1123 -0.38281,-0.25586 -0.75098,-0.48047 -1.20898,-0.48047 -0.33789,0 -0.6377,0.10449 -0.84082,0.25488 -0.20215,0.15039 -0.28516,0.31543 -0.28516,0.47363 0,0.0898 0.01465,0.14941 0.05273,0.20996 0.03711,0.0596 0.10547,0.12695 0.20215,0.19531 0.19531,0.13477 0.5332,0.25488 0.93848,0.33008 h 0.01562 c 0.38281,0.0752 0.73535,0.17285 1.03613,0.31543 0.30762,0.15039 0.57812,0.34473 0.75,0.62305 0.11328,0.17969 0.18066,0.40527 0.18066,0.6377 0,0.48047 -0.27051,0.89355 -0.64551,1.16406 -0.36816,0.27051 -0.85645,0.42773 -1.38867,0.42773 -0.81152,-0.008 -1.49414,-0.41309 -1.92188,-0.75098 -0.16602,-0.13477 -0.18848,-0.38281 -0.06055,-0.54785 z" />
    </g>
    <g id="g1008">
      <path id="path996" style="fill:#525252" d="m 91.99305,224.58887 v -4.42969 c 0,-0.23242 0.18066,-0.41309 0.41309,-0.41309 h 0.88574 c 1.44922,0 2.62012,1.17871 2.62012,2.62012 0,1.45703 -1.1709,2.63574 -2.62012,2.63574 h -0.88574 c -0.23242,0 -0.41309,-0.1875 -0.41309,-0.41309 z m 0.83398,-0.4209 h 0.46484 c 0.99121,-0.007 1.78711,-0.80273 1.78711,-1.80176 0,-0.9834 -0.7959,-1.78613 -1.78711,-1.78613 h -0.46484 z" />
      <path id="path998" style="fill:#525252" d="m 97.01063,224.58887 v -4.42969 c 0,-0.23242 0.18066,-0.41309 0.41309,-0.41309 h 2.45508 c 0.21777,0 0.41309,0.18066 0.41309,0.41309 0,0.2334 -0.19531,0.4209 -0.41309,0.4209 h -2.03418 v 1.37402 h 1.74902 c 0.22461,0 0.41309,0.19434 0.41309,0.41211 0,0.2334 -0.18848,0.4209 -0.41309,0.4209 h -1.74902 v 1.38086 h 2.03418 c 0.21777,0 0.41309,0.18848 0.41309,0.4209 0,0.22559 -0.19531,0.41309 -0.41309,0.41309 h -2.43262 c -0.01465,0 -0.01465,-0.008 -0.01465,-0.008 l -0.0078,0.008 c -0.23242,0 -0.41309,-0.1875 -0.41309,-0.41309 z" />
      <path id="path1000" style="fill:#525252" d="m 104.67176,220.58008 h -1.19434 v 4.00879 c 0,0.23242 -0.17969,0.41309 -0.41309,0.41309 -0.22461,0 -0.41211,-0.18066 -0.41211,-0.41309 v -4.00879 h -1.18652 c -0.23242,0 -0.41309,-0.19531 -0.41309,-0.4209 0,-0.23242 0.18066,-0.41309 0.41309,-0.41309 h 3.20605 c 0.22461,0 0.41211,0.18066 0.41211,0.41309 0,0.22559 -0.1875,0.4209 -0.41211,0.4209 z" />
      <path id="path1002" style="fill:#525252" d="m 108.495,225.00195 c -1.20898,0 -2.16992,-0.97656 -2.16992,-2.16992 v -2.67285 c 0,-0.23242 0.18066,-0.41309 0.41309,-0.41309 0.22559,0 0.4209,0.18066 0.4209,0.41309 v 2.67285 c 0,0.73535 0.60059,1.33594 1.33594,1.33594 0.74316,0 1.33691,-0.60059 1.33691,-1.33594 v -2.67285 c 0,-0.23242 0.1875,-0.41309 0.41992,-0.41309 0.23242,0 0.41309,0.18066 0.41309,0.41309 v 2.67285 c 0,1.19336 -0.96875,2.16992 -2.16992,2.16992 z" />
      <path id="path1004" style="fill:#525252" d="m 113.1366,224.58887 c 0,0.22559 -0.1875,0.41309 -0.40527,0.41309 -0.2334,0 -0.41309,-0.1875 -0.41309,-0.41309 v -4.36914 c -0.008,-0.12793 0.0527,-0.2627 0.16504,-0.3457 0.1875,-0.12793 0.44336,-0.0898 0.57031,0.0898 l 2.4248,3.35645 v -3.09375 c 0,-0.2168 0.18066,-0.40527 0.40625,-0.40527 0.22461,0 0.41211,0.18848 0.41211,0.40527 v 4.3623 c 0,0.22559 -0.1875,0.41309 -0.41211,0.41309 -0.12012,0 -0.2334,-0.0606 -0.30859,-0.15039 -0.0146,-0.0147 -0.0293,-0.0303 -0.0371,-0.0449 l -2.40234,-3.33301 z" />
      <path id="path1006" style="fill:#525252" d="m 117.60535,224.58887 v -4.42969 c 0,-0.23242 0.18066,-0.41309 0.41309,-0.41309 h 2.45508 c 0.21777,0 0.41309,0.18066 0.41309,0.41309 0,0.2334 -0.19531,0.4209 -0.41309,0.4209 h -2.03418 v 1.37402 h 1.74902 c 0.22461,0 0.41309,0.19434 0.41309,0.41211 0,0.2334 -0.18848,0.4209 -0.41309,0.4209 h -1.74902 v 1.38086 h 2.03418 c 0.21777,0 0.41309,0.18848 0.41309,0.4209 0,0.22559 -0.19531,0.41309 -0.41309,0.41309 h -2.43262 c -0.0146,0 -0.0146,-0.008 -0.0146,-0.008 l -0.008,0.008 c -0.23242,0 -0.41309,-0.1875 -0.41309,-0.41309 z" />
    </g>
    <g id="g1024">
      <path id="path1010" style="fill:#525252" d="m 129.46864,224.58887 v -4.42969 c 0,-0.23242 0.1875,-0.41309 0.41309,-0.41309 h 1.06543 c 0.78906,0 1.42676,0.63867 1.42676,1.42676 0,0.32324 -0.10449,0.61523 -0.28516,0.85547 0.4502,0.28613 0.75879,0.78906 0.75879,1.35938 0,0.89355 -0.7207,1.61426 -1.60742,1.61426 h -1.32812 c -0.008,0 -0.008,-0.008 -0.008,-0.008 -0.0156,0 -0.0156,0.008 -0.0225,0.008 -0.22559,0 -0.41309,-0.1875 -0.41309,-0.41309 z m 0.83398,-2.80762 h 0.64453 c 0.33008,0 0.59375,-0.27832 0.59375,-0.6084 0,-0.33008 -0.26367,-0.59277 -0.59375,-0.59277 h -0.64453 z m 0,2.38672 h 0.9375 c 0.42773,-0.007 0.77344,-0.34473 0.77344,-0.78027 0,-0.42773 -0.3457,-0.76562 -0.77344,-0.77344 h -0.9375 z" />
      <path id="path1012" style="fill:#525252" d="m 136.49207,223.7627 h -1.82422 l -0.36914,0.97656 c -0.0664,0.16504 -0.22461,0.2627 -0.38965,0.2627 -0.0527,0 -0.0977,-0.008 -0.14258,-0.0225 -0.21777,-0.083 -0.32324,-0.32324 -0.24805,-0.54102 l 1.65918,-4.42188 c 0.0684,-0.16504 0.23242,-0.27051 0.39844,-0.2627 0.17188,-0.008 0.33008,0.0977 0.39746,0.2627 l 1.65918,4.42188 c 0.0752,0.21777 -0.0303,0.45801 -0.24805,0.54102 -0.0371,0.0146 -0.0898,0.0225 -0.14258,0.0225 -0.16504,0 -0.32227,-0.0977 -0.38281,-0.2627 l -0.36719,-0.97656 z m -0.30859,-0.8252 -0.60742,-1.61426 -0.6084,1.61426 z" />
      <path id="path1014" style="fill:#525252" d="m 138.69325,224.58887 v -4.42969 c 0,-0.22461 0.18066,-0.41309 0.41406,-0.41309 0.23242,0 0.41992,0.18848 0.41992,0.41309 v 4.00879 h 2.03418 c 0.21777,0 0.41309,0.18848 0.41309,0.4209 0,0.22559 -0.19531,0.41309 -0.41309,0.41309 h -2.4541 c -0.2334,0 -0.41406,-0.1875 -0.41406,-0.41309 z" />
      <path id="path1016" style="fill:#525252" d="m 145.63368,223.7627 h -1.82422 l -0.36816,0.97656 c -0.0674,0.16504 -0.22461,0.2627 -0.39062,0.2627 -0.0527,0 -0.0977,-0.008 -0.14258,-0.0225 -0.2168,-0.083 -0.32227,-0.32324 -0.24805,-0.54102 l 1.66016,-4.42188 c 0.0674,-0.16504 0.23242,-0.27051 0.39746,-0.2627 0.17285,-0.008 0.33105,0.0977 0.39746,0.2627 l 1.66016,4.42188 c 0.0742,0.21777 -0.0312,0.45801 -0.24805,0.54102 -0.0371,0.0146 -0.0898,0.0225 -0.14258,0.0225 -0.16602,0 -0.32324,-0.0977 -0.38281,-0.2627 l -0.36816,-0.97656 z m -0.30762,-0.8252 -0.6084,-1.61426 -0.6084,1.61426 z" />
      <path id="path1018" style="fill:#525252" d="m 148.662,224.58887 c 0,0.22559 -0.1875,0.41309 -0.40625,0.41309 -0.23242,0 -0.41211,-0.1875 -0.41211,-0.41309 v -4.36914 c -0.008,-0.12793 0.0527,-0.2627 0.16504,-0.3457 0.1875,-0.12793 0.44238,-0.0898 0.57031,0.0898 l 2.4248,3.35645 v -3.09375 c 0,-0.2168 0.17969,-0.40527 0.40527,-0.40527 0.22558,0 0.41309,0.18848 0.41309,0.40527 v 4.3623 c 0,0.22559 -0.1875,0.41309 -0.41309,0.41309 -0.12012,0 -0.23242,-0.0606 -0.30762,-0.15039 -0.0156,-0.0147 -0.0293,-0.0303 -0.0371,-0.0449 l -2.40234,-3.33301 v 3.11523 z" />
      <path id="path1020" style="fill:#525252" d="m 153.42371,222.29883 c 0.008,-1.48633 1.25391,-2.69531 2.75488,-2.70215 0.66113,0 1.26074,0.21777 1.73438,0.58496 0.18066,0.15039 0.20996,0.41309 0.0752,0.60059 -0.15039,0.18848 -0.42773,0.21777 -0.60156,0.083 -0.33008,-0.27051 -0.74219,-0.41309 -1.20801,-0.41309 -0.51855,0 -0.99902,0.20996 -1.35156,0.54102 -0.33691,0.34473 -0.54785,0.79492 -0.54785,1.30566 0,0.51074 0.21094,0.97656 0.54785,1.30664 0.35254,0.33008 0.83301,0.54004 1.35156,0.54004 0.46582,0 0.87109,-0.14258 1.20801,-0.41211 0.17383,-0.12793 0.45117,-0.0977 0.60156,0.082 0.13477,0.1875 0.10547,0.45801 -0.0752,0.60059 -0.47363,0.36816 -1.07324,0.58594 -1.73438,0.58594 -1.50098,0 -2.74707,-1.20898 -2.75488,-2.70312 z" />
      <path id="path1022" style="fill:#525252" d="m 159.47645,224.58887 v -4.42969 c 0,-0.23242 0.17969,-0.41309 0.41211,-0.41309 h 2.45508 c 0.21777,0 0.41309,0.18066 0.41309,0.41309 0,0.2334 -0.19531,0.4209 -0.41309,0.4209 h -2.03418 v 1.37402 h 1.74902 c 0.22461,0 0.41309,0.19434 0.41309,0.41211 0,0.2334 -0.18848,0.4209 -0.41309,0.4209 h -1.74902 v 1.38086 h 2.03418 c 0.21777,0 0.41309,0.18848 0.41309,0.4209 0,0.22559 -0.19531,0.41309 -0.41309,0.41309 H 159.912 c -0.0156,0 -0.0156,-0.008 -0.0156,-0.008 l -0.008,0.008 c -0.23242,0 -0.41211,-0.1875 -0.41211,-0.41309 z" />
    </g>
    <g id="g1056">
      <path id="path1026" style="fill:#525252" d="m 90.96766,178.34131 c 0.13574,-0.16504 0.38281,-0.18799 0.54785,-0.0527 0.33008,0.27051 0.90039,0.58545 1.43359,0.57812 0.375,0 0.71289,-0.11279 0.93945,-0.27783 0.22461,-0.16504 0.32227,-0.35303 0.32227,-0.54053 0,-0.0977 -0.02246,-0.16504 -0.06836,-0.24023 -0.04492,-0.0752 -0.11133,-0.1499 -0.22461,-0.2251 -0.21777,-0.14258 -0.58594,-0.27051 -1.02832,-0.35303 h -0.01465 c -0.35352,-0.0674 -0.68359,-0.15771 -0.96875,-0.29248 -0.28516,-0.13525 -0.5332,-0.32275 -0.69824,-0.58594 -0.1123,-0.18018 -0.17285,-0.39014 -0.17285,-0.61523 0,-0.45068 0.25586,-0.84082 0.60059,-1.09619 0.35254,-0.25537 0.81152,-0.39795 1.29883,-0.39795 0.7207,0 1.25391,0.35303 1.63672,0.60059 0.17285,0.12012 0.22559,0.36035 0.10449,0.5332 -0.1123,0.18018 -0.35254,0.23242 -0.5332,0.1123 -0.38281,-0.25537 -0.75,-0.48047 -1.20801,-0.48047 -0.33789,0 -0.6377,0.10498 -0.84082,0.25537 -0.20312,0.15039 -0.28516,0.31543 -0.28516,0.47314 0,0.0898 0.01562,0.1499 0.05273,0.20996 0.03711,0.0601 0.10547,0.12744 0.20312,0.19531 0.19434,0.13525 0.53223,0.25537 0.9375,0.33008 h 0.01562 c 0.38281,0.0752 0.73535,0.17285 1.03516,0.31543 0.30859,0.15039 0.57812,0.34521 0.75098,0.62305 0.1123,0.18018 0.18066,0.40576 0.18066,0.63818 0,0.48047 -0.27051,0.89355 -0.64648,1.16357 -0.36719,0.27051 -0.85547,0.42822 -1.38867,0.42822 -0.81055,-0.008 -1.49414,-0.41309 -1.92188,-0.75098 -0.16406,-0.13525 -0.1875,-0.38281 -0.05957,-0.54785 z" />
      <path id="path1028" style="fill:#525252" d="m 99.27332,175.22559 h -1.19336 v 4.00879 c 0,0.23291 -0.18066,0.41309 -0.41406,0.41309 -0.22461,0 -0.41211,-0.18018 -0.41211,-0.41309 v -4.00879 h -1.18652 c -0.23242,0 -0.41309,-0.19531 -0.41309,-0.42041 0,-0.23242 0.18066,-0.41309 0.41309,-0.41309 h 3.20605 c 0.22461,0 0.41211,0.18066 0.41211,0.41309 0,0.2251 -0.1875,0.42041 -0.41211,0.42041 z" />
      <path id="path1030" style="fill:#525252" d="m 104.43348,179.02441 c 0.0742,0.21777 -0.0449,0.4502 -0.26367,0.52539 -0.0293,0.007 -0.0898,0.0225 -0.16406,0.0225 h -0.008 c -0.0752,0 -0.1875,-0.0151 -0.29297,-0.0825 -0.0977,-0.0601 -0.17969,-0.15771 -0.24023,-0.2627 -0.10547,-0.21777 -0.1582,-0.48779 -0.1582,-0.90088 -0.007,-0.14258 -0.0371,-0.24023 -0.0898,-0.32275 -0.0449,-0.0825 -0.13477,-0.15771 -0.22461,-0.21777 -0.1582,-0.10498 -0.35352,-0.16504 -0.41992,-0.18018 h -0.88672 v 1.62891 c 0,0.22559 -0.1875,0.41309 -0.41992,0.41309 -0.23242,0 -0.41309,-0.1875 -0.41309,-0.41309 v -4.4292 c 0,-0.23242 0.18066,-0.41309 0.41309,-0.41309 h 1.34375 c 0.89258,0 1.60645,0.7207 1.60645,1.61426 0,0.49561 -0.22559,0.93115 -0.58496,1.23145 0.0967,0.0747 0.1875,0.16504 0.26172,0.27734 0.15039,0.21777 0.24805,0.49561 0.24805,0.81104 -0.008,0.2251 0.0156,0.36768 0.0293,0.44287 0.12109,0.0376 0.21875,0.12793 0.26367,0.25537 z m -1.05078,-3.01807 c 0,-0.43555 -0.3457,-0.78076 -0.77344,-0.78076 h -0.92383 v 1.54639 h 0.92383 c 0.42773,0 0.77344,-0.34521 0.77344,-0.76562 z" />
      <path id="path1032" style="fill:#525252" d="m 108.07606,174.80518 v 4.4292 c 0,0.23291 -0.19531,0.41309 -0.41992,0.41309 -0.23242,0 -0.41309,-0.18018 -0.41309,-0.41309 v -3.69336 l -0.2998,0.17236 c -0.0684,0.0454 -0.14258,0.0606 -0.21094,0.0606 -0.14258,0 -0.27734,-0.0752 -0.35254,-0.21045 -0.12793,-0.1875 -0.0596,-0.45068 0.13477,-0.56299 l 0.92285,-0.54785 c 0.008,-0.008 0.0234,-0.008 0.0312,-0.0151 0.0147,0 0.0215,-0.0151 0.0371,-0.0225 0.0156,0 0.0293,-0.008 0.0449,-0.008 0.008,-0.007 0.0225,-0.007 0.0303,-0.007 0.0147,-0.008 0.0381,-0.008 0.0518,-0.008 h 0.083 c 0.008,0.008 0.0225,0.008 0.0303,0.008 0.0225,0 0.0293,0.007 0.0449,0.0151 0.008,0 0.0225,0 0.0303,0.007 0.0225,0.0151 0.0303,0.0225 0.0449,0.0225 0.007,0.008 0.0147,0.0151 0.0303,0.0225 0.008,0.008 0.0215,0.0151 0.0293,0.0225 0.0156,0.008 0.0234,0.0225 0.0303,0.0303 0.008,0.007 0.0147,0.0151 0.0225,0.0298 l 0.0303,0.0303 0.007,0.0151 c 0,0.007 0.008,0.0146 0.008,0.0225 0.008,0.0146 0.0156,0.0225 0.0156,0.0376 0.008,0.0146 0.008,0.0298 0.0147,0.0376 0,0.0146 0.008,0.0298 0.008,0.0371 0,0.0225 0,0.0376 0.0147,0.0527 v 0.0225 z" />
      <path id="path1034" style="fill:#525252" d="m 109.85926,177.3501 c 0,-0.24756 0.20312,-0.4502 0.44336,-0.4502 h 1.41113 c 0.24023,0 0.44238,0.20264 0.44238,0.4502 0,0.24023 -0.20215,0.44287 -0.44238,0.44287 h -1.41113 c -0.24023,0 -0.44336,-0.20264 -0.44336,-0.44287 z" />
      <path id="path1036" style="fill:#525252" d="m 114.02918,179.23438 v -4.4292 c 0,-0.23242 0.18066,-0.41309 0.41406,-0.41309 h 0.88477 c 1.44922,0 2.62109,1.17871 2.62109,2.62012 0,1.45654 -1.17188,2.63525 -2.62109,2.63525 h -0.88477 c -0.2334,0 -0.41406,-0.1875 -0.41406,-0.41309 z m 0.83398,-0.42041 h 0.46484 c 0.99121,-0.007 1.78711,-0.80322 1.78711,-1.80176 0,-0.9834 -0.7959,-1.78662 -1.78711,-1.78662 h -0.46484 z" />
      <path id="path1038" style="fill:#525252" d="m 119.08485,179.23438 v -4.4292 c 0,-0.23242 0.18066,-0.41309 0.41309,-0.41309 h 2.45508 c 0.2168,0 0.41211,0.18066 0.41211,0.41309 0,0.23291 -0.19531,0.42041 -0.41211,0.42041 h -2.03516 v 1.37402 h 1.75 c 0.22461,0 0.41211,0.19482 0.41211,0.4126 0,0.23291 -0.1875,0.42041 -0.41211,0.42041 h -1.75 v 1.38135 h 2.03516 c 0.2168,0 0.41211,0.18799 0.41211,0.42041 0,0.22559 -0.19531,0.41309 -0.41211,0.41309 h -2.43262 c -0.0146,0 -0.0146,-0.007 -0.0146,-0.007 l -0.008,0.007 c -0.23242,0 -0.41309,-0.1875 -0.41309,-0.41309 z" />
      <path id="path1040" style="fill:#525252" d="m 123.3368,176.94482 c 0.008,-1.48633 1.25391,-2.69531 2.75488,-2.70264 0.66113,0 1.26172,0.21777 1.73438,0.58545 0.18066,0.15039 0.21094,0.41309 0.0752,0.60059 -0.14941,0.18799 -0.42773,0.21777 -0.60059,0.0825 -0.33008,-0.27002 -0.74316,-0.4126 -1.20898,-0.4126 -0.51758,0 -0.99805,0.20996 -1.35156,0.54053 -0.33691,0.34521 -0.54688,0.79541 -0.54688,1.30615 0,0.51074 0.20996,0.97607 0.54688,1.30615 0.35352,0.33057 0.83398,0.54053 1.35156,0.54053 0.46582,0 0.87109,-0.14258 1.20898,-0.4126 0.17285,-0.12793 0.45117,-0.0977 0.60059,0.0825 0.13574,0.1875 0.10547,0.45801 -0.0752,0.60059 -0.47266,0.36768 -1.07324,0.58545 -1.73438,0.58545 -1.50098,0 -2.74707,-1.2085 -2.75488,-2.70264 z" />
      <path id="path1042" style="fill:#525252" d="m 131.95692,178.40869 h -1.82422 l -0.36719,0.97607 c -0.0684,0.16504 -0.22559,0.2627 -0.39062,0.2627 -0.0527,0 -0.0977,-0.007 -0.14258,-0.0225 -0.21777,-0.0825 -0.32227,-0.32275 -0.24805,-0.54053 l 1.65918,-4.42188 c 0.0674,-0.16504 0.2334,-0.27051 0.39746,-0.2627 0.17383,-0.008 0.33105,0.0977 0.39844,0.2627 l 1.65918,4.42188 c 0.0752,0.21777 -0.0303,0.45801 -0.24707,0.54053 -0.0381,0.0151 -0.0908,0.0225 -0.14355,0.0225 -0.16504,0 -0.32324,-0.0977 -0.38281,-0.2627 l -0.36816,-0.97607 z m -0.30664,-0.82568 -0.60938,-1.61426 -0.60742,1.61426 z" />
      <path id="path1044" style="fill:#525252" d="m 137.25379,175.09814 -1.53906,2.10938 v 2.02686 c 0,0.23291 -0.18066,0.41309 -0.41406,0.41309 -0.2168,0 -0.41211,-0.18018 -0.41211,-0.41309 v -2.02686 l -1.52441,-2.10938 c -0.14258,-0.18018 -0.10449,-0.43555 0.083,-0.5708 0.1875,-0.13525 0.44336,-0.0977 0.57031,0.0903 l 1.2832,1.75684 1.28418,-1.75684 c 0.14258,-0.18799 0.39746,-0.22559 0.57812,-0.0903 0.18066,0.13526 0.21777,0.39062 0.0908,0.5708 z" />
      <path id="path1046" style="fill:#525252" d="m 138.66688,177.3501 c 0,-0.24756 0.20215,-0.4502 0.44238,-0.4502 h 1.41211 c 0.24023,0 0.44336,0.20264 0.44336,0.4502 0,0.24023 -0.20312,0.44287 -0.44336,0.44287 h -1.41211 c -0.24023,0 -0.44238,-0.20264 -0.44238,-0.44287 z" />
      <path id="path1048" style="fill:#525252" d="m 142.67176,178.34131 c 0.13477,-0.16504 0.38281,-0.18799 0.54785,-0.0527 0.33105,0.27051 0.90137,0.58545 1.43457,0.57812 0.375,0 0.71289,-0.11279 0.9375,-0.27783 0.22559,-0.16504 0.32324,-0.35303 0.32324,-0.54053 0,-0.0977 -0.0225,-0.16504 -0.0674,-0.24023 -0.0449,-0.0752 -0.11328,-0.1499 -0.22559,-0.2251 -0.21777,-0.14258 -0.58496,-0.27051 -1.02832,-0.35303 h -0.0156 c -0.35254,-0.0674 -0.68262,-0.15771 -0.96777,-0.29248 -0.28613,-0.13525 -0.5332,-0.32275 -0.69824,-0.58594 -0.11328,-0.18018 -0.17285,-0.39014 -0.17285,-0.61523 0,-0.45068 0.25488,-0.84082 0.60059,-1.09619 0.35352,-0.25537 0.81055,-0.39795 1.29883,-0.39795 0.7207,0 1.25391,0.35303 1.63672,0.60059 0.17188,0.12012 0.22461,0.36035 0.10547,0.5332 -0.11328,0.18018 -0.35352,0.23242 -0.5332,0.1123 -0.38281,-0.25537 -0.75098,-0.48047 -1.20898,-0.48047 -0.33789,0 -0.63867,0.10498 -0.84082,0.25537 -0.20215,0.15039 -0.28516,0.31543 -0.28516,0.47314 0,0.0898 0.0147,0.1499 0.0518,0.20996 0.0381,0.0601 0.10547,0.12744 0.20312,0.19531 0.19531,0.13525 0.5332,0.25537 0.93848,0.33008 h 0.0146 c 0.38281,0.0752 0.73633,0.17285 1.03711,0.31543 0.30664,0.15039 0.57812,0.34521 0.75,0.62305 0.11328,0.18018 0.17969,0.40576 0.17969,0.63818 0,0.48047 -0.26953,0.89355 -0.64453,1.16357 -0.36816,0.27051 -0.85645,0.42822 -1.38867,0.42822 -0.81152,-0.008 -1.49414,-0.41309 -1.92188,-0.75098 -0.16602,-0.13525 -0.18848,-0.38281 -0.0605,-0.54785 z" />
      <path id="path1050" style="fill:#525252" d="m 150.9784,175.22559 h -1.19434 v 4.00879 c 0,0.23291 -0.18066,0.41309 -0.41309,0.41309 -0.22461,0 -0.41211,-0.18018 -0.41211,-0.41309 v -4.00879 h -1.1875 c -0.23242,0 -0.41211,-0.19531 -0.41211,-0.42041 0,-0.23242 0.17969,-0.41309 0.41211,-0.41309 h 3.20703 c 0.22461,0 0.41211,0.18066 0.41211,0.41309 0,0.2251 -0.1875,0.42041 -0.41211,0.42041 z" />
      <path id="path1052" style="fill:#525252" d="m 156.13856,179.02441 c 0.0742,0.21777 -0.0459,0.4502 -0.26367,0.52539 -0.0293,0.007 -0.0898,0.0225 -0.16504,0.0225 h -0.007 c -0.0762,0 -0.1875,-0.0151 -0.29297,-0.0825 -0.0977,-0.0601 -0.18066,-0.15771 -0.24023,-0.2627 -0.10547,-0.21777 -0.1582,-0.48779 -0.1582,-0.90088 -0.008,-0.14258 -0.0371,-0.24023 -0.0898,-0.32275 -0.0449,-0.0825 -0.13477,-0.15771 -0.22461,-0.21777 -0.1582,-0.10498 -0.35352,-0.16504 -0.4209,-0.18018 h -0.88574 v 1.62891 c 0,0.22559 -0.1875,0.41309 -0.4209,0.41309 -0.23242,0 -0.41309,-0.1875 -0.41309,-0.41309 v -4.4292 c 0,-0.23242 0.18066,-0.41309 0.41309,-0.41309 h 1.34473 c 0.89258,0 1.60547,0.7207 1.60547,1.61426 0,0.49561 -0.22461,0.93115 -0.58594,1.23145 0.0977,0.0747 0.18848,0.16504 0.26367,0.27734 0.15039,0.21777 0.24805,0.49561 0.24805,0.81104 -0.008,0.2251 0.0147,0.36768 0.0293,0.44287 0.12109,0.0376 0.21777,0.12793 0.26367,0.25537 z m -1.05176,-3.01807 c 0,-0.43555 -0.34473,-0.78076 -0.77246,-0.78076 h -0.92383 v 1.54639 h 0.92383 c 0.42773,0 0.77246,-0.34521 0.77246,-0.76562 z" />
      <path id="path1054" style="fill:#525252" d="m 161.23719,179.23438 c 0,0.23291 -0.18066,0.41309 -0.41309,0.41309 h -2.67188 c -0.11328,0 -0.2334,-0.0449 -0.30859,-0.13525 -0.1582,-0.17236 -0.14258,-0.42773 0.0234,-0.58545 l 2.2207,-2.01221 c 0.21875,-0.19482 0.31641,-0.4502 0.31641,-0.7207 0,-0.24023 -0.083,-0.46533 -0.24805,-0.65283 -0.19531,-0.21777 -0.45801,-0.31543 -0.7207,-0.31543 -0.23242,0 -0.46484,0.0825 -0.65332,0.24756 l -0.23242,0.21045 c -0.17285,0.15771 -0.42871,0.14258 -0.58594,-0.0298 -0.14941,-0.17285 -0.14258,-0.42822 0.0303,-0.58594 l 0.23242,-0.20996 c 0.33789,-0.31543 0.78125,-0.46582 1.20898,-0.46582 0.48828,0 0.9834,0.20312 1.33594,0.59326 0.31543,0.33789 0.46582,0.78076 0.46582,1.2085 0,0.48828 -0.20215,0.98389 -0.59277,1.33643 l -1.41992,1.28369 h 1.59961 c 0.23242,0 0.41309,0.18799 0.41309,0.42041 z" />
    </g>
    <g id="g1098">
      <g id="g1076">
        <path id="path1058" style="fill:#525252" d="m 48.10926,15.65674 c 0.19727,-0.24219 0.56055,-0.27539 0.80273,-0.07715 0.48438,0.396 1.32031,0.85791 2.10156,0.84717 0.5498,0 1.04492,-0.16504 1.375,-0.40723 0.33008,-0.24219 0.47266,-0.51709 0.47266,-0.79199 0,-0.14307 -0.0332,-0.24219 -0.09863,-0.35205 -0.06543,-0.10986 -0.16504,-0.22021 -0.33008,-0.33008 -0.31934,-0.20898 -0.8584,-0.396 -1.50684,-0.51709 h -0.02148 c -0.51758,-0.09912 -1.00195,-0.23096 -1.41992,-0.4292 -0.41797,-0.19775 -0.78125,-0.47314 -1.02344,-0.85791 -0.16406,-0.26416 -0.25293,-0.57227 -0.25293,-0.90234 0,-0.66016 0.37402,-1.23193 0.87988,-1.60596 0.51758,-0.37402 1.18848,-0.5835 1.9043,-0.5835 1.05566,0 1.83594,0.51709 2.39844,0.88037 0.25195,0.17627 0.33008,0.52783 0.15332,0.78125 -0.16504,0.26367 -0.5166,0.34082 -0.78125,0.16504 -0.56152,-0.37402 -1.10059,-0.7041 -1.77051,-0.7041 -0.49609,0 -0.93555,0.15381 -1.23242,0.37402 -0.29688,0.21973 -0.41797,0.46191 -0.41797,0.69287 0,0.13232 0.02148,0.22021 0.07617,0.30811 0.05469,0.0879 0.1543,0.18701 0.29688,0.28613 0.28711,0.19775 0.78125,0.37402 1.37598,0.48389 h 0.02246 c 0.56055,0.11035 1.07812,0.25293 1.51758,0.4624 0.45117,0.21973 0.84766,0.50586 1.09961,0.91309 0.16602,0.26367 0.26465,0.59375 0.26465,0.93506 0,0.7041 -0.39551,1.30908 -0.94629,1.70508 -0.53906,0.396 -1.25391,0.62695 -2.03516,0.62695 -1.18848,-0.01074 -2.18945,-0.60498 -2.81641,-1.1001 -0.24219,-0.19775 -0.27539,-0.56104 -0.08789,-0.80273 z" />
        <path id="path1060" style="fill:#525252" d="m 61.05653,11.09082 h -1.74902 v 5.875 c 0,0.34082 -0.26465,0.60498 -0.60449,0.60498 -0.33008,0 -0.60547,-0.26416 -0.60547,-0.60498 v -5.875 h -1.73828 c -0.3418,0 -0.60547,-0.28613 -0.60547,-0.61621 0,-0.34082 0.26367,-0.60498 0.60547,-0.60498 h 4.69727 c 0.33008,0 0.60547,0.26416 0.60547,0.60498 0,0.33008 -0.27539,0.61621 -0.60547,0.61621 z" />
        <path id="path1062" style="fill:#525252" d="m 69.39442,16.65771 c 0.11035,0.31885 -0.06641,0.66016 -0.38477,0.77002 -0.04492,0.01123 -0.13281,0.0332 -0.24219,0.0332 h -0.01172 c -0.10938,0 -0.27441,-0.02197 -0.42773,-0.12109 -0.14355,-0.08789 -0.26465,-0.23096 -0.35254,-0.38525 -0.1543,-0.31885 -0.23145,-0.71484 -0.23145,-1.31982 -0.01074,-0.20947 -0.05469,-0.35254 -0.13184,-0.47314 -0.06543,-0.12109 -0.19824,-0.23096 -0.33008,-0.31934 -0.23145,-0.15381 -0.5166,-0.2417 -0.61621,-0.26416 h -1.29785 v 2.3877 c 0,0.33008 -0.27441,0.60498 -0.61621,0.60498 -0.34082,0 -0.60547,-0.2749 -0.60547,-0.60498 v -6.49121 c 0,-0.34082 0.26465,-0.60498 0.60547,-0.60498 h 1.96875 c 1.30957,0 2.35547,1.05615 2.35547,2.36523 0,0.72607 -0.33008,1.36426 -0.85938,1.8042 0.14355,0.11035 0.27539,0.24219 0.38574,0.40723 0.21973,0.31934 0.3623,0.72607 0.3623,1.18848 -0.0098,0.32959 0.02344,0.53906 0.04492,0.64893 0.17578,0.05518 0.31836,0.18701 0.38477,0.37402 z m -1.54004,-4.42285 c 0,-0.6377 -0.50684,-1.14404 -1.13379,-1.14404 h -1.35254 v 2.2666 h 1.35254 c 0.62695,0 1.13379,-0.50635 1.13379,-1.12256 z" />
        <path id="path1064" style="fill:#525252" d="m 72.07801,10.47461 c 0,-0.34082 0.26367,-0.60498 0.60547,-0.60498 0.33008,0 0.61523,0.26416 0.61523,0.60498 v 6.49121 c 0,0.34082 -0.28516,0.60498 -0.61523,0.60498 -0.3418,0 -0.60547,-0.26416 -0.60547,-0.60498 z" />
        <path id="path1066" style="fill:#525252" d="m 77.39051,16.96582 c 0,0.33008 -0.27539,0.60498 -0.59375,0.60498 -0.34082,0 -0.60547,-0.2749 -0.60547,-0.60498 v -6.40283 c -0.01074,-0.18701 0.07812,-0.38525 0.24219,-0.50635 0.27539,-0.18701 0.64941,-0.13184 0.83594,0.13232 l 3.55371,4.91748 v -4.53271 c 0,-0.31885 0.26465,-0.59424 0.59473,-0.59424 0.33008,0 0.60449,0.27539 0.60449,0.59424 v 6.39209 c 0,0.33008 -0.27441,0.60498 -0.60449,0.60498 -0.17578,0 -0.3418,-0.08789 -0.45117,-0.22021 C 80.94423,17.32862 80.92177,17.30664 80.912,17.28467 L 77.39052,12.3999 v 4.56592 z" />
        <path id="path1068" style="fill:#525252" d="m 84.59559,13.62109 c 0,-2.21094 1.82617,-3.97168 4.06055,-3.97168 0.93457,0 1.82617,0.31934 2.50781,0.8584 0.28613,0.20898 0.33008,0.61621 0.12109,0.89111 -0.20898,0.26416 -0.61621,0.31885 -0.89062,0.09912 -0.47363,-0.36328 -1.07812,-0.59424 -1.73828,-0.59424 -0.79297,0 -1.48633,0.29688 -1.98047,0.80322 -0.51758,0.49512 -0.82617,1.16602 -0.82617,1.91406 0,0.72607 0.30859,1.39746 0.82617,1.89258 0.49414,0.50586 1.1875,0.80273 1.98047,0.80273 0.54883,0 1.06641,-0.16504 1.50684,-0.41797 V 14.3911 h -1.57324 c -0.3418,0 -0.62695,-0.28564 -0.62695,-0.62695 0,-0.35205 0.28516,-0.61621 0.62695,-0.61621 h 2.18945 c 0.35156,0 0.6377,0.26416 0.6377,0.61621 v 2.43164 c 0,0.07666 -0.02246,0.12061 -0.03223,0.18701 -0.01172,0.02197 -0.01172,0.03271 -0.02344,0.05469 v 0.01123 c -0.03223,0.09912 -0.09766,0.18701 -0.20898,0.26416 -0.69238,0.53906 -1.56152,0.85791 -2.49609,0.85791 -2.23438,0 -4.06055,-1.74902 -4.06055,-3.94971 z" />
        <path id="path1070" style="fill:#525252" d="m 101.3495,17.46094 c -0.0225,-0.02197 -0.0449,-0.0332 -0.0772,-0.05518 0,-0.01123 -0.0107,-0.01123 -0.0107,-0.0332 -0.0225,-0.02197 -0.0449,-0.04395 -0.0557,-0.06592 0,0 -0.0107,0 -0.0107,-0.01074 -0.0117,-0.02197 -0.0332,-0.06592 -0.0547,-0.08838 l -2.69531,-6.4248 c -0.13281,-0.29688 0.01074,-0.66016 0.33008,-0.78076 0.29688,-0.13232 0.64844,0.01074 0.78125,0.31885 l 2.14453,5.09375 2.14551,-5.09375 c 0.13184,-0.30811 0.49512,-0.45117 0.79199,-0.31885 0.30859,0.12061 0.45117,0.48389 0.33008,0.78076 l -2.7168,6.4248 c -0.0117,0.02246 -0.0225,0.06641 -0.0449,0.08838 q 0,0.01074 -0.0107,0.01074 c -0.0107,0.02197 -0.0439,0.04395 -0.0547,0.06592 -0.0107,0.02197 -0.0107,0.02197 -0.0225,0.0332 -0.0215,0.02197 -0.0439,0.0332 -0.0664,0.05518 l -0.0215,0.01074 c -0.0215,0.01123 -0.0547,0.04395 -0.0879,0.05518 q -0.0107,0 -0.0215,0.01074 c -0.0332,0 -0.0557,0.01123 -0.0879,0.02197 h -0.0225 c -0.0439,0.01123 -0.0772,0.01123 -0.11035,0.01123 -0.0332,0 -0.0762,0 -0.10938,-0.01123 h -0.0225 c -0.0225,-0.01074 -0.0654,-0.02197 -0.0879,-0.02197 0,-0.01074 -0.0107,-0.01074 -0.0107,-0.01074 h -0.0117 c -0.0215,-0.01123 -0.0664,-0.04395 -0.0986,-0.06592 z" />
        <path id="path1072" style="fill:#525252" d="m 107.13465,13.61035 c 0.0117,-2.17822 1.83789,-3.94971 4.03809,-3.96094 0.96777,0 1.84863,0.31934 2.54102,0.8584 0.26465,0.22021 0.30762,0.60498 0.11035,0.87988 -0.2207,0.27539 -0.62695,0.31934 -0.88086,0.12109 -0.4834,-0.396 -1.08789,-0.60498 -1.77051,-0.60498 -0.75879,0 -1.46387,0.30811 -1.98047,0.79199 -0.49512,0.50635 -0.80371,1.1665 -0.80371,1.91455 0,0.74805 0.30859,1.43018 0.80371,1.91406 0.5166,0.48438 1.22168,0.79199 1.98047,0.79199 0.68262,0 1.27637,-0.20898 1.77051,-0.60498 0.25391,-0.18701 0.66016,-0.14307 0.88086,0.12109 0.19727,0.2749 0.1543,0.6709 -0.11035,0.88037 -0.69238,0.53906 -1.57324,0.85791 -2.54102,0.85791 -2.2002,0 -4.02637,-1.77148 -4.03809,-3.96045 z" />
        <path id="path1074" style="fill:#525252" d="m 122.63465,10.82666 c 0.68164,0.72607 1.11133,1.69434 1.11133,2.78369 0,1.08887 -0.42969,2.06836 -1.11133,2.7832 -0.64844,0.71533 -1.61719,1.17725 -2.62891,1.17725 -1.05664,0 -2.02441,-0.46191 -2.69531,-1.17725 -0.68262,-0.71484 -1.08984,-1.69434 -1.08984,-2.7832 0,-1.08936 0.40723,-2.05762 1.08984,-2.78369 0.6709,-0.72607 1.63867,-1.17725 2.69531,-1.17725 1.01172,0 1.98047,0.45117 2.62891,1.17725 z m -0.14258,2.78369 c 0,-0.74805 -0.29688,-1.44141 -0.74805,-1.92529 -0.46289,-0.49512 -1.07812,-0.78125 -1.73828,-0.78125 -0.7041,0 -1.32031,0.28613 -1.7832,0.78125 -0.46094,0.48389 -0.74805,1.17725 -0.74805,1.92529 0,0.74804 0.28711,1.44092 0.74805,1.91406 0.46289,0.49512 1.0791,0.79199 1.7832,0.79199 0.66016,0 1.27539,-0.29688 1.73828,-0.79199 0.45117,-0.47314 0.74805,-1.16602 0.74805,-1.91406 z" />
      </g>
      <g id="g1096">
        <path id="path1078" style="fill:#525252" d="m 48.10926,15.65674 c 0.19727,-0.24219 0.56055,-0.27539 0.80273,-0.07715 0.48438,0.396 1.32031,0.85791 2.10156,0.84717 0.5498,0 1.04492,-0.16504 1.375,-0.40723 0.33008,-0.24219 0.47266,-0.51709 0.47266,-0.79199 0,-0.14307 -0.0332,-0.24219 -0.09863,-0.35205 -0.06543,-0.10986 -0.16504,-0.22021 -0.33008,-0.33008 -0.31934,-0.20898 -0.8584,-0.396 -1.50684,-0.51709 h -0.02148 c -0.51758,-0.09912 -1.00195,-0.23096 -1.41992,-0.4292 -0.41797,-0.19775 -0.78125,-0.47314 -1.02344,-0.85791 -0.16406,-0.26416 -0.25293,-0.57227 -0.25293,-0.90234 0,-0.66016 0.37402,-1.23193 0.87988,-1.60596 0.51758,-0.37402 1.18848,-0.5835 1.9043,-0.5835 1.05566,0 1.83594,0.51709 2.39844,0.88037 0.25195,0.17627 0.33008,0.52783 0.15332,0.78125 -0.16504,0.26367 -0.5166,0.34082 -0.78125,0.16504 -0.56152,-0.37402 -1.10059,-0.7041 -1.77051,-0.7041 -0.49609,0 -0.93555,0.15381 -1.23242,0.37402 -0.29688,0.21973 -0.41797,0.46191 -0.41797,0.69287 0,0.13232 0.02148,0.22021 0.07617,0.30811 0.05469,0.0879 0.1543,0.18701 0.29688,0.28613 0.28711,0.19775 0.78125,0.37402 1.37598,0.48389 h 0.02246 c 0.56055,0.11035 1.07812,0.25293 1.51758,0.4624 0.45117,0.21973 0.84766,0.50586 1.09961,0.91309 0.16602,0.26367 0.26465,0.59375 0.26465,0.93506 0,0.7041 -0.39551,1.30908 -0.94629,1.70508 -0.53906,0.396 -1.25391,0.62695 -2.03516,0.62695 -1.18848,-0.01074 -2.18945,-0.60498 -2.81641,-1.1001 -0.24219,-0.19775 -0.27539,-0.56104 -0.08789,-0.80273 z" />
        <path id="path1080" style="fill:#525252" d="m 61.05653,11.09082 h -1.74902 v 5.875 c 0,0.34082 -0.26465,0.60498 -0.60449,0.60498 -0.33008,0 -0.60547,-0.26416 -0.60547,-0.60498 v -5.875 h -1.73828 c -0.3418,0 -0.60547,-0.28613 -0.60547,-0.61621 0,-0.34082 0.26367,-0.60498 0.60547,-0.60498 h 4.69727 c 0.33008,0 0.60547,0.26416 0.60547,0.60498 0,0.33008 -0.27539,0.61621 -0.60547,0.61621 z" />
        <path id="path1082" style="fill:#525252" d="m 69.39442,16.65771 c 0.11035,0.31885 -0.06641,0.66016 -0.38477,0.77002 -0.04492,0.01123 -0.13281,0.0332 -0.24219,0.0332 h -0.01172 c -0.10938,0 -0.27441,-0.02197 -0.42773,-0.12109 -0.14355,-0.08789 -0.26465,-0.23096 -0.35254,-0.38525 -0.1543,-0.31885 -0.23145,-0.71484 -0.23145,-1.31982 -0.01074,-0.20947 -0.05469,-0.35254 -0.13184,-0.47314 -0.06543,-0.12109 -0.19824,-0.23096 -0.33008,-0.31934 -0.23145,-0.15381 -0.5166,-0.2417 -0.61621,-0.26416 h -1.29785 v 2.3877 c 0,0.33008 -0.27441,0.60498 -0.61621,0.60498 -0.34082,0 -0.60547,-0.2749 -0.60547,-0.60498 v -6.49121 c 0,-0.34082 0.26465,-0.60498 0.60547,-0.60498 h 1.96875 c 1.30957,0 2.35547,1.05615 2.35547,2.36523 0,0.72607 -0.33008,1.36426 -0.85938,1.8042 0.14355,0.11035 0.27539,0.24219 0.38574,0.40723 0.21973,0.31934 0.3623,0.72607 0.3623,1.18848 -0.0098,0.32959 0.02344,0.53906 0.04492,0.64893 0.17578,0.05518 0.31836,0.18701 0.38477,0.37402 z m -1.54004,-4.42285 c 0,-0.6377 -0.50684,-1.14404 -1.13379,-1.14404 h -1.35254 v 2.2666 h 1.35254 c 0.62695,0 1.13379,-0.50635 1.13379,-1.12256 z" />
        <path id="path1084" style="fill:#525252" d="m 72.07801,10.47461 c 0,-0.34082 0.26367,-0.60498 0.60547,-0.60498 0.33008,0 0.61523,0.26416 0.61523,0.60498 v 6.49121 c 0,0.34082 -0.28516,0.60498 -0.61523,0.60498 -0.3418,0 -0.60547,-0.26416 -0.60547,-0.60498 z" />
        <path id="path1086" style="fill:#525252" d="m 77.39051,16.96582 c 0,0.33008 -0.27539,0.60498 -0.59375,0.60498 -0.34082,0 -0.60547,-0.2749 -0.60547,-0.60498 v -6.40283 c -0.01074,-0.18701 0.07812,-0.38525 0.24219,-0.50635 0.27539,-0.18701 0.64941,-0.13184 0.83594,0.13232 l 3.55371,4.91748 v -4.53271 c 0,-0.31885 0.26465,-0.59424 0.59473,-0.59424 0.33008,0 0.60449,0.27539 0.60449,0.59424 v 6.39209 c 0,0.33008 -0.27441,0.60498 -0.60449,0.60498 -0.17578,0 -0.3418,-0.08789 -0.45117,-0.22021 C 80.94423,17.32862 80.92177,17.30664 80.912,17.28467 L 77.39052,12.3999 v 4.56592 z" />
        <path id="path1088" style="fill:#525252" d="m 84.59559,13.62109 c 0,-2.21094 1.82617,-3.97168 4.06055,-3.97168 0.93457,0 1.82617,0.31934 2.50781,0.8584 0.28613,0.20898 0.33008,0.61621 0.12109,0.89111 -0.20898,0.26416 -0.61621,0.31885 -0.89062,0.09912 -0.47363,-0.36328 -1.07812,-0.59424 -1.73828,-0.59424 -0.79297,0 -1.48633,0.29688 -1.98047,0.80322 -0.51758,0.49512 -0.82617,1.16602 -0.82617,1.91406 0,0.72607 0.30859,1.39746 0.82617,1.89258 0.49414,0.50586 1.1875,0.80273 1.98047,0.80273 0.54883,0 1.06641,-0.16504 1.50684,-0.41797 V 14.3911 h -1.57324 c -0.3418,0 -0.62695,-0.28564 -0.62695,-0.62695 0,-0.35205 0.28516,-0.61621 0.62695,-0.61621 h 2.18945 c 0.35156,0 0.6377,0.26416 0.6377,0.61621 v 2.43164 c 0,0.07666 -0.02246,0.12061 -0.03223,0.18701 -0.01172,0.02197 -0.01172,0.03271 -0.02344,0.05469 v 0.01123 c -0.03223,0.09912 -0.09766,0.18701 -0.20898,0.26416 -0.69238,0.53906 -1.56152,0.85791 -2.49609,0.85791 -2.23438,0 -4.06055,-1.74902 -4.06055,-3.94971 z" />
        <path id="path1090" style="fill:#525252" d="m 101.3495,17.46094 c -0.0225,-0.02197 -0.0449,-0.0332 -0.0772,-0.05518 0,-0.01123 -0.0107,-0.01123 -0.0107,-0.0332 -0.0225,-0.02197 -0.0449,-0.04395 -0.0557,-0.06592 0,0 -0.0107,0 -0.0107,-0.01074 -0.0117,-0.02197 -0.0332,-0.06592 -0.0547,-0.08838 l -2.69531,-6.4248 c -0.13281,-0.29688 0.01074,-0.66016 0.33008,-0.78076 0.29688,-0.13232 0.64844,0.01074 0.78125,0.31885 l 2.14453,5.09375 2.14551,-5.09375 c 0.13184,-0.30811 0.49512,-0.45117 0.79199,-0.31885 0.30859,0.12061 0.45117,0.48389 0.33008,0.78076 l -2.7168,6.4248 c -0.0117,0.02246 -0.0225,0.06641 -0.0449,0.08838 q 0,0.01074 -0.0107,0.01074 c -0.0107,0.02197 -0.0439,0.04395 -0.0547,0.06592 -0.0107,0.02197 -0.0107,0.02197 -0.0225,0.0332 -0.0215,0.02197 -0.0439,0.0332 -0.0664,0.05518 l -0.0215,0.01074 c -0.0215,0.01123 -0.0547,0.04395 -0.0879,0.05518 q -0.0107,0 -0.0215,0.01074 c -0.0332,0 -0.0557,0.01123 -0.0879,0.02197 h -0.0225 c -0.0439,0.01123 -0.0772,0.01123 -0.11035,0.01123 -0.0332,0 -0.0762,0 -0.10938,-0.01123 h -0.0225 c -0.0225,-0.01074 -0.0654,-0.02197 -0.0879,-0.02197 0,-0.01074 -0.0107,-0.01074 -0.0107,-0.01074 h -0.0117 c -0.0215,-0.01123 -0.0664,-0.04395 -0.0986,-0.06592 z" />
        <path id="path1092" style="fill:#525252" d="m 107.13465,13.61035 c 0.0117,-2.17822 1.83789,-3.94971 4.03809,-3.96094 0.96777,0 1.84863,0.31934 2.54102,0.8584 0.26465,0.22021 0.30762,0.60498 0.11035,0.87988 -0.2207,0.27539 -0.62695,0.31934 -0.88086,0.12109 -0.4834,-0.396 -1.08789,-0.60498 -1.77051,-0.60498 -0.75879,0 -1.46387,0.30811 -1.98047,0.79199 -0.49512,0.50635 -0.80371,1.1665 -0.80371,1.91455 0,0.74805 0.30859,1.43018 0.80371,1.91406 0.5166,0.48438 1.22168,0.79199 1.98047,0.79199 0.68262,0 1.27637,-0.20898 1.77051,-0.60498 0.25391,-0.18701 0.66016,-0.14307 0.88086,0.12109 0.19727,0.2749 0.1543,0.6709 -0.11035,0.88037 -0.69238,0.53906 -1.57324,0.85791 -2.54102,0.85791 -2.2002,0 -4.02637,-1.77148 -4.03809,-3.96045 z" />
        <path id="path1094" style="fill:#525252" d="m 122.63465,10.82666 c 0.68164,0.72607 1.11133,1.69434 1.11133,2.78369 0,1.08887 -0.42969,2.06836 -1.11133,2.7832 -0.64844,0.71533 -1.61719,1.17725 -2.62891,1.17725 -1.05664,0 -2.02441,-0.46191 -2.69531,-1.17725 -0.68262,-0.71484 -1.08984,-1.69434 -1.08984,-2.7832 0,-1.08936 0.40723,-2.05762 1.08984,-2.78369 0.6709,-0.72607 1.63867,-1.17725 2.69531,-1.17725 1.01172,0 1.98047,0.45117 2.62891,1.17725 z m -0.14258,2.78369 c 0,-0.74805 -0.29688,-1.44141 -0.74805,-1.92529 -0.46289,-0.49512 -1.07812,-0.78125 -1.73828,-0.78125 -0.7041,0 -1.32031,0.28613 -1.7832,0.78125 -0.46094,0.48389 -0.74805,1.17725 -0.74805,1.92529 0,0.74804 0.28711,1.44092 0.74805,1.91406 0.46289,0.49512 1.0791,0.79199 1.7832,0.79199 0.66016,0 1.27539,-0.29688 1.73828,-0.79199 0.45117,-0.47314 0.74805,-1.16602 0.74805,-1.91406 z" />
      </g>
    </g>
    <g id="g1124">
      <g id="g1110">
        <path id="path1100" style="fill:#c9c9c9" d="m 94.2577,308.4375 v -4.42969 c 0,-0.22461 0.18066,-0.41309 0.41406,-0.41309 0.23242,0 0.41992,0.18848 0.41992,0.41309 v 4.00879 h 2.03418 c 0.21777,0 0.41309,0.18848 0.41309,0.4209 0,0.22461 -0.19531,0.41211 -0.41309,0.41211 h -2.4541 c -0.2334,0 -0.41406,-0.1875 -0.41406,-0.41211 z" />
        <path id="path1102" style="fill:#c9c9c9" d="m 98.37489,308.2793 1.83984,-4.37695 c 0.0898,-0.20996 0.33008,-0.30762 0.54785,-0.2168 0.20215,0.082 0.2998,0.33008 0.20996,0.5332 l -1.83887,4.38379 c -0.06738,0.15723 -0.22559,0.24707 -0.38281,0.24707 -0.0459,0 -0.10547,-0.007 -0.15039,-0.0293 -0.21777,-0.083 -0.31543,-0.33008 -0.22559,-0.54102 z" />
        <path id="path1104" style="fill:#c9c9c9" d="m 106.24012,304.00781 v 4.42969 c 0,0.22461 -0.19531,0.41211 -0.41992,0.41211 -0.2334,0 -0.41406,-0.1875 -0.41406,-0.41211 v -3.16113 l -1.08008,1.50195 c -0.083,0.1123 -0.20312,0.17285 -0.33789,0.17285 h -0.0156 c -0.13477,0 -0.2627,-0.0605 -0.3457,-0.17285 l -1.07227,-1.50195 v 3.16113 c 0,0.22461 -0.18848,0.41211 -0.4209,0.41211 -0.22559,0 -0.41309,-0.1875 -0.41309,-0.41211 v -4.42969 c 0,-0.22461 0.1875,-0.41309 0.41309,-0.41309 h 0.0225 c 0.12012,0 0.25586,0.0605 0.33008,0.17285 l 1.49414,2.07227 1.49414,-2.07227 c 0.082,-0.1123 0.20312,-0.17285 0.33789,-0.17285 h 0.008 c 0.22461,0.008 0.41992,0.18848 0.41992,0.41309 z" />
        <path id="path1106" style="fill:#c9c9c9" d="m 111.89442,304.24805 c 0.46484,0.49609 0.75781,1.15625 0.75781,1.89941 0,0.74316 -0.29297,1.41113 -0.75781,1.89941 -0.44336,0.48828 -1.10352,0.80273 -1.79492,0.80273 -0.7207,0 -1.38086,-0.31445 -1.83789,-0.80273 -0.4668,-0.48828 -0.74414,-1.15625 -0.74414,-1.89941 0,-0.74316 0.27734,-1.40332 0.74414,-1.89941 0.45703,-0.49609 1.11719,-0.80273 1.83789,-0.80273 0.69141,0 1.35156,0.30664 1.79492,0.80273 z m -0.0977,1.89941 c 0,-0.51074 -0.20312,-0.9834 -0.50977,-1.31348 -0.31641,-0.33789 -0.73633,-0.5332 -1.1875,-0.5332 -0.48047,0 -0.90039,0.19531 -1.21484,0.5332 -0.31641,0.33008 -0.51172,0.80273 -0.51172,1.31348 0,0.51075 0.19531,0.9834 0.51172,1.30566 0.31445,0.33789 0.73438,0.54102 1.21484,0.54102 0.45117,0 0.87109,-0.20312 1.1875,-0.54102 0.30664,-0.32227 0.50977,-0.79492 0.50977,-1.30566 z" />
        <path id="path1108" style="fill:#c9c9c9" d="m 114.79383,308.4375 c 0,0.22461 -0.1875,0.41211 -0.40527,0.41211 -0.23242,0 -0.41309,-0.1875 -0.41309,-0.41211 v -4.36914 c -0.007,-0.12793 0.0527,-0.26367 0.16504,-0.3457 0.1875,-0.12793 0.44336,-0.0898 0.57031,0.0898 l 2.42578,3.35547 v -3.09277 c 0,-0.21777 0.17969,-0.40527 0.4043,-0.40527 0.22656,0 0.41406,0.1875 0.41406,0.40527 v 4.3623 c 0,0.22461 -0.1875,0.41211 -0.41406,0.41211 -0.11914,0 -0.23242,-0.0596 -0.30664,-0.14941 -0.0156,-0.0147 -0.0303,-0.0303 -0.0381,-0.0459 l -2.40234,-3.33203 z" />
      </g>
      <g id="g1122">
        <path id="path1112" style="fill:#c9c9c9" d="m 94.2577,308.4375 v -4.42969 c 0,-0.22461 0.18066,-0.41309 0.41406,-0.41309 0.23242,0 0.41992,0.18848 0.41992,0.41309 v 4.00879 h 2.03418 c 0.21777,0 0.41309,0.18848 0.41309,0.4209 0,0.22461 -0.19531,0.41211 -0.41309,0.41211 h -2.4541 c -0.2334,0 -0.41406,-0.1875 -0.41406,-0.41211 z" />
        <path id="path1114" style="fill:#c9c9c9" d="m 98.37489,308.2793 1.83984,-4.37695 c 0.0898,-0.20996 0.33008,-0.30762 0.54785,-0.2168 0.20215,0.082 0.2998,0.33008 0.20996,0.5332 l -1.83887,4.38379 c -0.06738,0.15723 -0.22559,0.24707 -0.38281,0.24707 -0.0459,0 -0.10547,-0.007 -0.15039,-0.0293 -0.21777,-0.083 -0.31543,-0.33008 -0.22559,-0.54102 z" />
        <path id="path1116" style="fill:#c9c9c9" d="m 106.24012,304.00781 v 4.42969 c 0,0.22461 -0.19531,0.41211 -0.41992,0.41211 -0.2334,0 -0.41406,-0.1875 -0.41406,-0.41211 v -3.16113 l -1.08008,1.50195 c -0.083,0.1123 -0.20312,0.17285 -0.33789,0.17285 h -0.0156 c -0.13477,0 -0.2627,-0.0605 -0.3457,-0.17285 l -1.07227,-1.50195 v 3.16113 c 0,0.22461 -0.18848,0.41211 -0.4209,0.41211 -0.22559,0 -0.41309,-0.1875 -0.41309,-0.41211 v -4.42969 c 0,-0.22461 0.1875,-0.41309 0.41309,-0.41309 h 0.0225 c 0.12012,0 0.25586,0.0605 0.33008,0.17285 l 1.49414,2.07227 1.49414,-2.07227 c 0.082,-0.1123 0.20312,-0.17285 0.33789,-0.17285 h 0.008 c 0.22461,0.008 0.41992,0.18848 0.41992,0.41309 z" />
        <path id="path1118" style="fill:#c9c9c9" d="m 111.89442,304.24805 c 0.46484,0.49609 0.75781,1.15625 0.75781,1.89941 0,0.74316 -0.29297,1.41113 -0.75781,1.89941 -0.44336,0.48828 -1.10352,0.80273 -1.79492,0.80273 -0.7207,0 -1.38086,-0.31445 -1.83789,-0.80273 -0.4668,-0.48828 -0.74414,-1.15625 -0.74414,-1.89941 0,-0.74316 0.27734,-1.40332 0.74414,-1.89941 0.45703,-0.49609 1.11719,-0.80273 1.83789,-0.80273 0.69141,0 1.35156,0.30664 1.79492,0.80273 z m -0.0977,1.89941 c 0,-0.51074 -0.20312,-0.9834 -0.50977,-1.31348 -0.31641,-0.33789 -0.73633,-0.5332 -1.1875,-0.5332 -0.48047,0 -0.90039,0.19531 -1.21484,0.5332 -0.31641,0.33008 -0.51172,0.80273 -0.51172,1.31348 0,0.51075 0.19531,0.9834 0.51172,1.30566 0.31445,0.33789 0.73438,0.54102 1.21484,0.54102 0.45117,0 0.87109,-0.20312 1.1875,-0.54102 0.30664,-0.32227 0.50977,-0.79492 0.50977,-1.30566 z" />
        <path id="path1120" style="fill:#c9c9c9" d="m 114.79383,308.4375 c 0,0.22461 -0.1875,0.41211 -0.40527,0.41211 -0.23242,0 -0.41309,-0.1875 -0.41309,-0.41211 v -4.36914 c -0.007,-0.12793 0.0527,-0.26367 0.16504,-0.3457 0.1875,-0.12793 0.44336,-0.0898 0.57031,0.0898 l 2.42578,3.35547 v -3.09277 c 0,-0.21777 0.17969,-0.40527 0.4043,-0.40527 0.22656,0 0.41406,0.1875 0.41406,0.40527 v 4.3623 c 0,0.22461 -0.1875,0.41211 -0.41406,0.41211 -0.11914,0 -0.23242,-0.0596 -0.30664,-0.14941 -0.0156,-0.0147 -0.0303,-0.0303 -0.0381,-0.0459 l -2.40234,-3.33203 z" />
      </g>
    </g>
    <g id="g1150">
      <g id="g1136">
        <path id="path1126" style="fill:#c9c9c9" d="m 138.63075,308.22656 c 0.0742,0.21875 -0.0459,0.45117 -0.26367,0.52539 -0.0293,0.008 -0.0898,0.0234 -0.16504,0.0234 h -0.007 c -0.0762,0 -0.18848,-0.0156 -0.29297,-0.083 -0.0977,-0.0596 -0.18066,-0.15723 -0.24023,-0.2627 -0.10547,-0.21777 -0.1582,-0.48828 -0.1582,-0.90039 -0.008,-0.14258 -0.0371,-0.24023 -0.0898,-0.32324 -0.0449,-0.083 -0.13477,-0.15723 -0.22461,-0.21777 -0.1582,-0.10547 -0.35352,-0.16504 -0.4209,-0.17969 h -0.88574 v 1.62891 c 0,0.22461 -0.1875,0.41211 -0.4209,0.41211 -0.23242,0 -0.41309,-0.1875 -0.41309,-0.41211 v -4.42969 c 0,-0.23242 0.18066,-0.41309 0.41309,-0.41309 h 1.34375 c 0.89355,0 1.60645,0.7207 1.60645,1.61426 0,0.49609 -0.22461,0.93164 -0.58496,1.23145 0.0967,0.0752 0.1875,0.16504 0.2627,0.27734 0.15039,0.21777 0.24805,0.49512 0.24805,0.81152 -0.008,0.22461 0.0147,0.36719 0.0293,0.44238 0.12012,0.0381 0.21777,0.12793 0.26367,0.25488 z m -1.05176,-3.01758 c 0,-0.43555 -0.34473,-0.78125 -0.77344,-0.78125 h -0.92285 v 1.54688 h 0.92285 c 0.42871,0 0.77344,-0.3457 0.77344,-0.76562 z" />
        <path id="path1128" style="fill:#c9c9c9" d="m 139.93153,304.00781 c 0,-0.23242 0.18066,-0.41309 0.41309,-0.41309 0.22559,0 0.4209,0.18066 0.4209,0.41309 v 4.42969 c 0,0.23242 -0.19531,0.41211 -0.4209,0.41211 -0.23242,0 -0.41309,-0.17969 -0.41309,-0.41211 z" />
        <path id="path1130" style="fill:#c9c9c9" d="m 141.97059,306.1543 c 0,-1.50781 1.24707,-2.70898 2.77148,-2.70898 0.6377,0 1.24609,0.2168 1.71094,0.58496 0.19531,0.14258 0.22559,0.4209 0.082,0.6084 -0.14258,0.17969 -0.41992,0.21777 -0.60742,0.0674 -0.32227,-0.24707 -0.73633,-0.40527 -1.18555,-0.40527 -0.54102,0 -1.01367,0.20312 -1.35156,0.54785 -0.35352,0.33789 -0.56348,0.7959 -0.56348,1.30566 0,0.49609 0.20996,0.9541 0.56348,1.29199 0.33789,0.34473 0.81055,0.54785 1.35156,0.54785 0.375,0 0.72754,-0.1123 1.02734,-0.28516 v -1.02832 h -1.07324 c -0.23242,0 -0.42773,-0.19531 -0.42773,-0.42871 0,-0.24023 0.19531,-0.41992 0.42773,-0.41992 h 1.49414 c 0.24023,0 0.43555,0.17969 0.43555,0.41992 v 1.66016 c 0,0.0527 -0.0146,0.082 -0.0225,0.12695 -0.008,0.0156 -0.008,0.0234 -0.0156,0.0371 v 0.008 c -0.0215,0.0684 -0.0664,0.12793 -0.14258,0.18066 -0.47266,0.36816 -1.06543,0.58496 -1.70312,0.58496 -1.52441,0 -2.77148,-1.19336 -2.77148,-2.69531 z" />
        <path id="path1132" style="fill:#c9c9c9" d="m 148.00965,308.4375 v -4.42969 c 0,-0.23242 0.17969,-0.41309 0.41211,-0.41309 0.23242,0 0.4209,0.18066 0.4209,0.41309 v 1.80176 h 1.94434 v -1.80176 c 0,-0.23242 0.17969,-0.41309 0.41211,-0.41309 0.2334,0 0.4209,0.18066 0.4209,0.41309 v 4.42969 c 0,0.23242 -0.1875,0.41211 -0.4209,0.41211 -0.23242,0 -0.41211,-0.17969 -0.41211,-0.41211 v -1.80273 h -1.94434 v 1.80273 c 0,0.23242 -0.18848,0.41211 -0.4209,0.41211 -0.23242,0 -0.41211,-0.17969 -0.41211,-0.41211 z" />
        <path id="path1134" style="fill:#c9c9c9" d="m 156.57703,304.42773 h -1.19336 v 4.00977 c 0,0.23242 -0.18066,0.41211 -0.41309,0.41211 -0.22461,0 -0.41211,-0.17969 -0.41211,-0.41211 v -4.00977 h -1.1875 c -0.23242,0 -0.41211,-0.19531 -0.41211,-0.41992 0,-0.23242 0.17969,-0.41309 0.41211,-0.41309 h 3.20605 c 0.22559,0 0.41309,0.18066 0.41309,0.41309 0,0.22461 -0.1875,0.41992 -0.41309,0.41992 z" />
      </g>
      <g id="g1148">
        <path id="path1138" style="fill:#c9c9c9" d="m 138.63075,308.22656 c 0.0742,0.21875 -0.0459,0.45117 -0.26367,0.52539 -0.0293,0.008 -0.0898,0.0234 -0.16504,0.0234 h -0.007 c -0.0762,0 -0.18848,-0.0156 -0.29297,-0.083 -0.0977,-0.0596 -0.18066,-0.15723 -0.24023,-0.2627 -0.10547,-0.21777 -0.1582,-0.48828 -0.1582,-0.90039 -0.008,-0.14258 -0.0371,-0.24023 -0.0898,-0.32324 -0.0449,-0.083 -0.13477,-0.15723 -0.22461,-0.21777 -0.1582,-0.10547 -0.35352,-0.16504 -0.4209,-0.17969 h -0.88574 v 1.62891 c 0,0.22461 -0.1875,0.41211 -0.4209,0.41211 -0.23242,0 -0.41309,-0.1875 -0.41309,-0.41211 v -4.42969 c 0,-0.23242 0.18066,-0.41309 0.41309,-0.41309 h 1.34375 c 0.89355,0 1.60645,0.7207 1.60645,1.61426 0,0.49609 -0.22461,0.93164 -0.58496,1.23145 0.0967,0.0752 0.1875,0.16504 0.2627,0.27734 0.15039,0.21777 0.24805,0.49512 0.24805,0.81152 -0.008,0.22461 0.0147,0.36719 0.0293,0.44238 0.12012,0.0381 0.21777,0.12793 0.26367,0.25488 z m -1.05176,-3.01758 c 0,-0.43555 -0.34473,-0.78125 -0.77344,-0.78125 h -0.92285 v 1.54688 h 0.92285 c 0.42871,0 0.77344,-0.3457 0.77344,-0.76562 z" />
        <path id="path1140" style="fill:#c9c9c9" d="m 139.93153,304.00781 c 0,-0.23242 0.18066,-0.41309 0.41309,-0.41309 0.22559,0 0.4209,0.18066 0.4209,0.41309 v 4.42969 c 0,0.23242 -0.19531,0.41211 -0.4209,0.41211 -0.23242,0 -0.41309,-0.17969 -0.41309,-0.41211 z" />
        <path id="path1142" style="fill:#c9c9c9" d="m 141.97059,306.1543 c 0,-1.50781 1.24707,-2.70898 2.77148,-2.70898 0.6377,0 1.24609,0.2168 1.71094,0.58496 0.19531,0.14258 0.22559,0.4209 0.082,0.6084 -0.14258,0.17969 -0.41992,0.21777 -0.60742,0.0674 -0.32227,-0.24707 -0.73633,-0.40527 -1.18555,-0.40527 -0.54102,0 -1.01367,0.20312 -1.35156,0.54785 -0.35352,0.33789 -0.56348,0.7959 -0.56348,1.30566 0,0.49609 0.20996,0.9541 0.56348,1.29199 0.33789,0.34473 0.81055,0.54785 1.35156,0.54785 0.375,0 0.72754,-0.1123 1.02734,-0.28516 v -1.02832 h -1.07324 c -0.23242,0 -0.42773,-0.19531 -0.42773,-0.42871 0,-0.24023 0.19531,-0.41992 0.42773,-0.41992 h 1.49414 c 0.24023,0 0.43555,0.17969 0.43555,0.41992 v 1.66016 c 0,0.0527 -0.0146,0.082 -0.0225,0.12695 -0.008,0.0156 -0.008,0.0234 -0.0156,0.0371 v 0.008 c -0.0215,0.0684 -0.0664,0.12793 -0.14258,0.18066 -0.47266,0.36816 -1.06543,0.58496 -1.70312,0.58496 -1.52441,0 -2.77148,-1.19336 -2.77148,-2.69531 z" />
        <path id="path1144" style="fill:#c9c9c9" d="m 148.00965,308.4375 v -4.42969 c 0,-0.23242 0.17969,-0.41309 0.41211,-0.41309 0.23242,0 0.4209,0.18066 0.4209,0.41309 v 1.80176 h 1.94434 v -1.80176 c 0,-0.23242 0.17969,-0.41309 0.41211,-0.41309 0.2334,0 0.4209,0.18066 0.4209,0.41309 v 4.42969 c 0,0.23242 -0.1875,0.41211 -0.4209,0.41211 -0.23242,0 -0.41211,-0.17969 -0.41211,-0.41211 v -1.80273 h -1.94434 v 1.80273 c 0,0.23242 -0.18848,0.41211 -0.4209,0.41211 -0.23242,0 -0.41211,-0.17969 -0.41211,-0.41211 z" />
        <path id="path1146" style="fill:#c9c9c9" d="m 156.57703,304.42773 h -1.19336 v 4.00977 c 0,0.23242 -0.18066,0.41211 -0.41309,0.41211 -0.22461,0 -0.41211,-0.17969 -0.41211,-0.41211 v -4.00977 h -1.1875 c -0.23242,0 -0.41211,-0.19531 -0.41211,-0.41992 0,-0.23242 0.17969,-0.41309 0.41211,-0.41309 h 3.20605 c 0.22559,0 0.41309,0.18066 0.41309,0.41309 0,0.22461 -0.1875,0.41992 -0.41309,0.41992 z" />
      </g>
    </g>
    <line id="line1152" style="fill:none;stroke:#525252;stroke-linecap:round;stroke-miterlimit:10" y2="259.47842" x2="26.97431" y1="253.52568" x1="26.97431" />
    <line id="line1154" style="fill:none;stroke:#525252;stroke-linecap:round;stroke-miterlimit:10" y2="259.47842" x2="66.385338" y1="253.52568" x1="66.385338" />
    <line id="line1156" style="fill:none;stroke:#525252;stroke-linecap:round;stroke-miterlimit:10" y2="259.47842" x2="106.50365" y1="253.52568" x1="106.50365" />
    <line id="line1158" style="fill:none;stroke:#525252;stroke-linecap:round;stroke-miterlimit:10" y2="259.47842" x2="145.91605" y1="253.52568" x1="145.91605" />
  </g>
</svg>
